<svg width="400" height="401" viewBox="0 0 400 401" fill="none" xmlns="http://www.w3.org/2000/svg">
<path d="M80.038 249.02C77.49 243.742 71.188 242.458 65.848 244.668C58.028 247.908 55.462 256.086 52.742 264.024C51.972 266.268 40.974 296.846 40.314 298.674C43.456 294.13 47.3046 290.118 51.714 286.79C60.7349 280.806 71.0752 277.106 81.844 276.008C81.614 256.048 81.908 252.894 80.038 249.02ZM75.6 266.662C74.4127 267.864 72.8729 268.658 71.2041 268.926C69.5354 269.194 67.8246 268.924 66.32 268.154C65.2226 267.67 64.2514 266.939 63.4816 266.02C62.7118 265.1 62.1641 264.015 61.881 262.85C61.598 261.684 61.587 260.469 61.8491 259.299C62.1112 258.128 62.6393 257.034 63.3924 256.101C64.1456 255.167 65.1035 254.42 66.1921 253.916C67.2806 253.412 68.4705 253.166 69.6695 253.196C70.8685 253.227 72.0445 253.533 73.1062 254.09C74.168 254.648 75.087 255.443 75.792 256.414C76.9809 257.867 77.6144 259.696 77.5792 261.573C77.544 263.45 76.8425 265.254 75.6 266.662V266.662Z" fill="#000001"/>
<path d="M337.33 170C336.502 158.984 330.91 149.694 324.542 140.736C323.67 139.338 322.675 138.02 321.568 136.8C318.85 138.987 315.797 140.721 312.526 141.934C311.162 142.456 309.725 142.762 308.266 142.84C307.468 142.889 306.667 142.779 305.912 142.516C305.156 142.253 304.461 141.842 303.866 141.308C303.26 140.668 302.856 139.864 302.705 138.996C302.554 138.128 302.662 137.234 303.016 136.428C304.716 132.494 307.216 132.974 303.118 133.722C302.147 134 301.118 134.005 300.145 133.735C299.172 133.465 298.292 132.931 297.604 132.192C296.434 130.585 295.943 128.582 296.238 126.616C296.534 124.65 297.591 122.88 299.182 121.688C291.832 123.172 288.044 115.606 295.158 110.072C295.158 107.968 295.158 95.2115 295.158 90.9375C295.05 90.3301 294.807 89.7545 294.448 89.2525C294.09 88.7505 293.624 88.3347 293.084 88.0353C292.545 87.736 291.945 87.5606 291.329 87.5219C290.713 87.4831 290.097 87.5821 289.524 87.8116C288.861 88.2418 288.302 88.8137 287.887 89.486C287.472 90.1583 287.212 90.9143 287.124 91.6996C285.894 98.7636 286.172 111.864 286.408 118.99C292.066 124.924 294.676 133.224 296.5 141.238C299.715 156.499 301.166 172.079 300.824 187.672C316.616 188.214 338.522 185.844 337.33 170ZM328.6 176.476C328.17 177.298 326.934 176.572 327.358 175.752C328.191 174.132 328.545 172.309 328.38 170.496C328.3 169.574 329.742 169.582 329.818 170.496C329.987 172.564 329.565 174.638 328.6 176.476V176.476Z" fill="#EAEAEA"/>
<path d="M339.904 40.6796C330.364 46.5456 300.88 65.0796 295.504 68.1876C295.398 68.2541 295.31 68.3457 295.248 68.4541C295.186 68.5626 295.152 68.6847 295.148 68.8096C295.168 75.6336 295.148 107.968 295.148 110.072C297.276 108.336 300.048 106.618 302.032 105.016C302.911 104.313 303.911 103.78 304.984 103.442V75.9616C378.162 122.93 367.162 115.962 366.984 115.54C366.708 114.886 366.468 114.216 366.21 113.554C359.156 95.4096 356.63 77.1536 360.304 53.8056C360.336 52.9636 361.264 48.0336 361.564 46.5956C362.945 39.7858 365.05 33.1433 367.844 26.7816C368.666 24.9156 368.654 24.7956 368.92 24.6576C358.986 29.5036 349.324 34.8876 339.904 40.6796Z" fill="#0B00C3"/>
<path d="M367.27 64.9455C366.259 61.8481 364.672 58.9691 362.594 56.4595C361.088 54.6815 360.332 54.5175 360.31 53.8055C358.169 66.6789 358.141 79.8153 360.228 92.6975C360.208 92.5718 360.22 92.4431 360.264 92.3235C360.422 91.4975 372.052 79.5075 367.27 64.9455Z" fill="#EAEAEA"/>
<path d="M297.644 109.966C296.054 110.966 294.684 112.278 293.616 113.824C293.114 114.55 292.835 115.406 292.811 116.288C292.787 117.17 293.02 118.04 293.482 118.792C294.008 119.385 294.669 119.843 295.409 120.126C296.149 120.41 296.947 120.511 297.734 120.422C299.739 120.206 301.676 119.566 303.414 118.544C305.804 117.296 308.31 116.312 310.688 115.038C311.992 114.361 312.981 113.203 313.446 111.811C313.911 110.418 313.817 108.898 313.182 107.574C312.45 106.296 311.298 105.313 309.922 104.791C308.546 104.269 307.031 104.241 305.636 104.712C304.126 105.282 302.731 106.12 301.518 107.186C300.228 108.122 298.93 109.032 297.644 109.966Z" fill="#EAEAEA"/>
<path d="M307.348 133.344C305.772 134.376 304.624 135.944 304.114 137.758C303.992 138.45 304.12 139.163 304.476 139.769C304.832 140.374 305.392 140.834 306.056 141.064C307.306 141.479 308.648 141.53 309.926 141.21C317.748 139.334 329.27 130.67 323.354 125.768C322.535 125.389 321.626 125.248 320.731 125.36C319.836 125.472 318.99 125.833 318.29 126.402C309.674 131.462 310.64 130.676 307.348 133.344Z" fill="#EAEAEA"/>
<path d="M299.268 123.598C298.226 124.649 297.618 126.054 297.567 127.534C297.516 129.013 298.025 130.457 298.992 131.578C300.392 132.948 302.468 132.412 304.174 132.024C306.149 131.567 308.036 130.789 309.76 129.722C312.294 128.166 314.898 126.722 317.462 125.228C318.495 124.367 319.171 123.153 319.359 121.821C319.548 120.49 319.235 119.136 318.481 118.022C317.728 116.909 316.588 116.114 315.282 115.794C313.976 115.473 312.598 115.649 311.414 116.288C307.034 118.622 303.336 119.31 299.268 123.598Z" fill="#EAEAEA"/>
<path d="M375.938 44.0436C374.599 37.4747 372.582 31.0623 369.92 24.9096C369.816 24.7492 369.655 24.634 369.469 24.5873C369.284 24.5406 369.088 24.5657 368.92 24.6576C368.652 24.8036 368.67 24.9076 367.844 26.7816C364.293 34.9301 361.834 43.5115 360.528 52.3036C360.399 52.7946 360.324 53.2982 360.304 53.8056C360.308 53.939 360.34 54.0701 360.4 54.1896C360.729 54.5977 361.104 54.9662 361.518 55.2876C364.368 58.2235 366.429 61.8319 367.511 65.7778C368.593 69.7236 368.66 73.8789 367.706 77.8576C366.338 83.0489 363.846 87.8765 360.408 91.9996C360.261 92.201 360.195 92.4499 360.222 92.6976C361.539 99.8268 363.545 106.811 366.21 113.554C366.468 114.216 366.708 114.886 366.984 115.54C367.22 116.098 368.048 116.28 368.298 115.712C373.282 104.632 376.482 92.8346 377.78 80.7556C379.047 68.4961 378.426 56.1147 375.938 44.0436Z" fill="#000001"/>
<path d="M383.298 54.7476C383.216 53.8336 381.778 53.8256 381.86 54.7476C383.154 69.4316 384.364 84.6136 378.344 98.0936C377.97 98.9316 379.206 99.6616 379.584 98.8176C385.756 85.0796 384.6 69.5216 383.298 54.7476Z" fill="#000001"/>
<path d="M387.984 48.5616C387.959 48.4705 387.916 48.3853 387.858 48.3108C387.8 48.2362 387.728 48.1738 387.646 48.1272C387.564 48.0806 387.474 48.0506 387.38 48.039C387.286 48.0274 387.191 48.0344 387.1 48.0596C386.918 48.1132 386.764 48.2354 386.671 48.4002C386.577 48.5651 386.551 48.7599 386.598 48.9436C389.086 67.3016 390.69 86.6696 381.898 103.332C381.466 104.15 382.698 104.878 383.138 104.058C392.166 87.0196 390.524 67.3096 387.984 48.5616Z" fill="#000001"/>
<path d="M286.842 59.3336L291.278 64.4876C291.878 65.1916 292.896 64.1696 292.294 63.4716L287.86 58.3216C287.254 57.6136 286.242 58.6356 286.842 59.3336Z" fill="#000001"/>
<path d="M141.876 318.17C141.516 318.516 128.438 331.072 122.41 336.82C122.273 336.95 122.091 337.022 121.902 337.022C121.713 337.022 121.531 336.95 121.394 336.82L121.328 336.762C121.128 336.59 99.374 317.038 85.314 304.408C85.1805 304.272 85.1057 304.089 85.1057 303.899C85.1057 303.708 85.1805 303.525 85.314 303.39L109.274 281.576C101.004 276.717 91.3495 274.758 81.84 276.008C71.0719 277.109 60.7323 280.809 51.71 286.79C36.566 297.754 26.11 322.59 25.056 341.542C25.0581 341.731 25.1344 341.913 25.2686 342.047C25.4028 342.181 25.5843 342.258 25.774 342.26H145.87C146.06 342.258 146.241 342.181 146.375 342.047C146.51 341.913 146.586 341.731 146.588 341.542C146.68 334.162 145.356 324.578 141.876 318.17ZM43.174 332.192C57.0605 323.915 70.3094 314.612 82.81 304.362C83.52 303.78 84.542 304.792 83.826 305.378C71.2866 315.779 57.9353 325.161 43.9 333.434C43.7359 333.52 43.5448 333.54 43.3664 333.489C43.188 333.438 43.0362 333.32 42.9426 333.16C42.849 333 42.8208 332.81 42.8639 332.629C42.907 332.449 43.0181 332.292 43.174 332.192V332.192ZM117.374 341.922C116.69 342.544 115.672 341.522 116.358 340.906L119.652 337.906C120.336 337.286 121.354 338.306 120.668 338.924L117.374 341.922Z" fill="white"/>
<path d="M75.8 256.414C75.095 255.443 74.176 254.648 73.1142 254.09C72.0525 253.533 70.8765 253.227 69.6775 253.196C68.4785 253.166 67.2886 253.412 66.2001 253.916C65.1115 254.42 64.1536 255.167 63.4005 256.101C62.6473 257.034 62.1192 258.128 61.8571 259.299C61.595 260.469 61.606 261.684 61.8891 262.85C62.1721 264.015 62.7198 265.1 63.4896 266.02C64.2594 266.939 65.2306 267.67 66.328 268.154C67.9044 269.016 69.7335 269.297 71.4959 268.947C73.2583 268.598 74.8419 267.64 75.9701 266.242C77.0983 264.844 77.6993 263.093 77.6682 261.297C77.6371 259.5 76.9759 257.772 75.8 256.414Z" fill="#EAEAEA"/>
<path d="M296.498 141.238C294.572 132.746 291.736 123.894 285.328 117.918C279.459 112.774 272.35 109.25 264.702 107.696C255.844 105.639 246.563 106.436 238.186 109.974C226.04 115.208 218.646 122.686 213.654 139.268C219.164 139.158 233.47 138.896 238.826 139.83C244.046 140.738 246.308 145.852 246.972 150.578C247.484 155.073 247.709 159.597 247.646 164.122C262.906 164.122 262.046 164.084 262.246 164.174C262.379 164.229 262.493 164.321 262.575 164.439C262.658 164.557 262.705 164.696 262.712 164.84V201.862H299.864C300.054 201.858 300.235 201.781 300.368 201.647C300.502 201.512 300.579 201.331 300.582 201.142C301.066 180.564 301.128 161.644 296.498 141.238Z" fill="white"/>
<path d="M262.714 164.848C262.712 164.74 262.686 164.634 262.636 164.538C262.587 164.443 262.517 164.36 262.43 164.296C262.52 164.368 262.59 164.461 262.637 164.566C262.683 164.671 262.704 164.786 262.697 164.901C262.69 165.016 262.655 165.128 262.596 165.226C262.537 165.325 262.456 165.409 262.358 165.47C258.71 167.72 219.714 191.07 202.93 201.764C202.546 202.006 202.226 201.782 201.578 201.44C198.948 200.04 132.844 165.47 132.844 165.47C132.739 165.423 132.649 165.346 132.586 165.25C132.523 165.154 132.489 165.041 132.488 164.926C132.488 251.194 132.384 244.862 132.698 244.608C133.112 244.28 161.144 220.862 163.698 218.678C164.4 218.078 165.42 219.094 164.716 219.694C163.814 220.462 134.212 245.224 133.716 245.626C133.626 245.696 133.521 245.745 133.41 245.771C133.298 245.796 133.182 245.797 133.07 245.773C132.958 245.749 132.853 245.701 132.762 245.632C132.671 245.563 132.596 245.475 132.542 245.374C132.595 245.507 132.686 245.623 132.804 245.705C132.922 245.787 133.062 245.833 133.206 245.836H148.53L178.886 218.198C180.554 216.485 182.65 215.25 184.956 214.62C186.01 214.329 187.135 214.451 188.102 214.962C189.069 215.474 189.803 216.335 190.156 217.37C190.372 218.55 190.338 219.762 190.056 220.929C189.774 222.095 189.25 223.189 188.518 224.14C185.266 229.417 181.443 234.32 177.118 238.762C182.692 236.64 188.226 240.088 186.938 245.836H261.962C261.008 245.636 257.308 241.236 229.846 219.762C229.116 219.192 230.14 218.182 230.862 218.744C239.98 225.86 253.888 236.966 262.514 244.608C262.637 244.716 262.717 244.866 262.738 245.03C263.626 244.922 262.92 183.564 262.714 164.848Z" fill="#0B00C3"/>
<path d="M191.106 250.238C188.811 249.984 186.489 250.273 184.326 251.082C185.893 249.177 186.862 246.851 187.11 244.398C187.266 239.35 181.986 236.904 177.11 238.762C181.434 234.32 185.257 229.416 188.51 224.14C189.242 223.189 189.766 222.095 190.048 220.929C190.33 219.762 190.364 218.55 190.148 217.37C189.795 216.335 189.061 215.474 188.094 214.962C187.127 214.451 186.002 214.329 184.948 214.62C182.642 215.249 180.546 216.485 178.878 218.198L85.306 303.398C85.1725 303.533 85.0977 303.716 85.0977 303.907C85.0977 304.097 85.1725 304.28 85.306 304.416L121.4 336.82C121.537 336.95 121.719 337.022 121.908 337.022C122.097 337.022 122.279 336.95 122.416 336.82C155.756 304.96 164.616 295.842 174.2 285.88C183.22 276.496 191.102 268.788 195.084 257.59C195.374 256.849 195.499 256.053 195.45 255.259C195.402 254.464 195.18 253.69 194.801 252.99C194.423 252.29 193.896 251.681 193.258 251.206C192.619 250.731 191.885 250.4 191.106 250.238ZM163.726 249.354L168.564 244.608C169.224 243.96 170.242 244.976 169.58 245.626L164.742 250.37C164.08 251.02 163.064 250.004 163.726 249.354V249.354ZM173.46 257.922L178.106 254.146C178.818 253.568 179.842 254.58 179.122 255.162L174.478 258.938C173.766 259.522 172.742 258.51 173.46 257.922ZM138.444 307.604C135.935 309.669 133.49 311.809 131.11 314.024C130.434 314.654 129.416 313.64 130.094 313.008C132.473 310.794 134.917 308.654 137.426 306.588C138.136 306.004 139.158 307.016 138.444 307.604Z" fill="#EAEAEA"/>
<path d="M261.904 164.122C261.692 164.152 207.378 197.348 202.548 200.304L133.57 164.228C132.706 163.78 132.07 165.07 132.844 165.47C204.744 202.67 202.216 202.238 202.93 201.764L262.358 165.47C262.503 165.385 262.614 165.254 262.672 165.097C262.731 164.941 262.734 164.769 262.681 164.61C262.627 164.452 262.521 164.317 262.379 164.228C262.238 164.139 262.07 164.101 261.904 164.122V164.122Z" fill="#000001"/>
<path d="M171.176 157.78H227.084C227.268 157.77 227.442 157.69 227.568 157.556C227.695 157.422 227.766 157.245 227.766 157.061C227.766 156.876 227.695 156.699 227.568 156.565C227.442 156.431 227.268 156.351 227.084 156.342H171.176C170.992 156.351 170.819 156.431 170.692 156.565C170.565 156.699 170.494 156.876 170.494 157.061C170.494 157.245 170.565 157.422 170.692 157.556C170.819 157.69 170.992 157.77 171.176 157.78V157.78Z" fill="#000001"/>
<path d="M227.084 175.156C227.268 175.146 227.442 175.066 227.568 174.932C227.695 174.798 227.766 174.621 227.766 174.437C227.766 174.252 227.695 174.075 227.568 173.941C227.442 173.807 227.268 173.727 227.084 173.718H171.176C170.992 173.727 170.819 173.807 170.692 173.941C170.565 174.075 170.494 174.252 170.494 174.437C170.494 174.621 170.565 174.798 170.692 174.932C170.819 175.066 170.992 175.146 171.176 175.156H227.084Z" fill="#000001"/>
<path d="M179.962 125.434C180.146 125.424 180.32 125.344 180.446 125.21C180.573 125.076 180.644 124.899 180.644 124.715C180.644 124.53 180.573 124.353 180.446 124.219C180.32 124.085 180.146 124.005 179.962 123.996H124.222C124.038 124.005 123.865 124.085 123.738 124.219C123.611 124.353 123.54 124.53 123.54 124.715C123.54 124.899 123.611 125.076 123.738 125.21C123.865 125.344 124.038 125.424 124.222 125.434H179.962Z" fill="#000001"/>
<path d="M124.222 109.858H179.962C180.152 109.858 180.335 109.782 180.47 109.647C180.604 109.513 180.68 109.33 180.68 109.14C180.68 108.949 180.604 108.767 180.47 108.632C180.335 108.497 180.152 108.422 179.962 108.422H124.222C124.032 108.422 123.849 108.497 123.714 108.632C123.58 108.767 123.504 108.949 123.504 109.14C123.504 109.33 123.58 109.513 123.714 109.647C123.849 109.782 124.032 109.858 124.222 109.858V109.858Z" fill="#000001"/>
<path d="M133.716 245.626C134.222 245.226 163.824 220.462 164.716 219.694C165.42 219.094 164.4 218.082 163.698 218.678C161.134 220.862 133.098 244.278 132.698 244.608C132 245.162 132.98 246.206 133.716 245.626Z" fill="#000001"/>
<path d="M328.6 176.476C329.565 174.638 329.987 172.564 329.818 170.496C329.742 169.582 328.3 169.574 328.38 170.496C328.545 172.309 328.191 174.132 327.358 175.752C326.928 176.572 328.164 177.298 328.6 176.476Z" fill="#000001"/>
<path d="M230.852 218.744C230.132 218.182 229.106 219.192 229.836 219.762C236.206 224.734 253.292 238.338 261.488 245.626C261.562 245.69 261.648 245.74 261.74 245.771C261.833 245.803 261.932 245.816 262.03 245.809C262.127 245.803 262.223 245.777 262.311 245.733C262.399 245.69 262.477 245.629 262.542 245.556C262.602 245.491 262.648 245.415 262.679 245.332C262.709 245.25 262.723 245.162 262.72 245.074C262.716 244.986 262.695 244.899 262.658 244.819C262.621 244.739 262.569 244.667 262.504 244.608C255.384 238.144 238.52 224.736 230.852 218.744Z" fill="#000001"/>
<path d="M261.638 164.122C260.82 164.106 257.626 164.122 247.638 164.122C247.73 159.594 247.505 155.066 246.964 150.57C246.3 145.844 244.038 140.73 238.818 139.822C234.948 139.148 203.494 139.478 202.902 139.55C202.834 139.35 201.202 137.92 200.604 130.166C200.347 126.766 200.285 123.354 200.416 119.948C200.78 109.774 197.678 95.4236 189.094 89.9196C185.124 87.3736 181.694 87.2356 176.332 87.3956C174.532 87.4516 75.8041 87.4476 74.4961 87.4476C67.6681 87.4476 60.2961 89.0076 55.8041 94.5716C50.5221 101.106 50.6481 110.204 50.2481 118.048C50.2001 118.972 51.6481 118.97 51.6861 118.048C51.7098 113.121 52.2033 108.207 53.1601 103.374C53.6583 100.781 54.7446 98.3381 56.3354 96.2317C57.9262 94.1253 59.9791 92.412 62.3361 91.2236C66.149 89.4986 70.3152 88.6975 74.4961 88.8856H83.9341C90.4481 89.2856 95.2301 92.0056 98.5001 99.0416C105.144 113.338 99.6361 130.36 110.996 142.354C114.01 145.552 118.116 147.5 122.5 147.81C127.062 148.11 130.762 145.582 134.57 143.428C136.348 142.272 138.351 141.507 140.446 141.184C141.408 141.089 142.38 141.2 143.295 141.511C144.211 141.821 145.05 142.323 145.756 142.984C149.594 146.584 149.714 153.28 149.824 164.132H133.354C134.258 164.552 139.428 167.302 151.42 173.57C151.276 167.8 151.206 162.028 151.062 156.258C150.924 150.742 150.212 144.21 145.642 141.16C178.704 141.132 238.054 140.986 239.77 141.542C244.73 143.154 245.91 150.516 245.988 155.756C246.05 160.022 246.438 173.386 246.436 173.51C263.368 163.156 262.156 164.14 261.638 164.122ZM127.504 145.572C119.772 148.508 109.904 143.102 106.432 131.692C103.3 121.434 104.472 110.34 100.58 100.292C99.7992 97.8074 98.5121 95.5119 96.7999 93.5498C95.0877 91.5878 92.9877 90.0017 90.6321 88.8916C90.6321 88.8916 177.232 88.7996 180.36 88.8476C189.96 88.9976 194.466 96.0236 197.18 105.248C199.98 114.77 198.678 120.574 199.03 127.924C198.978 131.93 199.726 135.907 201.23 139.622C151.23 139.72 142.798 139.704 141.33 139.724C135.678 139.806 132.436 143.7 127.504 145.572Z" fill="#0B00C3"/>
<path d="M103.764 180.522L91.186 167.344C90.546 166.672 89.53 167.69 90.168 168.36L102.748 181.538C103.388 182.2 104.4 181.184 103.764 180.522Z" fill="#000001"/>
<path d="M84.686 206.9H103.856C104.04 206.89 104.214 206.81 104.34 206.676C104.467 206.542 104.538 206.365 104.538 206.181C104.538 205.996 104.467 205.819 104.34 205.685C104.214 205.551 104.04 205.471 103.856 205.462H84.686C84.5019 205.471 84.3285 205.551 84.2016 205.685C84.0747 205.819 84.004 205.996 84.004 206.181C84.004 206.365 84.0747 206.542 84.2016 206.676C84.3285 206.81 84.5019 206.89 84.686 206.9V206.9Z" fill="#000001"/>
<path d="M92.982 242.63L105.562 230.05C105.686 229.913 105.753 229.733 105.748 229.548C105.743 229.363 105.667 229.188 105.537 229.057C105.406 228.926 105.23 228.851 105.045 228.847C104.86 228.843 104.681 228.909 104.544 229.034L91.966 241.614C91.8313 241.748 91.7556 241.931 91.7556 242.122C91.7556 242.312 91.8313 242.495 91.966 242.63C92.1008 242.764 92.2835 242.84 92.474 242.84C92.6646 242.84 92.8473 242.764 92.982 242.63Z" fill="#000001"/>
<path d="M255.916 80.5776C254.544 80.1678 253.096 80.0839 251.686 80.3325C250.276 80.5811 248.943 81.1554 247.794 82.0096C246.847 82.759 246.063 83.695 245.493 84.7596C244.922 85.8241 244.576 86.9946 244.476 88.1983C244.376 89.4021 244.524 90.6136 244.912 91.7577C245.299 92.9018 245.917 93.9542 246.728 94.8496C248.177 96.3306 250.094 97.2649 252.154 97.4941C254.213 97.7234 256.288 97.2335 258.028 96.1076C258.189 96.008 258.306 95.8503 258.354 95.6671C258.402 95.484 258.377 95.2894 258.286 95.1236C257.244 93.2396 256.162 91.3756 255.064 89.5236C257.108 89.3236 261.178 88.9896 261.546 88.8196C261.685 88.7735 261.807 88.6868 261.897 88.5705C261.986 88.4543 262.039 88.314 262.048 88.1676C262.179 86.3608 261.618 84.5717 260.48 83.1626C259.341 81.7535 257.71 80.8295 255.916 80.5776V80.5776Z" fill="#EAEAEA"/>
<path d="M274.71 69.7736C274.53 69.2393 274.189 68.7742 273.733 68.4424C273.277 68.1106 272.73 67.9286 272.166 67.9216C269.43 67.5874 266.668 67.5278 263.92 67.7436C265.384 66.5028 266.563 64.9603 267.376 63.2216C267.518 62.7656 267.554 62.2831 267.48 61.8111C267.407 61.3392 267.226 60.8903 266.952 60.4989C266.679 60.1076 266.319 59.7841 265.901 59.5533C265.483 59.3226 265.017 59.1906 264.54 59.1676C263.424 59.2581 262.385 59.7693 261.632 60.5976C260.654 61.4336 259.746 62.3556 258.832 63.2556C254.618 67.13 250.972 71.5791 248 76.4716C247.946 76.5822 247.919 76.7045 247.923 76.8278C247.927 76.951 247.961 77.0713 248.023 77.1782C248.084 77.2851 248.171 77.3753 248.276 77.4407C248.38 77.5062 248.499 77.5449 248.622 77.5536C256.09 77.7378 263.537 76.6767 270.656 74.4136C271.859 74.1341 272.972 73.5556 273.892 72.7316C274.265 72.3466 274.536 71.8739 274.679 71.3571C274.822 70.8402 274.832 70.2957 274.71 69.7736V69.7736Z" fill="#000001"/>
<path d="M309.338 236.91C308.656 236.99 307.965 236.913 307.318 236.684C303.938 235.726 302.978 231.97 305.758 229.084C303.376 229.068 301.036 228.448 298.958 227.284C298.084 226.801 297.392 226.045 296.988 225.132C296.888 224.935 296.835 224.717 296.835 224.496C296.835 224.275 296.888 224.057 296.988 223.86C296.972 223.876 296.948 223.876 296.934 223.894C289.466 233.25 303.124 243.268 309.614 236.748C309.531 236.816 309.438 236.871 309.338 236.91V236.91Z" fill="white"/>
<path d="M313 228.484C312.8 226.728 312.066 225.076 310.897 223.751C309.729 222.426 308.182 221.491 306.466 221.072C304.998 220.656 303.45 220.604 301.958 220.922C300.466 221.24 299.073 221.917 297.902 222.896C297.556 223.178 297.25 223.508 296.994 223.874C296.895 224.071 296.844 224.289 296.844 224.51C296.844 224.73 296.895 224.948 296.994 225.146C297.398 226.059 298.09 226.815 298.964 227.298C301.042 228.462 303.382 229.081 305.764 229.098C302.964 232.004 303.982 235.746 307.324 236.698C307.971 236.927 308.662 237.005 309.344 236.924C309.786 236.667 310.156 236.303 310.42 235.866C312.109 233.778 313.02 231.169 313 228.484V228.484Z" fill="#000001"/>
<path d="M369.838 286.692C369.11 281.983 367.326 277.499 364.618 273.578C361.911 269.657 358.351 266.399 354.206 264.05C350.177 261.944 345.888 260.377 341.45 259.39C322.264 254.79 301.85 256.688 282.826 261.936C278.86 262.796 275.098 264.416 271.748 266.706C282.197 269.942 291.834 275.375 300.011 282.641C308.189 289.907 314.718 298.837 319.16 308.834C319.972 310.672 320.76 312.518 321.56 314.364C321.508 310.996 321.38 308.88 321.588 306.334C322.106 301.006 324.385 296.003 328.063 292.114C331.741 288.225 336.61 285.672 341.9 284.858C347.191 284.044 352.602 285.016 357.279 287.619C361.956 290.223 365.632 294.31 367.728 299.236C368.946 302.261 369.606 305.483 369.676 308.744C369.89 313.409 369.839 318.084 369.524 322.744C371.432 309.948 372.098 298.522 369.838 286.692Z" fill="white"/>
<path d="M278.894 319.286C273.548 322.466 267.729 324.774 261.656 326.122C261.676 329.96 261.856 340.246 261.876 341.552C261.879 341.741 261.956 341.922 262.09 342.056C262.224 342.19 262.405 342.267 262.594 342.27C263.504 342.284 283.994 342.508 283.994 342.508C281.61 334.933 279.903 327.162 278.894 319.286V319.286Z" fill="white"/>
<path d="M369.676 308.744C369.606 305.483 368.946 302.261 367.728 299.236C365.634 294.309 361.957 290.22 357.28 287.615C352.603 285.01 347.191 284.038 341.899 284.852C336.608 285.666 331.738 288.22 328.06 292.11C324.382 296 322.105 301.005 321.588 306.334C321.388 308.866 321.506 310.934 321.56 314.364C320.76 312.518 319.972 310.672 319.16 308.834C313.663 296.401 304.932 285.669 293.878 277.758C283.454 270.29 266.782 262.918 254.016 264.46C250.367 264.866 246.819 265.91 243.532 267.546C242.182 268.255 240.871 269.039 239.606 269.892C235.908 272.314 231.158 275.32 229.606 279.128C229.122 280.333 229.062 281.666 229.436 282.91C229.811 284.153 230.597 285.232 231.666 285.97C232.855 286.644 234.174 287.059 235.535 287.188C236.896 287.316 238.269 287.155 239.564 286.716C242.446 285.894 245.214 284.719 247.806 283.216C248.032 283.1 248.28 283.035 248.534 283.025C248.787 283.016 249.04 283.061 249.274 283.159C249.508 283.257 249.717 283.405 249.888 283.592C250.059 283.779 250.188 284.002 250.264 284.244C250.34 284.486 250.363 284.741 250.33 284.993C250.297 285.244 250.21 285.486 250.075 285.7C249.939 285.915 249.758 286.097 249.545 286.234C249.332 286.371 249.091 286.461 248.84 286.496C245.283 287.227 242.022 288.994 239.466 291.574C238.632 292.591 238.194 293.876 238.234 295.191C238.274 296.507 238.789 297.763 239.684 298.728C241.216 300.335 243.244 301.382 245.442 301.7C242.764 302.442 240.338 303.82 240.278 306.83C240.21 310.274 243.04 313.608 248.462 313.682C242.228 317.824 243.532 324.296 248.34 325.908C252.32 327.542 257.434 326.952 261.666 326.108C267.738 324.762 273.557 322.458 278.904 319.282C281.156 335.754 285.378 353.786 297.96 364.416C306.546 371.672 320.836 374.908 331.054 373.874C345.56 372.404 358.202 360.65 363.994 347.074C369.122 335.026 370.234 321.94 369.676 308.744ZM325.538 366.532C325.488 366.348 325.513 366.152 325.607 365.986C325.701 365.821 325.857 365.699 326.04 365.648L334.44 364.496C334.624 364.448 334.819 364.474 334.984 364.568C335.149 364.662 335.272 364.816 335.326 364.998C335.376 365.181 335.351 365.377 335.257 365.543C335.163 365.708 335.007 365.83 334.824 365.882L326.424 367.034C326.24 367.081 326.045 367.056 325.879 366.962C325.714 366.868 325.592 366.714 325.538 366.532ZM294.314 302.906C292.072 306.916 289.366 310.649 286.252 314.028C285.628 314.714 284.614 313.694 285.236 313.012C288.205 309.673 290.83 306.044 293.072 302.18C293.173 302.024 293.329 301.913 293.51 301.869C293.69 301.826 293.88 301.855 294.04 301.948C294.201 302.042 294.318 302.194 294.369 302.372C294.42 302.55 294.401 302.741 294.314 302.906V302.906ZM258.65 300.028L264.344 298.842C265.248 298.654 265.63 300.042 264.726 300.228L259.032 301.414C258.128 301.602 257.744 300.216 258.65 300.028V300.028ZM260.932 311.088C263.224 310.898 265.48 310.399 267.638 309.604C268.51 309.284 268.882 310.676 268.02 310.99C265.738 311.82 263.353 312.336 260.932 312.526C260 312.6 260.016 311.164 260.932 311.088V311.088Z" fill="#EAEAEA"/>
<path d="M223.544 302.278C223.038 303.056 224.282 303.776 224.786 303.002C226.586 300.234 228.944 295.284 231.408 294.018C231.546 293.932 231.708 293.89 231.87 293.898C232.033 293.907 232.189 293.964 232.318 294.064C233.612 295.012 233.106 297.188 232.732 298.434C231.915 300.997 230.818 303.461 229.46 305.784C229.006 306.584 230.248 307.318 230.7 306.51C232.05 304.174 233.163 301.709 234.02 299.152C234.443 298.241 234.636 297.24 234.581 296.237C234.525 295.234 234.224 294.261 233.704 293.402C230.312 289.432 225.832 298.752 223.544 302.278Z" fill="#000001"/>
<path d="M231.148 311.182C229.873 308.797 227.92 306.843 225.536 305.566C222.621 304.25 219.4 303.761 216.226 304.152C208.476 305.08 200.598 308.412 191.598 317.008C189.294 319.208 187.198 321.608 185.024 323.944C184.949 324.022 184.892 324.117 184.857 324.221C184.823 324.324 184.813 324.434 184.827 324.543C184.841 324.651 184.879 324.754 184.938 324.846C184.998 324.938 185.077 325.015 185.17 325.072C194.75 330.884 204.092 337.072 213.57 343.046C213.334 345.918 212.754 352.94 212.754 352.94C212.678 353.862 214.116 353.856 214.192 352.94L214.936 343.912C215.25 344.112 221.336 347.858 224.088 349.488C224.167 349.545 224.257 349.584 224.352 349.602C224.448 349.619 224.546 349.616 224.64 349.591C224.734 349.567 224.821 349.521 224.896 349.459C224.97 349.396 225.03 349.318 225.07 349.23C227.96 342.899 230.301 336.332 232.07 329.602C233.648 323.544 234.236 316.898 231.148 311.182Z" fill="#0B00C3"/>
<path d="M216.444 359.322C215.918 358.54 215.179 357.924 214.315 357.548C213.451 357.171 212.498 357.049 211.567 357.196C210.636 357.344 209.766 357.753 209.06 358.378C208.354 359.002 207.842 359.816 207.582 360.722C207.241 361.855 207.295 363.07 207.734 364.169C208.173 365.268 208.972 366.185 210 366.772C211.042 367.336 212.264 367.466 213.401 367.133C214.538 366.799 215.497 366.029 216.068 364.992C216.672 364.184 217.028 363.218 217.095 362.212C217.162 361.206 216.936 360.202 216.444 359.322Z" fill="#0B00C3"/>
<path d="M240.966 356.794C240.682 355.918 239.292 356.292 239.58 357.176L245.452 375.176C245.738 376.052 247.126 375.676 246.838 374.794L240.966 356.794Z" fill="#000001"/>
<path d="M244.686 355.296C244.585 355.142 244.428 355.034 244.249 354.992C244.07 354.95 243.882 354.979 243.723 355.071C243.565 355.164 243.447 355.314 243.395 355.49C243.343 355.666 243.361 355.856 243.444 356.02C246.108 360.82 252.362 371.688 252.764 372.356C252.86 372.52 253.018 372.64 253.202 372.688C253.387 372.736 253.583 372.709 253.747 372.613C253.911 372.516 254.031 372.359 254.079 372.174C254.127 371.99 254.1 371.794 254.004 371.63C252.094 368.188 244.8 355.496 244.686 355.296Z" fill="#000001"/>
<path d="M293.072 302.18C290.83 306.044 288.205 309.673 285.236 313.012C284.614 313.694 285.636 314.714 286.252 314.028C289.366 310.649 292.072 306.916 294.314 302.906C294.401 302.741 294.42 302.55 294.369 302.372C294.318 302.194 294.201 302.042 294.04 301.948C293.88 301.855 293.69 301.826 293.51 301.869C293.329 301.913 293.173 302.024 293.072 302.18V302.18Z" fill="#000001"/>
<path d="M267.638 309.604C265.48 310.399 263.224 310.898 260.932 311.088C260.016 311.164 260.008 312.6 260.932 312.526C263.353 312.336 265.738 311.82 268.02 310.99C268.882 310.676 268.51 309.284 267.638 309.604Z" fill="#000001"/>
<path d="M264.344 298.842L258.65 300.028C257.744 300.216 258.128 301.602 259.032 301.414L264.726 300.228C265.63 300.04 265.248 298.654 264.344 298.842Z" fill="#000001"/>
<path d="M334.432 364.496L326.032 365.648C325.849 365.699 325.693 365.821 325.599 365.986C325.505 366.152 325.48 366.348 325.53 366.532C325.584 366.713 325.706 366.867 325.871 366.961C326.036 367.055 326.23 367.081 326.414 367.034L334.814 365.882C334.997 365.83 335.153 365.708 335.247 365.543C335.341 365.377 335.366 365.181 335.316 364.998C335.262 364.816 335.14 364.662 334.975 364.569C334.81 364.475 334.616 364.449 334.432 364.496V364.496Z" fill="#000001"/>
<path d="M137.426 306.588C134.918 308.652 132.474 310.792 130.094 313.008C129.416 313.64 130.434 314.654 131.11 314.024C133.487 311.81 135.932 309.67 138.444 307.604C139.158 307.016 138.136 306.004 137.426 306.588Z" fill="white"/>
<path d="M82.81 304.362C70.3035 314.604 57.0552 323.907 43.174 332.192C43.0181 332.292 42.907 332.449 42.8639 332.629C42.8208 332.81 42.849 333 42.9426 333.16C43.0362 333.32 43.188 333.438 43.3664 333.489C43.5448 333.54 43.7359 333.52 43.9 333.434C57.9339 325.159 71.2849 315.777 83.826 305.378C84.542 304.792 83.52 303.78 82.81 304.362Z" fill="white"/>
<path d="M119.652 337.91L116.358 340.91C115.672 341.534 116.69 342.548 117.374 341.926L120.668 338.926C121.354 338.304 120.336 337.29 119.652 337.91Z" fill="white"/>
<path d="M168.564 244.608L163.726 249.354C163.064 250.004 164.08 251.02 164.742 250.37L169.58 245.626C170.242 244.976 169.224 243.96 168.564 244.608Z" fill="white"/>
<path d="M178.106 254.152L173.46 257.922C172.742 258.504 173.766 259.522 174.478 258.938L179.122 255.162C179.842 254.586 178.818 253.574 178.106 254.152Z" fill="white"/>
<path d="M24.342 311.426C24.2607 311.378 24.1707 311.346 24.0772 311.333C23.9837 311.32 23.8885 311.326 23.7972 311.35C23.7058 311.374 23.6202 311.415 23.5451 311.473C23.4701 311.53 23.4072 311.602 23.36 311.684L16.56 327.764C16.4691 327.929 16.4451 328.124 16.4931 328.307C16.5411 328.49 16.6574 328.648 16.818 328.748C16.9828 328.844 17.1789 328.87 17.3634 328.822C17.5479 328.774 17.7056 328.654 17.802 328.49L24.602 312.408C24.6932 312.242 24.717 312.047 24.6686 311.865C24.6202 311.682 24.5032 311.524 24.342 311.426Z" fill="#000001"/>
<path d="M18.71 309.95L10.078 328.406C9.68803 329.238 10.926 329.97 11.318 329.132L19.95 310.676C20.34 309.844 19.102 309.122 18.71 309.95Z" fill="#000001"/>
<path d="M319.95 124.064C320.543 122.968 320.819 121.729 320.746 120.486C320.673 119.243 320.255 118.044 319.538 117.026C318.843 116.165 317.96 115.477 316.956 115.013C315.952 114.549 314.855 114.323 313.75 114.352C314.37 113.468 314.794 112.463 314.995 111.403C315.196 110.343 315.169 109.252 314.916 108.204C313.66 103.05 306.732 101.226 302.038 105.016C300.066 106.616 297.88 107.904 295.154 110.072C287.954 115.798 291.97 123.142 299.178 121.688C297.586 122.879 296.528 124.65 296.233 126.616C295.937 128.582 296.429 130.585 297.6 132.192C299.486 134.508 302.506 133.992 305.336 133.21C304.332 134.096 303.538 135.195 303.012 136.428C302.658 137.234 302.55 138.128 302.701 138.996C302.852 139.864 303.256 140.668 303.862 141.308C304.457 141.842 305.152 142.253 305.908 142.516C306.663 142.779 307.464 142.889 308.262 142.84C309.721 142.762 311.158 142.456 312.522 141.934C317.456 140.032 322.656 136.934 325.406 132.394C326.07 131.421 326.424 130.271 326.424 129.094C326.424 127.916 326.07 126.766 325.406 125.794C324.803 124.958 323.947 124.338 322.964 124.026C321.981 123.715 320.925 123.728 319.95 124.064V124.064ZM297.734 120.422C296.947 120.511 296.149 120.41 295.409 120.126C294.669 119.843 294.008 119.385 293.482 118.792C293.02 118.04 292.787 117.17 292.811 116.288C292.835 115.406 293.114 114.55 293.616 113.824C294.684 112.278 296.054 110.966 297.644 109.966C298.93 109.032 300.228 108.114 301.518 107.186C302.73 106.12 304.126 105.281 305.636 104.712C307.031 104.241 308.545 104.269 309.922 104.791C311.298 105.313 312.45 106.296 313.182 107.574C313.817 108.898 313.911 110.418 313.446 111.811C312.981 113.203 311.991 114.361 310.688 115.038C308.31 116.312 305.804 117.296 303.414 118.544C301.676 119.566 299.739 120.206 297.734 120.422V120.422ZM304.174 132.022C302.468 132.41 300.384 132.946 298.992 131.576C298.026 130.455 297.517 129.011 297.569 127.532C297.62 126.053 298.227 124.647 299.268 123.596C303.336 119.308 307.036 118.62 311.414 116.278C312.598 115.639 313.976 115.463 315.282 115.784C316.588 116.105 317.728 116.899 318.481 118.012C319.235 119.126 319.548 120.48 319.359 121.811C319.171 123.143 318.495 124.357 317.462 125.218C314.898 126.722 312.294 128.156 309.76 129.712C308.037 130.783 306.15 131.564 304.174 132.024V132.022ZM309.926 141.208C308.648 141.528 307.306 141.477 306.056 141.062C305.392 140.832 304.832 140.372 304.476 139.767C304.12 139.161 303.992 138.448 304.114 137.756C304.624 135.942 305.772 134.374 307.348 133.342C310.638 130.676 309.774 131.4 318.29 126.4C318.99 125.831 319.836 125.47 320.731 125.358C321.626 125.246 322.535 125.387 323.354 125.766C329.282 130.682 317.754 139.332 309.926 141.21V141.208Z" fill="#000001"/>
<path d="M191.132 249.988C189.069 249.763 186.981 249.967 185 250.588C185.952 249.216 186.669 247.695 187.12 246.088H262C262.186 246.087 262.367 246.032 262.522 245.929C262.676 245.826 262.798 245.68 262.87 245.51C263.024 245.31 262.964 245.532 262.964 202.11H299.868C300.123 202.107 300.367 202.005 300.548 201.824C300.728 201.644 300.831 201.401 300.834 201.146C300.834 201.146 301.034 192.162 301.072 187.928C317.044 188.442 338.776 185.898 337.58 169.98C337.01 162.428 334.018 154.58 328.428 145.98C327.746 144.93 323.192 138.14 321.934 136.826C323.399 135.613 324.647 134.159 325.624 132.528C328.424 127.908 324.872 122.676 320.424 123.68C320.909 122.584 321.1 121.381 320.98 120.189C320.859 118.996 320.43 117.856 319.736 116.88C319.065 116.053 318.226 115.379 317.274 114.902C316.322 114.426 315.28 114.157 314.216 114.116C314.766 113.282 315.139 112.344 315.311 111.36C315.484 110.376 315.452 109.367 315.218 108.396C314.984 107.425 314.553 106.512 313.952 105.715C313.35 104.917 312.591 104.252 311.722 103.76C309.734 102.694 307.404 102.461 305.244 103.112V76.4195C368.166 116.802 367.536 116.552 367.856 116.306C368.003 116.291 368.144 116.238 368.263 116.151C368.383 116.064 368.477 115.947 368.536 115.812C374.975 101.549 378.44 86.1242 378.718 70.4782C378.996 54.8322 376.082 39.2937 370.154 24.8115C370.024 24.5876 369.813 24.4227 369.564 24.3515C369.315 24.2803 369.049 24.3082 368.82 24.4295C356.76 30.3095 311.352 57.5115 295.314 68.0295C295.156 68.1335 295.056 68.1815 294.994 68.6615C294.832 69.9075 294.926 74.0615 294.918 89.5995C294.422 88.6286 293.576 87.8826 292.55 87.513C291.525 87.1435 290.397 87.178 289.396 87.6095C288.702 88.0561 288.116 88.6519 287.681 89.3536C287.246 90.0552 286.973 90.8451 286.882 91.6655C285.99 96.7755 285.74 105.756 286.14 118.364C280.146 112.84 272.751 109.067 264.76 107.458C255.852 105.373 246.511 106.176 238.09 109.752C227.224 114.434 218.876 121.212 213.472 139.03C211.046 139.078 204.146 139.256 203.03 139.308C201.605 136.469 200.863 133.337 200.864 130.162C200.61 126.768 200.548 123.362 200.678 119.962C201.064 109.176 197.652 95.1075 189.24 89.7155C185.14 87.0855 181.628 86.9935 176.336 87.1515C175.612 87.1755 74.508 87.2035 74.508 87.2035C65.846 87.2035 59.49 89.6335 55.622 94.4215C50.362 100.922 50.422 109.872 50 118.042C49.934 119.296 51.874 119.322 51.936 118.068C52.316 110.668 52.208 102.668 56.406 96.5715C60.896 90.0495 69.326 89.1135 73.922 89.1515C83.41 89.2115 84.802 88.8295 88.626 89.9515C90.7959 90.7108 92.7789 91.9241 94.4426 93.5106C96.1064 95.097 97.4125 97.0202 98.274 99.1515C102.722 108.722 101.674 119.722 104.138 129.876C106.158 138.218 112.038 147.376 122.484 148.066C127.118 148.362 130.884 145.804 134.71 143.644C136.452 142.507 138.416 141.757 140.472 141.444C141.398 141.35 142.333 141.455 143.215 141.752C144.097 142.049 144.905 142.531 145.586 143.166C148.324 145.728 148.986 150.054 149.244 153.538C149.514 157.092 149.548 160.832 149.57 163.882H133.2C132.962 163.891 132.736 163.985 132.561 164.147C132.387 164.309 132.276 164.527 132.248 164.764C132.248 164.822 132.236 164.83 132.236 244.896C132.209 245.04 132.214 245.188 132.25 245.33C132.286 245.473 132.352 245.605 132.444 245.719C132.536 245.833 132.652 245.926 132.784 245.991C132.915 246.056 133.059 246.092 133.206 246.096H147.882L109.242 281.274C101.047 276.488 91.5003 274.543 82.086 275.742C81.886 257.228 82.194 252.926 80.26 248.92C77.492 243.186 70.86 242.32 65.75 244.448C58.084 247.624 55.384 255.526 52.772 263.168C52.772 263.168 40.752 296.732 40.088 298.568C31.2605 311.278 25.9831 326.113 24.8 341.544C24.8041 341.799 24.9075 342.042 25.0882 342.223C25.2689 342.403 25.5127 342.506 25.768 342.51H145.87C146.125 342.506 146.37 342.404 146.55 342.223C146.731 342.043 146.834 341.799 146.838 341.544C146.924 334.628 145.746 324.9 142.186 318.218C157.374 303.546 165.618 295.138 176.004 284.36C184.348 275.698 191.562 268.226 195.314 257.674C195.617 256.897 195.747 256.064 195.695 255.232C195.643 254.4 195.409 253.59 195.011 252.858C194.612 252.126 194.059 251.489 193.389 250.994C192.719 250.498 191.949 250.154 191.132 249.988V249.988ZM137.178 165.818H149.6C149.616 167.29 149.68 170.932 149.712 172.388C148.472 171.744 138.738 166.634 137.178 165.818ZM120.836 339.122C121.764 338.278 120.416 336.894 119.484 337.736L116.352 340.582C111.672 340.582 32.276 340.522 26.828 340.56C28.344 321.08 39.556 295.482 55.808 286.138C70.608 277.628 92.358 273.278 107.754 282.632L85.134 303.232C84.9547 303.417 84.8555 303.665 84.8577 303.923C84.8599 304.181 84.9635 304.427 85.146 304.61C86.478 305.81 121.184 336.982 121.224 337.01C121.409 337.181 121.652 337.276 121.904 337.276C122.156 337.276 122.399 337.181 122.584 337.01C128.128 331.71 138.96 321.334 140.726 319.64C143.578 326.247 144.993 333.386 144.876 340.582H119.23L120.836 339.122ZM87.29 303.87C87.29 303.87 178.776 220.544 180.548 218.968C182.033 217.39 184.034 216.397 186.188 216.168C188.4 216.168 189.102 218.438 188.424 220.368C188.025 221.513 187.494 222.607 186.842 223.63C182.511 230.592 177.177 236.878 171.012 242.286C170.066 243.122 171.38 244.44 172.348 243.686C174.748 241.814 178.052 239.252 181.71 239.916C182.41 240.032 183.073 240.309 183.647 240.726C184.221 241.142 184.69 241.686 185.018 242.316C185.281 243.03 185.4 243.789 185.369 244.549C185.337 245.309 185.155 246.056 184.834 246.746C184.013 248.58 182.931 250.287 181.622 251.814C181.48 251.969 181.392 252.166 181.371 252.375C181.35 252.584 181.397 252.795 181.506 252.975C181.615 253.155 181.779 253.295 181.974 253.374C182.169 253.453 182.385 253.467 182.588 253.414C185.926 252.326 191.134 250.338 193.132 253.396C193.436 253.881 193.634 254.426 193.712 254.994C193.79 255.562 193.747 256.14 193.586 256.69C193.098 258.382 192.437 260.02 191.614 261.578C187.19 270.252 180.86 276.496 173.702 283.948C163.812 294.244 153.102 305.204 121.882 334.984C119.348 332.722 90.042 306.35 87.29 303.87ZM262.628 164.132C262.212 163.76 263.388 163.88 247.884 163.88C247.948 159.424 247.726 154.969 247.22 150.542C246.808 147.612 245.17 140.68 238.868 139.582C233.71 138.684 220.796 138.892 215.514 138.982C220.08 124.338 227.758 114.074 244.314 109.604C250.367 108.129 256.66 107.924 262.796 109.001C268.932 110.079 274.778 112.416 279.966 115.866C286.48 120.098 290.584 126.154 293.272 135.504C299.42 156.876 299.444 179.16 298.922 200.168H262.964V164.84C262.959 164.705 262.926 164.573 262.868 164.451C262.811 164.33 262.729 164.221 262.628 164.132V164.132ZM247.934 165.818H258.55L248.094 172.204C248.094 171.816 248.068 170.938 247.934 165.818ZM229.682 219.958C234.818 223.958 251.152 236.948 259.42 244.158H187.362C187.346 239.446 182.668 236.972 177.976 238.23C182.035 233.966 185.638 229.292 188.728 224.282C190.468 221.444 191.012 219.16 190.39 217.3C190.017 216.204 189.241 215.293 188.218 214.752C187.196 214.21 186.005 214.08 184.89 214.388C182.545 215.027 180.414 216.283 178.718 218.024L150.012 244.148H135.916C141.466 239.6 163.858 220.762 164.888 219.886C165.85 219.066 164.488 217.686 163.546 218.486C160.85 220.782 138.052 239.886 134.176 243.072V166.448C203.694 202.824 201.716 201.82 202.15 201.986C202.288 202.069 202.447 202.111 202.609 202.109C202.77 202.107 202.928 202.06 203.064 201.974C207.434 199.192 259.412 167.574 261.026 166.588V242.976C253.226 236.114 238.558 224.448 231.006 218.548C230.024 217.778 228.692 219.186 229.682 219.958ZM245.738 155.758C245.788 159.182 246.178 173.158 246.184 173.37C244.968 174.112 205.008 198.454 202.524 200.028L151.666 173.414C151.242 156.164 151.826 149.986 148.994 144.542C148.36 143.326 147.476 142.258 146.4 141.408C243.08 141.322 237.184 140.954 239.684 141.778C244.988 143.498 245.684 152.122 245.738 155.758V155.758ZM361.71 55.9915C365.541 60.5936 367.801 66.3 368.16 72.2775C367.839 78.7657 365.524 84.997 361.532 90.1215C359.935 78.7965 359.995 67.2993 361.71 55.9915V55.9915ZM369.858 68.4435C368.941 62.7439 366.205 57.4939 362.058 53.4775C363.31 44.6203 365.731 35.9682 369.258 27.7475C379.756 55.2417 379.213 85.7308 367.742 112.834C365.21 106.328 363.274 99.6068 361.958 92.7515C366.74 86.9515 371.308 77.5515 369.858 68.4435V68.4435ZM358.388 73.7095C358.288 87.1286 360.772 100.442 365.704 112.922L304.764 73.8075C304.545 73.6797 304.284 73.6433 304.038 73.7062C303.792 73.769 303.581 73.9261 303.45 74.1435C303.25 74.3435 303.302 73.9775 303.302 103.88C302.922 104.08 297.044 108.32 296.842 108.468C296.842 103.882 296.842 73.1975 296.842 69.3555C309.502 61.9895 356.022 32.8775 367.352 27.2995C361.431 42.0561 358.388 57.8094 358.388 73.7095V73.7095ZM309.868 140.968C308.637 141.277 307.343 141.228 306.138 140.828C305.532 140.614 305.022 140.193 304.696 139.639C304.371 139.086 304.252 138.435 304.36 137.802C304.863 136.049 305.98 134.535 307.506 133.538C310.794 130.874 309.95 131.592 318.436 126.606C319.093 126.068 319.887 125.723 320.729 125.611C321.57 125.498 322.427 125.622 323.202 125.968C328.964 130.76 317.2 139.21 309.868 140.968ZM317.304 125.024C316.378 125.566 311.238 128.514 309.63 129.502C307.879 130.585 305.959 131.368 303.95 131.818C302.292 132.194 300.416 132.628 299.168 131.4C298.252 130.323 297.773 128.942 297.825 127.53C297.877 126.118 298.456 124.776 299.448 123.77C303.474 119.526 307.2 118.82 311.516 116.508C312.644 115.895 313.959 115.724 315.206 116.027C316.453 116.33 317.543 117.085 318.264 118.146C318.985 119.207 319.286 120.499 319.109 121.77C318.932 123.041 318.288 124.2 317.304 125.024ZM310.57 114.824C308.204 116.086 305.698 117.074 303.286 118.332C301.58 119.339 299.677 119.968 297.706 120.176C296.965 120.261 296.215 120.169 295.517 119.906C294.819 119.643 294.194 119.217 293.694 118.664C293.258 117.953 293.038 117.131 293.061 116.298C293.084 115.464 293.348 114.655 293.822 113.97C294.872 112.446 296.222 111.153 297.79 110.17C303.938 105.706 303.812 105.67 305.716 104.952C307.053 104.505 308.503 104.532 309.821 105.029C311.14 105.527 312.247 106.463 312.956 107.682C313.563 108.948 313.653 110.401 313.208 111.733C312.762 113.066 311.817 114.172 310.57 114.82V114.824ZM294.904 109.954C288.058 115.378 291.304 122.884 298.384 122.07C296.977 123.359 296.099 125.124 295.918 127.024C295.737 128.923 296.268 130.822 297.406 132.354C299.134 134.476 301.78 134.336 304.49 133.69C300.08 138.462 303.254 143.37 308.28 143.09C309.765 143.012 311.228 142.702 312.616 142.17C315.384 141.134 318.002 139.737 320.404 138.016C322.254 140.219 323.942 142.553 325.456 145C329.075 150.029 331.952 155.552 334 161.4C334.902 164.197 335.454 167.096 335.642 170.03C336.842 184.56 315.694 186.376 301.072 185.998C301.339 170.948 299.886 155.917 296.742 141.198C295.2 134.398 292.974 126.652 288.142 120.624C287.942 115.128 287.676 104.868 288.182 97.2515C288.194 95.1135 288.498 92.9871 289.086 90.9315C289.94 88.5655 292.052 88.6655 293.286 90.5815C293.758 92.3747 294.067 94.2068 294.21 96.0555C294.883 100.654 295.116 105.307 294.904 109.95V109.954ZM200.842 139.376C181.742 139.412 145.242 139.456 142.718 139.478C134.58 139.546 133.53 143.016 127.416 145.338C125.72 145.944 123.916 146.193 122.119 146.069C120.322 145.944 118.57 145.449 116.974 144.614C114.465 143.259 112.257 141.408 110.486 139.173C108.714 136.938 107.416 134.366 106.67 131.614C103.548 121.386 104.72 110.286 100.814 100.192C99.3009 95.5024 96.0749 91.5564 91.78 89.1415C102.052 89.1415 177.454 89.0535 180.356 89.0995C188.556 89.2275 193.676 94.2295 196.94 105.32C198.421 110.46 199.036 115.811 198.76 121.154C198.682 127.09 198.588 134.442 200.842 139.376ZM56.852 257.49C57.9711 254.54 59.624 251.821 61.728 249.47C65.142 245.752 71.28 243.938 75.756 246.61C76.9315 247.433 77.898 248.52 78.5783 249.784C79.2587 251.048 79.6339 252.453 79.674 253.888C79.986 256.404 79.962 257.82 80.154 275.936C72.6761 276.919 65.4087 279.116 58.638 282.44C52.9605 285.085 47.9277 288.935 43.89 293.724C52.042 271.164 56.254 259.014 56.852 257.49Z" fill="#000001"/>
<path d="M383.546 54.7215C383.436 53.4735 381.5 53.5215 381.61 54.7655C382.832 68.6215 384.21 84.3275 378.116 97.9855C377.606 99.1235 379.296 100.066 379.812 98.9175C386.2 84.7215 384.724 68.0915 383.546 54.7215Z" fill="#000001"/>
<path d="M388.232 48.5216C388.201 48.39 388.143 48.2663 388.062 48.1588C387.98 48.0512 387.877 47.9622 387.758 47.8976C387.594 47.8104 387.408 47.7723 387.223 47.7878C387.037 47.8033 386.86 47.8716 386.713 47.9848C386.565 48.098 386.454 48.2511 386.391 48.4261C386.328 48.601 386.316 48.7904 386.358 48.9716C388.834 67.2416 390.512 86.4796 381.684 103.21C381.1 104.314 382.776 105.284 383.368 104.17C392.482 86.9596 390.768 67.2456 388.232 48.5216Z" fill="#000001"/>
<path d="M291.088 64.6516C291.904 65.5996 293.304 64.2636 292.488 63.3096L288.052 58.1536C287.226 57.1916 285.852 58.5536 286.652 59.4956L291.088 64.6516Z" fill="#000001"/>
<path d="M66.22 268.38C67.8489 269.266 69.7373 269.552 71.5557 269.188C73.3741 268.824 75.007 267.833 76.1693 266.388C77.3316 264.943 77.9496 263.136 77.9154 261.282C77.8811 259.428 77.1969 257.645 75.982 256.244C75.2518 255.246 74.3019 254.429 73.2056 253.857C72.1094 253.285 70.8962 252.973 69.66 252.944C68.4237 252.916 67.1976 253.172 66.0763 253.694C64.9551 254.215 63.9688 254.988 63.1937 255.951C62.4187 256.915 61.8757 258.043 61.6067 259.25C61.3377 260.457 61.35 261.71 61.6425 262.911C61.935 264.113 62.5 265.231 63.2938 266.179C64.0875 267.127 65.0887 267.88 66.22 268.38V268.38ZM63.354 260.38C63.5817 259.172 64.155 258.057 65.0042 257.17C65.8534 256.282 66.9421 255.66 68.138 255.38C69.3123 255.173 70.5199 255.267 71.6477 255.654C72.7754 256.042 73.7865 256.709 74.586 257.594C75.4003 258.619 75.8668 259.877 75.9179 261.186C75.969 262.495 75.6019 263.786 74.87 264.872C74.0811 265.953 72.9564 266.742 71.6716 267.116C70.3868 267.491 69.0142 267.429 67.768 266.942C66.4319 266.455 65.2847 265.557 64.4915 264.377C63.6983 263.198 63.3 261.796 63.354 260.376V260.38Z" fill="#000001"/>
<path d="M227.084 156.092H171.168C170.919 156.103 170.683 156.21 170.511 156.39C170.338 156.571 170.242 156.811 170.242 157.061C170.242 157.31 170.338 157.55 170.511 157.731C170.683 157.911 170.919 158.018 171.168 158.03H227.094C227.221 158.026 227.346 157.997 227.462 157.944C227.578 157.891 227.682 157.815 227.768 157.722C227.895 157.585 227.98 157.415 228.013 157.231C228.045 157.047 228.024 156.858 227.952 156.686C227.88 156.514 227.759 156.366 227.606 156.261C227.452 156.155 227.271 156.097 227.084 156.092V156.092Z" fill="#000001"/>
<path d="M227.084 173.468H171.168C170.919 173.479 170.683 173.586 170.511 173.766C170.338 173.947 170.242 174.187 170.242 174.437C170.242 174.686 170.338 174.926 170.511 175.107C170.683 175.287 170.919 175.394 171.168 175.406H227.094C227.343 175.394 227.579 175.287 227.751 175.107C227.924 174.926 228.02 174.686 228.02 174.437C228.02 174.187 227.924 173.947 227.751 173.766C227.579 173.586 227.343 173.479 227.094 173.468H227.084Z" fill="#000001"/>
<path d="M179.962 123.745H124.214C123.965 123.757 123.729 123.864 123.557 124.044C123.384 124.225 123.288 124.465 123.288 124.714C123.288 124.964 123.384 125.204 123.557 125.385C123.729 125.565 123.965 125.672 124.214 125.683H179.97C180.219 125.672 180.455 125.565 180.627 125.385C180.8 125.204 180.896 124.964 180.896 124.714C180.896 124.465 180.8 124.225 180.627 124.044C180.455 123.864 180.219 123.757 179.97 123.745H179.962Z" fill="#000001"/>
<path d="M179.962 108.172H124.222C124.091 108.166 123.96 108.186 123.838 108.232C123.715 108.278 123.603 108.349 123.508 108.439C123.413 108.53 123.338 108.639 123.286 108.759C123.235 108.88 123.208 109.009 123.208 109.141C123.208 109.272 123.235 109.401 123.286 109.522C123.338 109.642 123.413 109.751 123.508 109.842C123.603 109.932 123.715 110.003 123.838 110.049C123.96 110.095 124.091 110.115 124.222 110.11H179.97C180.219 110.098 180.455 109.991 180.627 109.811C180.8 109.63 180.896 109.39 180.896 109.141C180.896 108.891 180.8 108.651 180.627 108.47C180.455 108.29 180.219 108.183 179.97 108.172H179.962Z" fill="#000001"/>
<path d="M328.816 176.592C329.803 174.712 330.235 172.591 330.062 170.476C329.96 169.238 328.014 169.258 328.126 170.52C328.286 172.285 327.939 174.06 327.126 175.636C326.554 176.748 328.234 177.706 328.816 176.592Z" fill="#000001"/>
<path d="M103.228 182C103.417 181.993 103.601 181.933 103.758 181.827C103.915 181.72 104.038 181.571 104.113 181.397C104.188 181.223 104.213 181.031 104.183 180.844C104.153 180.657 104.071 180.482 103.946 180.34L91.366 167.162C90.498 166.252 89.122 167.618 89.988 168.526C103.728 182.922 102.69 182 103.228 182Z" fill="#000001"/>
<path d="M83.742 206.214C83.7519 206.459 83.8536 206.691 84.0271 206.864C84.2005 207.038 84.4329 207.14 84.678 207.15H103.864C104.113 207.138 104.349 207.031 104.521 206.851C104.694 206.67 104.79 206.43 104.79 206.181C104.79 205.931 104.694 205.691 104.521 205.51C104.349 205.33 104.113 205.223 103.864 205.212H84.678C84.4212 205.221 84.1786 205.332 84.0032 205.519C83.8278 205.707 83.7339 205.957 83.742 206.214Z" fill="#000001"/>
<path d="M91.782 241.444C91.6156 241.628 91.5266 241.87 91.5333 242.119C91.54 242.367 91.642 242.604 91.8181 242.779C91.9942 242.955 92.231 243.056 92.4796 243.062C92.7283 243.068 92.9697 242.978 93.154 242.812L105.754 230.212C105.92 230.026 106.008 229.784 106.001 229.536C105.993 229.287 105.891 229.051 105.714 228.876C105.538 228.701 105.3 228.6 105.052 228.595C104.803 228.59 104.562 228.68 104.378 228.848L91.782 241.444Z" fill="#000001"/>
<path d="M248 96.2235C249.5 97.2321 251.263 97.7788 253.071 97.7958C254.878 97.8129 256.651 97.2996 258.17 96.3195C258.385 96.1859 258.541 95.975 258.605 95.7301C258.669 95.4852 258.636 95.2252 258.514 95.0035C257.65 93.4395 256.714 91.8035 255.49 89.7315C257.452 89.5475 261.262 89.2295 261.662 89.0435C261.842 88.9776 261.999 88.8608 262.113 88.7074C262.228 88.554 262.296 88.3706 262.308 88.1795C262.434 86.3188 261.855 84.479 260.685 83.0262C259.516 81.5734 257.843 80.6142 255.998 80.3395C254.586 79.9194 253.096 79.8343 251.646 80.0909C250.196 80.3475 248.826 80.9386 247.644 81.8175C246.536 82.6767 245.645 83.7844 245.043 85.0512C244.442 86.318 244.146 87.7085 244.181 89.1105C244.216 90.5124 244.579 91.8866 245.243 93.1222C245.906 94.3577 246.851 95.4201 248 96.2235V96.2235ZM253.874 87.9535C253.706 87.9588 253.542 88.0073 253.399 88.0943C253.255 88.1813 253.136 88.3039 253.053 88.4502C252.971 88.5965 252.927 88.7616 252.927 88.9297C252.927 89.0977 252.97 89.2629 253.052 89.4095C253.482 90.1615 255.696 93.9395 256.344 95.0955C255.262 95.6589 254.051 95.9298 252.832 95.8812C251.613 95.8326 250.428 95.4663 249.394 94.8185C248.361 94.1707 247.514 93.264 246.939 92.1882C246.363 91.1124 246.079 89.905 246.114 88.6855C246.191 86.8829 246.95 85.1769 248.236 83.9123C249.523 82.6477 251.242 81.919 253.046 81.8735C254.943 81.8548 256.802 82.3984 258.39 83.4355C258.982 83.8953 259.466 84.4791 259.809 85.1459C260.151 85.8127 260.343 86.5464 260.372 87.2955C257.928 87.5555 255.61 87.7795 253.864 87.9535H253.874Z" fill="#000001"/>
<path d="M248.61 77.8035C256.103 77.9939 263.576 76.9292 270.718 74.6535C271.963 74.3615 273.113 73.7603 274.064 72.9055C274.514 72.5105 274.835 71.9895 274.985 71.4099C275.136 70.8303 275.108 70.2189 274.907 69.655C274.706 69.0911 274.34 68.6007 273.856 68.2474C273.373 67.8941 272.794 67.6941 272.196 67.6735C269.672 67.3657 267.124 67.2893 264.586 67.4455C265.873 66.2872 266.905 64.874 267.616 63.2955C267.77 62.8006 267.808 62.277 267.727 61.7651C267.646 61.2532 267.448 60.7669 267.148 60.3439C266.849 59.9209 266.456 59.5725 266 59.3258C265.544 59.0792 265.038 58.9408 264.52 58.9215C263.351 59.0122 262.261 59.5442 261.47 60.4095C260.526 61.2095 259.622 62.1275 258.652 63.0775C254.42 66.985 250.754 71.4643 247.76 76.3855C247.692 76.5334 247.66 76.6959 247.669 76.8586C247.678 77.0214 247.726 77.1795 247.81 77.3193C247.894 77.4591 248.011 77.5763 248.15 77.6607C248.289 77.7451 248.447 77.7941 248.61 77.8035ZM261.172 67.9575C261.039 68.0961 260.95 68.2709 260.916 68.4598C260.883 68.6488 260.905 68.8436 260.982 69.0197C261.058 69.1958 261.185 69.3454 261.346 69.4496C261.508 69.5538 261.696 69.6081 261.888 69.6055C265.202 69.2409 268.546 69.2302 271.862 69.5735C273.802 69.8075 273.186 71.3035 272.2 71.9495C271.232 72.4836 270.194 72.8781 269.116 73.1215C263.021 74.9682 256.685 75.8971 250.316 75.8775C252.852 72.0382 255.812 68.4966 259.14 65.3195C262.916 61.5375 263.94 60.5195 264.958 60.9575C265.225 61.0694 265.453 61.2592 265.611 61.5021C265.769 61.745 265.85 62.0298 265.844 62.3195C265.582 63.7975 263.172 66.2695 261.172 67.9575Z" fill="#000001"/>
<path d="M306.526 220.83C305.018 220.4 303.427 220.346 301.893 220.673C300.359 221 298.928 221.698 297.726 222.706C296.431 223.812 295.473 225.261 294.962 226.886C294.451 228.511 294.407 230.247 294.836 231.896C296.636 238.03 305.09 241.64 309.774 236.946C311.991 234.683 313.233 231.643 313.234 228.476C313.032 226.668 312.28 224.966 311.081 223.599C309.881 222.232 308.292 221.266 306.526 220.83V220.83ZM306.642 236.73C301.42 238.868 293.842 232.43 297.344 226.304C298.381 227.446 299.736 228.254 301.234 228.624C302.476 229.01 303.76 229.249 305.058 229.338C304.535 229.872 304.153 230.528 303.945 231.246C303.737 231.965 303.711 232.724 303.868 233.455C304.024 234.186 304.36 234.867 304.844 235.437C305.328 236.007 305.946 236.448 306.642 236.722V236.73ZM305.8 232.682C305.913 231.868 306.243 231.101 306.755 230.459C307.267 229.817 307.942 229.325 308.71 229.034C308.912 228.969 309.087 228.84 309.208 228.666C309.33 228.493 309.392 228.285 309.384 228.073C309.376 227.861 309.3 227.658 309.166 227.494C309.032 227.329 308.848 227.214 308.642 227.164C307.708 227.09 307.342 227.442 305.74 227.402C303.488 227.356 299.266 226.382 298.592 224.602C303.47 219.722 311.744 223.756 311.298 229.388C311.104 231.557 310.206 233.604 308.742 235.218C307.296 235.076 305.8 234.336 305.8 232.682Z" fill="#000001"/>
<path d="M363.954 272.2C359.494 266.038 352.814 261.999 342.93 259.507C332.846 256.941 322.418 256 312.038 256.72C302.135 257.381 292.325 259.049 282.76 261.696C278.808 262.563 275.055 264.168 271.698 266.428C266.024 264.419 259.982 263.663 253.988 264.212C250.309 264.62 246.732 265.673 243.418 267.322C240.663 268.863 237.999 270.564 235.442 272.416C232.863 274.04 230.765 276.324 229.366 279.032C228.855 280.288 228.789 281.682 229.18 282.981C229.571 284.281 230.394 285.407 231.514 286.174C234.98 288.604 240.258 287.086 244.074 285.374C245.394 284.786 246.652 284.048 247.906 283.43C248.101 283.329 248.315 283.273 248.534 283.265C248.753 283.257 248.971 283.297 249.172 283.382C249.374 283.467 249.555 283.595 249.701 283.758C249.848 283.921 249.957 284.114 250.021 284.323C250.085 284.532 250.102 284.753 250.071 284.97C250.041 285.187 249.963 285.394 249.843 285.578C249.723 285.761 249.565 285.916 249.379 286.031C249.193 286.147 248.983 286.22 248.766 286.246C245.143 286.949 241.825 288.751 239.262 291.406C238.393 292.472 237.938 293.816 237.981 295.191C238.023 296.566 238.561 297.879 239.494 298.89C240.83 300.292 242.539 301.282 244.42 301.744C241.508 302.768 240.066 304.431 240.02 306.813C239.952 310.263 242.67 313.541 247.708 313.891C242.004 318.153 243.412 324.512 248.238 326.13C252.378 327.828 257.676 327.13 261.41 326.404C261.436 330.5 261.61 340.38 261.628 341.536C261.631 341.791 261.734 342.034 261.915 342.214C262.095 342.395 262.339 342.497 262.594 342.499C263.452 342.511 281.81 342.716 283.82 342.736C286.437 351.142 291.261 358.694 297.79 364.602C306.27 371.766 320.578 375.179 331.072 374.115C344.604 372.745 357.924 361.915 364.216 347.159C367.436 339.403 369.316 331.157 369.774 322.771C371.99 307.894 372.084 297.086 370.086 286.634C369.114 281.434 367.022 276.509 363.954 272.2V272.2ZM253.286 313.492C254.532 313.27 254.04 311.387 252.816 311.611C247.748 312.533 244.37 311.835 242.776 309.537C242.18 308.697 241.897 307.675 241.976 306.648C242.332 304.772 243.89 303.647 246.876 303.085C248.364 302.811 249.876 302.585 251.356 302.369C252.474 302.205 252.234 300.402 251.114 300.462C248.467 300.662 245.809 300.263 243.338 299.294C241.11 298.366 239.208 296.129 240.072 293.813C241.514 289.947 248.762 288.356 250.072 287.86C250.748 287.532 251.298 286.992 251.638 286.321C251.977 285.651 252.087 284.887 251.951 284.148C251.815 283.409 251.44 282.736 250.884 282.23C250.327 281.725 249.621 281.416 248.872 281.352C247.699 281.373 246.561 281.758 245.616 282.454C242.914 284.081 239.895 285.114 236.762 285.481C235.583 285.71 234.361 285.521 233.306 284.947C232.251 284.372 231.43 283.448 230.982 282.334C230.418 280.47 231.382 278.442 233.96 276.134C236.32 274.089 238.859 272.26 241.546 270.67C247.716 266.751 255.08 265.158 262.318 266.175C265.694 266.705 269.016 267.536 272.244 268.66C284.721 272.802 295.932 280.065 304.812 289.76C313.442 299.286 316.452 306.774 321.498 318.406C321.898 319.326 323.33 318.885 323.316 317.939C323.316 317.939 323.206 311.049 323.178 309.033C323.139 306.077 323.684 303.142 324.784 300.398C325.884 297.654 327.516 295.154 329.586 293.043C331.656 290.932 334.123 289.251 336.846 288.098C339.568 286.945 342.492 286.342 345.448 286.323C348.405 286.305 351.335 286.871 354.072 287.991C356.809 289.11 359.297 290.759 361.393 292.844C363.489 294.929 365.152 297.408 366.286 300.139C367.42 302.869 368.002 305.797 368 308.753C368.276 318.263 368.078 330.663 364.076 342.241C358.856 357.343 347.146 368.885 334.24 371.641C328.634 372.791 322.842 372.666 317.29 371.278C312.007 370.517 306.956 368.607 302.493 365.68C298.03 362.754 294.263 358.883 291.46 354.342C284.352 343.166 282.248 329.765 280.386 317.91C280.328 317.706 280.205 317.528 280.036 317.4C279.867 317.273 279.661 317.204 279.45 317.204C278.45 317.204 271.406 322.358 262.32 324.296C257.336 325.36 250.688 326.064 247.308 323.38C246.729 322.914 246.306 322.283 246.094 321.571C245.883 320.859 245.893 320.1 246.124 319.394C246.651 317.841 247.601 316.467 248.866 315.424C250.131 314.382 251.662 313.712 253.286 313.492V313.492ZM336.04 286.264C331.991 287.942 328.48 290.698 325.888 294.233C323.296 297.768 321.723 301.945 321.34 306.312C321.2 308.571 321.183 310.836 321.288 313.098C320.658 311.642 320.03 310.184 319.388 308.734C315.093 299.064 308.849 290.385 301.045 283.24C293.241 276.095 284.046 270.639 274.036 267.212C276.022 265.994 278.162 265.046 280.398 264.392C289.611 261.667 299.063 259.831 308.626 258.908C319.463 257.812 330.407 258.526 341.01 261.02C350.634 263.29 357.13 266.82 361.45 272.126C364.498 275.93 366.648 280.374 367.738 285.126C369.21 291.507 369.815 298.057 369.538 304.6C368.941 300.968 367.525 297.52 365.397 294.517C363.269 291.515 360.485 289.036 357.257 287.269C354.029 285.502 350.441 284.493 346.765 284.319C343.088 284.144 339.421 284.81 336.04 286.264V286.264ZM278.698 319.688C279.694 326.824 281.198 333.88 283.2 340.801C275.012 340.709 263.632 340.554 263.548 340.554C263.422 334.718 263.348 330.212 263.336 326.006C268.711 324.579 273.875 322.455 278.698 319.688Z" fill="#000001"/>
<path d="M223.334 302.142C222.648 303.202 224.316 304.186 224.994 303.142C226.804 300.354 229.126 295.474 231.54 294.232C231.652 294.17 231.781 294.144 231.909 294.159C232.036 294.173 232.156 294.226 232.252 294.312C234.396 295.956 230.566 303.312 229.242 305.664C229.113 305.886 229.078 306.15 229.145 306.398C229.211 306.646 229.373 306.858 229.595 306.987C229.817 307.115 230.082 307.15 230.33 307.084C230.578 307.018 230.789 306.856 230.918 306.634C232.278 304.286 233.398 301.807 234.258 299.234C235.13 296.512 235.01 294.554 233.894 293.234C230.28 289.01 225.674 298.538 223.334 302.142Z" fill="#000001"/>
<path d="M225.64 305.337C222.683 304.004 219.416 303.508 216.196 303.903C207.426 304.953 199.556 309.059 191.426 316.827C189.126 319.027 187.054 321.407 184.842 323.771C184.741 323.878 184.665 324.005 184.62 324.144C184.575 324.283 184.561 324.431 184.581 324.576C184.6 324.721 184.651 324.86 184.731 324.983C184.811 325.106 184.917 325.209 185.042 325.285C194.586 331.085 203.94 337.267 213.312 343.175L212.512 352.919C212.406 354.175 214.346 354.201 214.446 352.959L215.158 344.337C216.534 345.187 221.538 348.267 223.958 349.701C224.067 349.777 224.191 349.828 224.321 349.851C224.452 349.873 224.586 349.867 224.713 349.831C224.841 349.796 224.959 349.734 225.06 349.647C225.161 349.561 225.241 349.454 225.296 349.333C228.184 342.988 230.526 336.409 232.296 329.665C234.296 322.015 233.984 315.931 231.354 311.065C230.059 308.632 228.07 306.639 225.64 305.337V305.337ZM230.894 327.259C229.197 334.183 226.891 340.943 224.002 347.459C214.028 341.555 193.002 327.883 187.032 324.231C190.331 320.481 193.944 317.018 197.832 313.881C206.612 306.777 222.184 301.329 228.756 310.539C231.738 314.721 232.458 320.351 230.894 327.259V327.259Z" fill="#000001"/>
<path d="M211.448 356.962C210.366 357.182 209.376 357.727 208.613 358.526C207.849 359.324 207.348 360.337 207.177 361.428C207.005 362.519 207.172 363.637 207.653 364.631C208.135 365.625 208.909 366.448 209.872 366.99C210.969 367.587 212.259 367.725 213.458 367.375C214.657 367.024 215.669 366.214 216.272 365.12C216.899 364.27 217.268 363.257 217.334 362.203C217.4 361.149 217.161 360.099 216.644 359.178C216.076 358.355 215.287 357.71 214.367 357.317C213.447 356.925 212.435 356.802 211.448 356.962V356.962ZM214.684 359.84C215.143 360.411 215.404 361.117 215.426 361.85C215.448 362.583 215.23 363.303 214.806 363.902C212.806 367.278 208.882 365.276 209.066 362.01C209.075 361.362 209.278 360.732 209.648 360.201C210.018 359.669 210.538 359.26 211.142 359.027C211.746 358.794 212.406 358.746 213.037 358.891C213.669 359.036 214.242 359.366 214.684 359.84V359.84Z" fill="#000001"/>
<path d="M241.2 356.722C240.8 355.522 238.95 356.068 239.338 357.258L245.21 375.258C245.598 376.446 247.464 375.922 247.072 374.72L241.2 356.722Z" fill="#000001"/>
<path d="M244.9 355.165C244.767 354.95 244.556 354.794 244.31 354.732C244.064 354.671 243.804 354.707 243.585 354.835C243.366 354.962 243.206 355.17 243.138 355.415C243.071 355.659 243.102 355.92 243.224 356.141C245.86 360.889 252.156 371.829 252.55 372.483C252.634 372.624 252.754 372.74 252.897 372.821C253.04 372.901 253.202 372.943 253.366 372.941C253.534 372.942 253.7 372.899 253.847 372.817C253.994 372.734 254.117 372.615 254.203 372.47C254.29 372.326 254.337 372.161 254.341 371.992C254.345 371.824 254.304 371.658 254.224 371.509C252.224 367.905 244.934 355.223 244.9 355.165Z" fill="#000001"/>
<path d="M286.438 314.196C289.564 310.803 292.281 307.054 294.532 303.028C294.647 302.806 294.672 302.55 294.603 302.31C294.534 302.071 294.375 301.867 294.16 301.742C293.945 301.616 293.689 301.579 293.447 301.636C293.205 301.694 292.994 301.843 292.858 302.052C286.658 312.452 284.422 312.47 284.838 313.78C284.879 313.944 284.963 314.094 285.082 314.215C285.201 314.335 285.35 314.421 285.514 314.464C285.678 314.507 285.85 314.504 286.013 314.457C286.176 314.41 286.322 314.319 286.438 314.196V314.196Z" fill="#000001"/>
<path d="M260.952 312.775C263.396 312.584 265.802 312.062 268.106 311.223C269.268 310.799 268.75 308.935 267.552 309.367C265.415 310.156 263.182 310.651 260.912 310.839C259.65 310.941 259.714 312.901 260.952 312.775Z" fill="#000001"/>
<path d="M258.868 301.682C259.068 301.682 258.742 301.732 264.776 300.481C266.018 300.223 265.51 298.35 264.292 298.606L258.6 299.792C258.382 299.861 258.196 300.005 258.074 300.199C257.952 300.393 257.903 300.623 257.935 300.85C257.967 301.076 258.079 301.284 258.249 301.436C258.42 301.589 258.639 301.675 258.868 301.682V301.682Z" fill="#000001"/>
<path d="M326.228 367.309C326.428 367.309 326.718 367.245 334.884 366.121C335.132 366.055 335.344 365.893 335.473 365.671C335.602 365.449 335.637 365.185 335.571 364.936C335.505 364.688 335.343 364.476 335.121 364.348C334.899 364.219 334.634 364.183 334.386 364.249L325.972 365.405C325.747 365.469 325.552 365.611 325.423 365.806C325.295 366.002 325.241 366.237 325.272 366.469C325.303 366.701 325.417 366.913 325.593 367.068C325.769 367.222 325.994 367.308 326.228 367.309V367.309Z" fill="#000001"/>
<path d="M137.268 306.395C134.764 308.455 132.292 310.618 129.924 312.824C129.002 313.684 130.366 315.06 131.28 314.206C138.48 307.5 139.08 307.902 138.926 307.006C138.892 306.831 138.814 306.668 138.699 306.533C138.584 306.398 138.436 306.294 138.269 306.233C138.102 306.171 137.923 306.154 137.747 306.183C137.572 306.211 137.407 306.284 137.268 306.395Z" fill="#000001"/>
<path d="M82.652 304.167C70.1598 314.407 56.9233 323.704 43.052 331.979C42.9433 332.045 42.8491 332.132 42.7752 332.235C42.7013 332.338 42.6491 332.456 42.622 332.579C42.5788 332.762 42.5895 332.953 42.6527 333.13C42.7159 333.306 42.829 333.461 42.9782 333.574C43.1274 333.688 43.3063 333.756 43.4934 333.77C43.6804 333.784 43.8675 333.744 44.032 333.653C58.0789 325.373 71.4414 315.983 83.992 305.573C84.966 304.769 83.612 303.379 82.652 304.167Z" fill="#000001"/>
<path d="M164.916 250.55L169.756 245.804C169.928 245.62 170.022 245.377 170.019 245.125C170.015 244.874 169.914 244.634 169.736 244.455C169.559 244.277 169.319 244.175 169.067 244.17C168.816 244.165 168.572 244.258 168.388 244.43L163.55 249.176C163.383 249.36 163.293 249.601 163.298 249.85C163.304 250.098 163.405 250.335 163.58 250.512C163.756 250.688 163.992 250.79 164.241 250.797C164.489 250.804 164.731 250.716 164.916 250.55V250.55Z" fill="#000001"/>
<path d="M174.636 259.138L179.28 255.362C180.262 254.562 178.912 253.174 177.948 253.962L173.304 257.738C172.324 258.522 173.67 259.922 174.636 259.138Z" fill="#000001"/>
<path d="M24.472 311.211C24.3602 311.144 24.2359 311.101 24.1068 311.083C23.9776 311.066 23.8462 311.075 23.7206 311.11C23.5951 311.145 23.478 311.205 23.3764 311.287C23.2749 311.369 23.191 311.47 23.13 311.585L16.33 327.645C16.2382 327.81 16.1962 327.999 16.2093 328.187C16.2224 328.375 16.29 328.556 16.4037 328.706C16.5175 328.857 16.6727 328.971 16.8503 329.036C17.0278 329.1 17.2202 329.111 17.404 329.067C17.5343 329.034 17.6564 328.974 17.7627 328.891C17.869 328.809 17.9572 328.705 18.022 328.587L24.822 312.527C24.9441 312.305 24.9759 312.044 24.9107 311.799C24.8455 311.554 24.6884 311.344 24.472 311.211V311.211Z" fill="#000001"/>
<path d="M18.484 309.843L9.85201 328.3C9.31801 329.436 11.016 330.372 11.544 329.238L20.178 310.782C20.704 309.656 19.018 308.697 18.484 309.843Z" fill="#000001"/>
</svg>
