<svg width="400" height="400" viewBox="0 0 400 400" fill="none" xmlns="http://www.w3.org/2000/svg">
<path d="M284 181.656C280.642 174.918 270.182 176.494 267.338 184.456C267.698 183.924 269.068 184.578 283.444 181.52C283.551 181.496 283.663 181.504 283.766 181.543C283.869 181.582 283.958 181.651 284.022 181.74C284.018 181.706 284.01 181.68 284 181.656Z" fill="#000001"/>
<path d="M284.06 181.762L284.024 181.732C283.96 181.643 283.871 181.574 283.768 181.535C283.665 181.496 283.553 181.488 283.446 181.512C268.246 184.748 267.292 183.778 267.262 184.682C266.651 187.011 266.926 189.484 268.035 191.622C269.143 193.76 271.006 195.41 273.262 196.252C275.513 196.959 277.95 196.769 280.064 195.722C282.179 194.675 283.807 192.851 284.608 190.632C285.139 189.197 285.364 187.667 285.27 186.139C285.175 184.612 284.763 183.121 284.06 181.762V181.762Z" fill="white"/>
<path d="M253.172 186.834C251.95 187.056 252.468 188.92 253.686 188.698L263.95 186.828C265.172 186.606 264.654 184.742 263.436 184.964L253.172 186.834Z" fill="#000001"/>
<path d="M236.832 228.924C229.458 207.468 215.042 191.03 193.052 186.706C186.117 185.139 178.895 185.398 172.09 187.458C172.16 187.822 172.504 189.624 172.608 190.16C172.84 191.378 170.974 191.896 170.742 190.676C170.652 190.202 170.33 188.522 170.26 188.156C166.481 189.704 163.199 192.257 160.768 195.538C159.848 196.785 159.108 198.154 158.568 199.606C158.99 199.508 171.168 196.842 176.81 195.488C176.949 195.453 177.097 195.472 177.222 195.543C177.346 195.614 177.439 195.73 177.48 195.868C177.914 197.944 178.58 199.964 179.05 202.034C179.084 202.176 179.061 202.325 178.986 202.449C178.911 202.574 178.791 202.665 178.65 202.702C177.952 202.874 173.664 201.438 170.18 202.336C167.684 202.98 164.622 205.286 165.72 208.246C166.434 210.166 168.75 210.784 170.52 211.246C174.237 212.061 177.993 212.681 181.774 213.104C181.864 213.13 181.946 213.178 182.012 213.244C182.079 213.31 182.127 213.392 182.152 213.482C182.226 213.758 182.31 214.03 182.388 214.306C185.623 214.762 188.74 215.833 191.572 217.46C193.589 218.661 195.308 220.302 196.602 222.26C200.061 220.953 203.77 220.44 207.454 220.76C211.82 221.308 215.872 223.314 218.956 226.452C223.107 230.765 226.006 236.127 227.342 241.962C230.442 237.886 233.248 233.562 235.984 229.254C236.033 229.177 236.101 229.114 236.182 229.07C236.262 229.027 236.352 229.004 236.443 229.006C236.535 229.007 236.624 229.031 236.704 229.077C236.783 229.123 236.849 229.188 236.896 229.266C236.89 229.15 236.868 229.035 236.832 228.924V228.924Z" fill="white"/>
<path d="M128.77 303.044C124.048 294.043 122.071 283.854 123.084 273.74C117.868 271.41 112.644 269.102 107.47 266.964L107.446 266.95C107.156 266.843 106.914 266.636 106.763 266.366C106.613 266.096 106.564 265.781 106.626 265.478C106.703 265.243 106.841 265.033 107.026 264.868C106.774 263.744 95.8262 215.694 95.5882 214.64C95.5517 214.501 95.5711 214.353 95.642 214.228C95.713 214.103 95.83 214.01 95.9682 213.97C101.914 212.654 140.968 203.668 141.386 203.57C129.21 191.852 106.958 190.86 94.5442 204.97C94.9082 206.492 95.1982 207.77 95.5622 209.4C95.8322 210.614 93.9622 211.128 93.6982 209.914C93.6622 209.76 93.0282 206.98 92.9962 206.844C89.6506 211.288 87.2228 216.354 85.8542 221.746C79.5406 221.718 73.3426 223.439 67.9482 226.72C45.7162 240.52 31.4882 274.216 38.0542 300.638C38.8047 303.923 40.243 307.012 42.2741 309.701C44.3053 312.39 46.8833 314.618 49.8382 316.238C56.0742 319.702 63.4622 322.238 70.5622 320.172C76.6639 318.167 81.8647 314.077 85.2522 308.62C89.4382 302.22 91.2362 294.802 92.6862 287.39C94.5382 307.544 113.56 331.166 134.972 330.304C140.684 330.151 146.184 328.111 150.614 324.504C141.306 318.876 133.922 312.786 128.77 303.044Z" fill="white"/>
<path d="M76.9121 343.384C67.3919 335.91 55.6348 331.855 43.5312 331.87C31.4276 331.886 19.681 335.971 10.1801 343.47C9.7801 343.778 10.1321 344.414 10.5641 344.398H76.6381C76.7554 344.394 76.8681 344.352 76.9599 344.279C77.0517 344.206 77.1178 344.105 77.1484 343.992C77.179 343.879 77.1726 343.759 77.1301 343.649C77.0875 343.54 77.0112 343.447 76.9121 343.384V343.384Z" fill="#000001"/>
<path d="M310.832 235.736C307.078 218.398 295.066 208.11 283.232 206.336C270.41 204.42 258.302 211.412 249.864 220.488C245.625 225.103 241.924 230.184 238.832 235.634C238.606 234.782 237.16 229.538 236.898 229.25C236.851 229.171 236.785 229.106 236.706 229.06C236.627 229.014 236.537 228.989 236.445 228.988C236.354 228.987 236.263 229.009 236.183 229.053C236.103 229.097 236.035 229.16 235.986 229.238C233.25 233.554 230.444 237.87 227.344 241.946C229.156 248.778 229.448 254.474 230.778 262.672C232.716 274.624 240.142 277.302 245.254 274.596C245.265 274.451 245.312 274.312 245.39 274.189C245.469 274.067 245.576 273.965 245.702 273.894C249.572 271.664 251.43 267.448 252.986 263.446C253.058 263.201 253.222 262.994 253.443 262.868C253.665 262.742 253.927 262.707 254.174 262.77C254.421 262.839 254.631 263.003 254.758 263.226C254.884 263.449 254.918 263.713 254.85 263.96C253.206 268.19 251.2 272.45 247.38 275.076C262.484 286.062 269.13 295.876 278.252 313.86C281.393 310.363 284.089 306.49 286.278 302.33C286.856 301.226 288.526 302.206 287.948 303.306C285.556 307.84 282.588 312.045 279.116 315.816C279.017 315.936 278.886 316.024 278.738 316.071C278.59 316.119 278.432 316.122 278.282 316.082C274.435 320.339 270.094 324.123 265.352 327.354C258.604 331.63 249.812 332.876 241.752 332.768C229.616 332.604 218.24 329.356 209.184 321.064C200.391 312.565 194.438 301.556 192.142 289.544C191.083 283.576 190.533 277.528 190.498 271.466C179.886 275.356 165.87 280.36 155.074 283.59C154.308 283.818 150.284 284.99 149.656 285.116C149.094 285.15 148.536 285.01 148.056 284.716C147.146 284.336 123.428 273.886 123.078 273.73C122.258 281.335 123.182 289.027 125.779 296.221C128.376 303.416 132.578 309.924 138.066 315.252C142.575 319.325 147.529 322.875 152.834 325.836C163.954 332.424 173.234 337.154 184.18 339.9C204.339 344.796 225.346 345.047 245.616 340.636C255.694 338.374 265.11 333.803 273.12 327.282C290.934 313.163 303.577 293.547 309.078 271.492C312.01 259.958 313.374 247.476 310.832 235.736ZM160.432 292.136C160.679 292.073 160.941 292.109 161.163 292.235C161.385 292.361 161.549 292.568 161.622 292.812C161.852 293.398 165.584 302.966 167.222 307.164C167.29 307.412 167.257 307.676 167.13 307.899C167.004 308.122 166.793 308.286 166.546 308.354C166.299 308.413 166.039 308.376 165.818 308.251C165.598 308.125 165.433 307.92 165.358 307.678C165.128 307.092 161.396 297.524 159.758 293.326C159.692 293.08 159.726 292.818 159.852 292.597C159.977 292.376 160.185 292.213 160.43 292.144L160.432 292.136ZM148.904 309.122L151.476 292.812C151.545 292.565 151.708 292.355 151.931 292.228C152.154 292.102 152.419 292.069 152.666 292.136C152.908 292.212 153.113 292.377 153.238 292.598C153.363 292.819 153.4 293.079 153.34 293.326C153.234 293.996 150.77 309.636 150.77 309.636C150.701 309.883 150.538 310.093 150.315 310.22C150.092 310.346 149.827 310.38 149.58 310.312C149.339 310.237 149.134 310.074 149.009 309.854C148.883 309.635 148.845 309.376 148.902 309.13L148.904 309.122ZM134.678 300.886C135.104 300.452 141.878 293.582 144.846 290.58C145.722 289.694 147.088 291.062 146.214 291.948L136.044 302.252C135.166 303.148 133.8 301.78 134.676 300.894L134.678 300.886Z" fill="#0B00C3"/>
<path d="M186.416 254.326C185.907 255.815 185.271 257.258 184.516 258.638C183.872 259.816 182.854 260.746 181.623 261.282C180.392 261.819 179.018 261.93 177.716 261.6C176.603 261.133 175.665 260.325 175.039 259.292C174.412 258.26 174.129 257.056 174.228 255.852C174.372 253.989 174.614 252.135 174.952 250.298C168.218 253.402 165.644 257.414 161.188 257.122C159.942 257.026 158.772 256.482 157.895 255.591C157.019 254.699 156.495 253.52 156.42 252.272C153.562 253.1 108.68 266.118 107.938 266.324C107.799 266.362 107.651 266.343 107.526 266.272C107.401 266.2 107.309 266.083 107.27 265.944C107.188 265.586 107.108 265.226 107.026 264.868C107 264.894 106.976 264.924 106.952 264.952C106.809 265.1 106.705 265.282 106.651 265.481C106.598 265.68 106.595 265.89 106.645 266.09C106.695 266.29 106.794 266.474 106.935 266.625C107.075 266.776 107.252 266.888 107.448 266.952L107.472 266.966C116.344 270.63 143.74 282.92 148.072 284.728C148.552 285.022 149.11 285.162 149.672 285.128C150.286 285.006 154.172 283.876 155.09 283.602C165.722 280.422 180.09 275.306 190.514 271.478C190.302 264.728 189.94 259.922 186.416 254.326Z" fill="#EAEAEA"/>
<path d="M185.666 253.2C184.432 251.187 182.456 249.74 180.164 249.17C178.354 249.025 176.541 249.416 174.95 250.292C174.612 252.129 174.37 253.983 174.226 255.846C174.126 257.05 174.41 258.254 175.037 259.286C175.663 260.319 176.6 261.127 177.714 261.594C179.015 261.924 180.39 261.813 181.621 261.276C182.852 260.74 183.87 259.81 184.514 258.632C185.269 257.252 185.905 255.809 186.414 254.32C186.18 253.95 185.932 253.576 185.666 253.2Z" fill="white"/>
<path d="M230.544 77.6C229.078 72.2975 226.901 67.2175 224.074 62.4981C222.849 60.1455 221.436 57.8962 219.848 55.772C219.58 55.426 219.048 55.6621 218.938 56.0121C216.802 61.7445 215.721 67.8165 215.748 73.934C215.956 80.0791 217.837 86.051 221.188 91.2061C223.282 94.2461 225.917 96.8751 228.962 98.962C229.022 99.0039 229.091 99.0321 229.163 99.0447C229.236 99.0573 229.31 99.0539 229.381 99.0349C229.451 99.0159 229.517 98.9816 229.573 98.9344C229.63 98.8873 229.675 98.8285 229.706 98.7621C232.748 92.0581 232.35 84.544 230.544 77.6Z" fill="#EAEAEA"/>
<path d="M165.346 224.418C162.056 222.31 154.178 217.004 154.178 217.004C153.138 216.314 152.178 217.988 153.202 218.674L163.576 225.562C162.576 227.342 161.464 229.066 160.376 230.788C161.155 230.614 161.958 230.57 162.752 230.656C163.778 229.044 164.79 227.416 165.698 225.742C165.819 225.518 165.85 225.256 165.784 225.01C165.719 224.764 165.562 224.552 165.346 224.418V224.418Z" fill="#000001"/>
<path d="M366.622 257.046C350 271.37 336.29 300.2 331.6 321.8C331.504 274.534 331.2 255.45 327.974 223.432C342.35 223.872 356.32 218.2 364.076 205.51C364.118 205.45 364.146 205.381 364.158 205.309C364.17 205.237 364.167 205.163 364.148 205.092C364.129 205.021 364.095 204.955 364.048 204.899C364.001 204.843 363.942 204.797 363.876 204.766C360.566 203.212 356.975 202.348 353.32 202.225C349.665 202.103 346.024 202.724 342.617 204.053C339.21 205.381 336.109 207.388 333.502 209.951C330.894 212.515 328.836 215.582 327.45 218.966C325.854 205.689 323.453 192.52 320.26 179.534C315.798 164.484 307.734 150.748 296.768 139.516C284.54 126.916 271.392 118.618 254.868 111.232C252.792 110.254 250.668 109.232 248.588 108.27C260.53 101.166 266.988 80.934 258.164 64.47C258.121 64.3992 258.063 64.3389 257.994 64.2937C257.924 64.2485 257.846 64.2195 257.764 64.209C257.682 64.1984 257.598 64.2065 257.52 64.2326C257.441 64.2588 257.369 64.3023 257.31 64.36C247.15 74.172 239.99 85.216 242.364 99.196C242.944 102.552 244.23 105.745 246.138 108.566C239.24 107.596 232.232 107.718 225.372 108.928C219.773 109.925 214.48 112.198 209.901 115.571C205.323 118.944 201.583 123.326 198.972 128.378C198.936 128.451 198.917 128.531 198.914 128.613C198.911 128.694 198.926 128.775 198.956 128.851C198.987 128.926 199.034 128.994 199.092 129.051C199.151 129.107 199.221 129.151 199.298 129.178C213.928 135.232 230.192 132.934 241.75 120.42C244.538 117.469 246.808 114.069 248.466 110.364C264.574 117.878 276.066 122.964 290.114 135.764C302.572 146.816 311.956 160.905 317.352 176.66C319.042 182.022 320.383 187.487 321.366 193.022C330.522 240.236 329.486 283.364 329.714 338.124C329.725 338.373 329.832 338.608 330.012 338.78C330.193 338.952 330.432 339.048 330.681 339.048C330.93 339.048 331.17 338.952 331.35 338.78C331.53 338.608 331.637 338.373 331.648 338.124C331.29 314.56 349.014 274.262 367.996 258.404C368.946 257.616 367.572 256.254 366.622 257.046Z" fill="#EAEAEA"/>
<path d="M279.118 315.822C282.59 312.051 285.559 307.846 287.95 303.312C288.528 302.212 286.858 301.232 286.28 302.336C284.091 306.496 281.395 310.369 278.254 313.866C279.054 315.466 279.14 315.164 278.284 316.088C278.434 316.128 278.592 316.125 278.74 316.077C278.888 316.03 279.019 315.942 279.118 315.822V315.822Z" fill="white"/>
<path d="M254.852 263.966C254.92 263.719 254.886 263.455 254.76 263.232C254.633 263.009 254.423 262.845 254.176 262.776C253.929 262.713 253.667 262.748 253.446 262.874C253.224 263 253.06 263.207 252.988 263.452C251.432 267.452 249.574 271.67 245.704 273.9C245.578 273.971 245.471 274.073 245.392 274.195C245.314 274.318 245.268 274.457 245.256 274.602C245.438 274.514 245.624 274.432 245.802 274.33C245.885 274.281 245.98 274.256 246.076 274.256C246.172 274.256 246.267 274.281 246.35 274.33C246.696 274.578 247.038 274.832 247.382 275.082C251.2 272.456 253.2 268.2 254.852 263.966Z" fill="white"/>
<path d="M278.82 314.954C275.18 307.381 270.922 300.12 266.09 293.246C260.616 285.88 253.943 279.485 246.35 274.33C246.267 274.281 246.172 274.256 246.076 274.256C245.98 274.256 245.885 274.281 245.802 274.33C240.34 277.47 232.748 274.82 230.78 262.678C228.662 249.616 228.53 235.918 218.96 226.442C215.876 223.304 211.824 221.298 207.458 220.75C200.572 219.99 194 223.066 187.596 226.092C187.739 226.176 187.858 226.296 187.942 226.44C188.025 226.583 188.07 226.746 188.072 226.912C188.074 227.078 188.034 227.242 187.954 227.388C187.875 227.533 187.759 227.656 187.618 227.744C173.994 235.598 168.988 237.686 163.532 242.488C163.391 242.616 163.215 242.699 163.027 242.729C162.839 242.759 162.646 242.734 162.472 242.657C162.298 242.58 162.15 242.454 162.046 242.294C161.942 242.135 161.886 241.949 161.886 241.758C161.894 241.542 161.978 241.336 162.122 241.176C166.372 236.99 173.522 233.658 182.804 228.302C179.356 230.004 175.645 231.113 171.828 231.58C167.628 232.054 165.64 230.98 162.746 230.656C161.842 230.51 160.917 230.58 160.046 230.86C159.174 231.139 158.381 231.622 157.732 232.267C157.083 232.912 156.595 233.702 156.309 234.571C156.024 235.441 155.948 236.366 156.088 237.27C156.521 238.522 157.278 239.638 158.281 240.503C159.284 241.369 160.498 241.954 161.8 242.2C159.84 244.488 156.818 248.2 156.454 251.13C156.341 251.839 156.377 252.564 156.558 253.258C156.739 253.953 157.062 254.602 157.507 255.166C157.951 255.729 158.508 256.195 159.141 256.533C159.774 256.871 160.47 257.074 161.186 257.13C165.682 257.424 168.386 253.274 174.95 250.306C176.54 249.428 178.353 249.038 180.164 249.184C182.456 249.754 184.432 251.201 185.666 253.214C192.898 263.236 188.824 272.076 192.144 289.558C194.44 301.57 200.393 312.579 209.186 321.078C218.246 329.374 229.622 332.618 241.754 332.782C249.812 332.89 258.604 331.646 265.354 327.368C270.096 324.137 274.437 320.353 278.284 316.096C278.642 315.702 279.064 315.42 278.82 314.954ZM221.132 315.124C218.454 314.439 215.839 313.527 213.316 312.398C213.095 312.268 212.934 312.056 212.869 311.808C212.803 311.56 212.839 311.296 212.968 311.074C213.103 310.859 213.316 310.703 213.562 310.639C213.807 310.575 214.069 310.607 214.292 310.728C216.672 311.765 219.131 312.611 221.646 313.258C221.888 313.331 222.092 313.495 222.215 313.717C222.337 313.938 222.368 314.198 222.301 314.442C222.234 314.686 222.074 314.894 221.855 315.021C221.637 315.149 221.377 315.186 221.132 315.124V315.124Z" fill="white"/>
<path d="M221.646 313.258C219.132 312.611 216.673 311.765 214.292 310.728C214.069 310.607 213.808 310.575 213.562 310.639C213.316 310.703 213.104 310.859 212.968 311.074C212.839 311.296 212.804 311.56 212.869 311.808C212.934 312.056 213.095 312.268 213.316 312.398C215.839 313.527 218.454 314.439 221.132 315.124C221.377 315.186 221.637 315.149 221.856 315.021C222.074 314.894 222.234 314.686 222.301 314.442C222.368 314.198 222.337 313.938 222.215 313.717C222.093 313.495 221.888 313.331 221.646 313.258V313.258Z" fill="#0B00C3"/>
<path d="M176.742 231.728C173.212 233.567 169.777 235.583 166.45 237.768C164.941 238.815 163.496 239.95 162.122 241.168C162.005 241.3 161.928 241.462 161.899 241.635C161.871 241.809 161.892 241.987 161.96 242.149C162.029 242.312 162.142 242.451 162.286 242.552C162.43 242.652 162.6 242.71 162.776 242.718C162.912 242.734 163.049 242.721 163.18 242.68C163.31 242.639 163.43 242.571 163.532 242.48C168.516 238.094 173.56 235.74 179.852 232.226C182.464 230.768 185.028 229.226 187.618 227.736C188.696 227.116 187.664 225.43 186.642 226.068C186.468 226.184 178.772 230.6 176.742 231.728Z" fill="#0B00C3"/>
<path d="M113.502 183.232C112.374 179.246 109.52 170.232 109.352 169.668C109.313 169.529 109.221 169.412 109.095 169.34C108.97 169.269 108.821 169.251 108.682 169.288C104.698 170.416 95.6821 173.266 95.1181 173.438C94.9795 173.477 94.8618 173.569 94.7907 173.694C94.7195 173.819 94.7006 173.967 94.7381 174.106C96.0361 178.04 98.7221 187.106 98.8901 187.67C98.9289 187.809 99.0208 187.926 99.1459 187.997C99.271 188.069 99.4191 188.088 99.5581 188.05C103.542 186.922 112.558 184.068 113.122 183.9C113.26 183.861 113.378 183.769 113.449 183.644C113.52 183.519 113.539 183.371 113.502 183.232V183.232Z" fill="#0B00C3"/>
<path d="M136.788 177.034C135.68 175.952 126.542 167.42 126.27 167.286C126.202 167.244 126.125 167.217 126.045 167.207C125.965 167.198 125.884 167.207 125.807 167.232C125.731 167.258 125.661 167.3 125.603 167.355C125.544 167.411 125.499 167.479 125.47 167.554C125.22 167.94 122.898 174.354 120.842 180.338C120.698 180.758 121.134 181.084 121.51 181.006L136.556 177.942C136.646 177.915 136.728 177.865 136.793 177.796C136.858 177.728 136.904 177.645 136.928 177.553C136.951 177.462 136.951 177.366 136.926 177.275C136.902 177.184 136.854 177.101 136.788 177.034V177.034Z" fill="#EAEAEA"/>
<path d="M151.01 166.918C150.418 165.541 149.41 164.383 148.128 163.606C146.846 162.829 145.353 162.472 143.858 162.584C142.553 162.659 141.307 163.155 140.307 163.997C139.307 164.839 138.606 165.982 138.31 167.256C137.042 173.042 144.204 177.382 148.926 173.892C149.968 173.101 150.731 171.999 151.106 170.745C151.481 169.491 151.447 168.151 151.01 166.918Z" fill="#0B00C3"/>
<path d="M86.0941 163.078C85.0214 162.235 83.7778 161.637 82.4501 161.324C81.1223 161.011 79.7423 160.991 78.4061 161.266C76.0061 161.988 73.4901 164.466 74.8561 167.094C75.5087 168.081 76.3655 168.916 77.3685 169.542C78.3715 170.169 79.4974 170.574 80.6701 170.728C83.0941 171.19 86.1801 171.27 87.8281 169.088C89.4761 166.906 87.9561 164.506 86.0941 163.078Z" fill="#0B00C3"/>
<path d="M62.534 157.98C62.374 157.744 63.084 158.084 49.118 152.78C48.548 152.562 48.298 153.316 48.59 153.688L55.108 162.04C55.1935 162.125 55.3043 162.179 55.4235 162.194C55.5427 162.21 55.6637 162.186 55.768 162.126L62.252 158.85C62.3427 158.831 62.4266 158.788 62.4955 158.726C62.5643 158.664 62.6156 158.585 62.6442 158.496C62.6728 158.408 62.6776 158.314 62.6583 158.224C62.6389 158.133 62.5961 158.049 62.534 157.98V157.98Z" fill="#EAEAEA"/>
<path d="M79.0662 148.97L72.5002 143.77C72.4433 143.681 72.356 143.617 72.2547 143.588C72.1534 143.559 72.0451 143.569 71.9502 143.614L62.5502 147.272C62.2142 147.404 61.9502 147.898 62.3102 148.182L69.0002 153.564C69.0683 153.632 69.1529 153.68 69.2455 153.705C69.3382 153.729 69.4356 153.729 69.5282 153.704L78.8182 149.88C79.1562 149.744 79.4262 149.256 79.0662 148.97Z" fill="#0B00C3"/>
<path d="M389.6 273.15C385.915 272.007 382.047 271.573 378.2 271.872C374.37 271.939 370.555 272.383 366.812 273.198C360.155 274.587 354.263 278.429 350.306 283.96C348.021 287.163 346.115 290.62 344.628 294.262C344.488 294.606 344.828 294.936 345.152 294.95C352.594 295.272 361.952 294.774 368.818 291.968C374.438 289.313 379.558 285.71 383.954 281.316C386.267 279.141 388.274 276.663 389.92 273.948C390.078 273.692 390 273.352 389.6 273.15Z" fill="#EAEAEA"/>
<path d="M347.486 254.288C347.423 254.195 347.332 254.125 347.226 254.088C347.174 254.05 347.114 254.024 347.051 254.012C346.988 254 346.923 254.001 346.86 254.017C346.798 254.033 346.739 254.063 346.69 254.103C346.64 254.144 346.6 254.196 346.572 254.254L346.546 254.29C346.507 254.351 346.48 254.419 346.468 254.49C344.279 260.148 343.804 266.325 345.104 272.25C345.663 274.448 346.641 276.518 347.984 278.346C348.034 278.426 348.103 278.492 348.185 278.537C348.268 278.583 348.36 278.607 348.454 278.607C348.548 278.607 348.641 278.583 348.723 278.537C348.805 278.492 348.874 278.426 348.924 278.346C353.31 271.4 351.822 260.75 347.486 254.288Z" fill="#EAEAEA"/>
<path d="M193.578 168.848V151.07C193.567 150.821 193.46 150.586 193.28 150.414C193.1 150.242 192.86 150.146 192.611 150.146C192.362 150.146 192.122 150.242 191.942 150.414C191.762 150.586 191.655 150.821 191.644 151.07V168.848C191.655 169.097 191.762 169.332 191.942 169.504C192.122 169.676 192.362 169.772 192.611 169.772C192.86 169.772 193.1 169.676 193.28 169.504C193.46 169.332 193.567 169.097 193.578 168.848V168.848Z" fill="#000001"/>
<path d="M198.886 171.532C199.109 171.656 199.371 171.689 199.617 171.624C199.864 171.559 200.075 171.402 200.208 171.184L213.48 153.8C213.609 153.578 213.645 153.315 213.58 153.067C213.516 152.818 213.355 152.606 213.134 152.476C212.911 152.352 212.649 152.319 212.402 152.384C212.155 152.448 211.943 152.606 211.81 152.824L198.54 170.2C198.475 170.31 198.432 170.432 198.414 170.559C198.396 170.685 198.403 170.814 198.435 170.938C198.467 171.062 198.524 171.178 198.601 171.28C198.679 171.382 198.775 171.468 198.886 171.532Z" fill="#000001"/>
<path d="M220.9 169.862L205.522 176.41C205.301 176.54 205.14 176.751 205.075 176.999C205.01 177.247 205.045 177.511 205.174 177.732C205.309 177.948 205.521 178.104 205.767 178.168C206.013 178.233 206.275 178.201 206.498 178.08L221.876 171.532C221.986 171.468 222.082 171.383 222.159 171.282C222.236 171.181 222.293 171.065 222.325 170.942C222.357 170.819 222.365 170.691 222.348 170.565C222.331 170.439 222.288 170.318 222.224 170.208C222.091 169.99 221.879 169.833 221.632 169.768C221.385 169.703 221.123 169.737 220.9 169.862Z" fill="#000001"/>
<path d="M146.212 291.956C147.086 291.07 145.72 289.702 144.844 290.588C141.882 293.588 135.102 300.46 134.676 300.894C133.8 301.78 135.166 303.148 136.042 302.26C138.054 300.224 142.5 295.716 146.212 291.956Z" fill="#000001"/>
<path d="M152.664 292.144C152.417 292.077 152.152 292.11 151.929 292.236C151.706 292.363 151.543 292.573 151.474 292.82L148.902 309.13C148.842 309.377 148.879 309.638 149.005 309.859C149.13 310.08 149.335 310.245 149.578 310.32C149.825 310.388 150.09 310.354 150.313 310.228C150.536 310.101 150.699 309.891 150.768 309.644C150.768 309.644 153.232 294.004 153.338 293.334C153.398 293.087 153.361 292.827 153.236 292.606C153.111 292.385 152.906 292.22 152.664 292.144V292.144Z" fill="#000001"/>
<path d="M161.62 292.82C161.547 292.575 161.383 292.369 161.161 292.243C160.939 292.117 160.677 292.081 160.43 292.144C160.183 292.213 159.973 292.376 159.847 292.6C159.721 292.823 159.688 293.087 159.756 293.334C161.394 297.534 165.126 307.1 165.356 307.686C165.431 307.928 165.596 308.133 165.817 308.259C166.037 308.384 166.297 308.421 166.544 308.362C166.791 308.294 167.002 308.13 167.128 307.907C167.255 307.684 167.288 307.419 167.22 307.172C159.254 286.754 162.47 295 161.62 292.82Z" fill="#000001"/>
<path d="M32.4001 248.666C34.2074 242.232 37.673 236.385 42.4501 231.71C43.3501 230.846 41.9801 229.48 41.0821 230.342C35.9764 235.177 32.3236 241.342 30.5361 248.142C30.4821 248.385 30.5234 248.638 30.6514 248.851C30.7793 249.064 30.9842 249.22 31.2236 249.286C31.463 249.352 31.7186 249.323 31.9376 249.206C32.1566 249.089 32.3221 248.892 32.4001 248.656V248.666Z" fill="#000001"/>
<path d="M38.65 226.698C39.582 225.87 38.208 224.498 37.282 225.332C31.1692 230.794 26.3574 237.555 23.2 245.12C23.166 245.242 23.1565 245.37 23.172 245.496C23.1875 245.622 23.2277 245.744 23.2903 245.854C23.353 245.964 23.4368 246.061 23.5369 246.139C23.6371 246.217 23.7516 246.275 23.874 246.308C24.1224 246.374 24.3869 246.341 24.6111 246.215C24.8353 246.089 25.0014 245.881 25.074 245.634C28.1381 238.393 32.7756 231.924 38.65 226.698V226.698Z" fill="#000001"/>
<path d="M94.3401 163.442C94.4702 163.663 94.6826 163.824 94.9307 163.888C95.1788 163.953 95.4425 163.917 95.6641 163.788C95.8822 163.656 96.0402 163.444 96.1048 163.197C96.1693 162.95 96.1354 162.688 96.0101 162.466L91.3001 152.336C91.1683 152.117 90.9552 151.958 90.7073 151.896C90.4593 151.833 90.1965 151.87 89.9761 152C89.758 152.132 89.6 152.344 89.5354 152.591C89.4708 152.838 89.5048 153.1 89.6301 153.322L94.3401 163.442Z" fill="#0B00C3"/>
<path d="M98.4842 161.676C98.5573 161.922 98.7235 162.13 98.9475 162.256C99.1715 162.382 99.4358 162.416 99.6842 162.35C99.931 162.282 100.141 162.118 100.267 161.896C100.394 161.673 100.426 161.409 100.358 161.162L96.1942 150.582C96.1189 150.339 95.954 150.134 95.7329 150.009C95.5119 149.883 95.2513 149.846 95.0041 149.906C94.7567 149.974 94.5465 150.138 94.4198 150.361C94.293 150.584 94.2601 150.849 94.3282 151.096L98.4842 161.676Z" fill="#0B00C3"/>
<path d="M81.5222 148.236C81.5975 148.479 81.7624 148.684 81.9835 148.809C82.2045 148.935 82.4651 148.972 82.7122 148.912C82.9593 148.843 83.169 148.679 83.2953 148.456C83.4217 148.233 83.4544 147.969 83.3862 147.722C82.0436 144.363 80.7009 141.006 79.3582 137.65C79.283 137.407 79.118 137.202 78.897 137.077C78.6759 136.951 78.4153 136.914 78.1682 136.974C77.9208 137.042 77.7106 137.206 77.5838 137.429C77.4571 137.652 77.4241 137.917 77.4922 138.164C78.8362 141.521 80.1796 144.879 81.5222 148.236Z" fill="#0B00C3"/>
<path d="M156.57 172.626C156.686 168.727 156.531 164.825 156.106 160.948C156.098 160.694 155.993 160.453 155.813 160.274C155.633 160.094 155.392 159.99 155.138 159.982C154.882 159.982 154.636 160.084 154.455 160.265C154.274 160.446 154.172 160.692 154.172 160.948C154.589 164.826 154.744 168.727 154.636 172.626C154.647 172.875 154.754 173.11 154.934 173.282C155.114 173.454 155.354 173.55 155.603 173.55C155.852 173.55 156.092 173.454 156.272 173.282C156.452 173.11 156.559 172.875 156.57 172.626V172.626Z" fill="#0B00C3"/>
<path d="M64.0461 175.24C75.6461 177.74 83.2081 181.018 88.2081 191.968C90.6953 197.731 92.5359 203.753 93.6961 209.922C93.9661 211.136 95.8301 210.622 95.5601 209.408C95.3301 208.37 94.6461 205.408 94.5421 204.978C89.2801 183.092 81.6241 177.632 67.6881 174.114C47.2401 168.952 21.3461 169.01 17.4381 147.416C17.2181 146.194 15.3581 146.71 15.5741 147.93C19.3421 169.306 44.2381 170.974 64.0461 175.24Z" fill="white"/>
<path d="M170.742 190.676C170.976 191.896 172.838 191.38 172.608 190.16C169.558 174.104 166.19 158.508 153.298 148.36C141.474 139.06 125.006 141.718 112.216 135.748C105.775 132.761 100.752 127.38 98.2162 120.748C97.9062 119.93 97.6622 119.092 97.4162 118.254C97.3382 118.018 97.1727 117.821 96.9537 117.704C96.7347 117.587 96.4791 117.559 96.2397 117.625C96.0003 117.691 95.7955 117.846 95.6675 118.059C95.5395 118.272 95.4982 118.526 95.5522 118.768C97.3909 125.738 101.802 131.753 107.898 135.6C125.634 146.95 149.174 135.87 163.056 163.7C167.24 172.078 168.982 181.452 170.742 190.676Z" fill="white"/>
<path d="M275.93 197.16C277.468 197.101 278.973 196.696 280.332 195.974C281.692 195.252 282.871 194.233 283.781 192.992C284.692 191.751 285.31 190.321 285.59 188.807C285.871 187.294 285.806 185.737 285.4 184.252C284.09 178.638 278.66 174.8 272.142 178.252C262.302 183.492 266.65 197.16 275.93 197.16ZM269.43 183.444C272.284 178.496 279.044 177.348 281.982 181.266C277.828 182.07 273.612 182.8 269.43 183.444ZM268.57 185.618C273.06 184.958 277.796 184.136 283.028 183.104C283.613 184.435 283.872 185.886 283.785 187.338C283.698 188.789 283.266 190.199 282.526 191.45C281.945 192.516 281.108 193.42 280.09 194.081C279.073 194.742 277.906 195.139 276.697 195.236C275.487 195.334 274.272 195.128 273.162 194.639C272.051 194.149 271.08 193.391 270.336 192.432C269.549 191.502 268.982 190.406 268.676 189.226C268.37 188.047 268.334 186.814 268.57 185.618V185.618Z" fill="#000001"/>
<path d="M77.1541 343.066C67.5576 335.553 55.7176 331.479 43.5303 331.494C31.3429 331.51 19.5134 335.615 9.93612 343.152C9.79489 343.277 9.69462 343.442 9.64834 343.626C9.60206 343.809 9.6119 344.001 9.67659 344.179C9.74128 344.356 9.85783 344.51 10.0111 344.621C10.1644 344.731 10.3473 344.793 10.5361 344.798H76.6501C76.8497 344.791 77.042 344.721 77.1996 344.598C77.3571 344.475 77.472 344.306 77.5278 344.114C77.5836 343.922 77.5775 343.718 77.5104 343.53C77.4434 343.341 77.3187 343.179 77.1541 343.066ZM73.6181 342.91H13.4481C22.2617 336.726 32.7667 333.409 43.5331 333.409C54.2996 333.409 64.8045 336.726 73.6181 342.91V342.91Z" fill="#000001"/>
<path d="M291.062 208.306C274.142 200.366 256.262 210.642 244.814 225.836C242.702 228.636 240.814 231.59 238.984 234.58C235.946 222.248 229.821 210.892 221.184 201.58C207.492 187.276 186.284 182.222 172.02 187.09C170.806 179.694 168.794 172.452 166.02 165.49C163.355 158.767 158.971 152.862 153.306 148.366C141.484 139.066 125.016 141.724 112.226 135.754C105.785 132.767 100.763 127.385 98.226 120.754C97.918 119.936 97.672 119.098 97.426 118.26C97.3481 118.024 97.1825 117.827 96.9636 117.71C96.7446 117.593 96.489 117.565 96.2496 117.631C96.0102 117.697 95.8053 117.852 95.6773 118.065C95.5494 118.278 95.5081 118.532 95.562 118.774C97.4003 125.74 101.809 131.752 107.9 135.6C125.634 146.95 149.174 135.87 163.056 163.702C166.519 171.367 168.922 179.468 170.2 187.782C167.587 188.77 165.197 190.268 163.169 192.19C161.141 194.111 159.516 196.416 158.388 198.972C154.242 199.922 143.688 202.362 141.188 202.938C141.167 202.86 141.123 202.79 141.062 202.738C127.678 191.044 106.174 191.138 94.428 204.512C89.2 183.056 81.548 177.612 67.688 174.114C46.812 168.844 21.324 168.898 17.438 147.416C17.218 146.194 15.36 146.71 15.574 147.93C20.344 175 59.092 170.532 76.64 179.264C86.548 184.196 90.326 195.542 92.884 206.384C89.4608 210.824 86.9684 215.91 85.556 221.336C75.73 221.25 65.724 225.988 57.366 234.736C45.1834 247.534 37.7377 264.11 36.262 281.718C35.316 293.092 36.536 308.174 47.732 315.448C51.6997 317.949 56.0498 319.785 60.61 320.882C68.35 322.576 76.276 319.702 82.362 312.998C88.266 306.496 90.864 298.16 92.59 289.898C95.64 309.378 113.566 330.734 133.956 330.734C139.943 330.745 145.764 328.766 150.504 325.108C150.543 325.078 150.575 325.04 150.6 324.998C152.454 326.12 154.342 327.188 156.22 328.264C170.574 336.488 178.452 339.184 187.442 341.126C207.632 345.494 228.549 345.22 248.618 340.326C274.218 333.558 301.818 306.126 310.176 268.756C312.81 256.976 313.818 244.248 310.456 232.508C307.544 222.32 300.82 212.884 291.062 208.306ZM211.78 196.142C223.096 203.906 231.014 216.274 235.34 229.24C232.83 233.148 230.276 237.04 227.498 240.756C223.364 226.212 212.298 216.72 197.834 221.42C195.476 217.882 191.94 215.294 187.854 214.116C184.469 213.046 180.992 212.291 177.468 211.862C175.134 211.556 168.268 210.592 166.774 208.76C166.376 208.218 166.172 207.557 166.196 206.885C166.22 206.213 166.47 205.568 166.906 205.056C167.795 204.002 169.008 203.271 170.356 202.978C172.974 202.606 175.638 202.73 178.21 203.344C178.415 203.394 178.63 203.39 178.834 203.333C179.037 203.276 179.222 203.168 179.372 203.018C179.521 202.869 179.629 202.683 179.686 202.48C179.743 202.276 179.746 202.061 179.696 201.856C179.226 199.788 178.56 197.768 178.126 195.692C178.035 195.387 177.83 195.128 177.553 194.971C177.276 194.813 176.949 194.768 176.64 194.846C171.372 196.11 166.068 197.208 160.788 198.418C169.834 182.324 196.116 185.4 211.78 196.142ZM182.8 248.538C178 245.9 172.434 249.338 167.91 252.386C165.038 254.326 163.07 255.756 160.434 255.218C159.705 254.94 159.088 254.43 158.678 253.767C158.267 253.104 158.086 252.324 158.162 251.548C158.52 249.703 159.347 247.981 160.562 246.548C163.134 243 171.342 237.56 177.844 233.588C187.69 227.572 188.444 227.176 193.832 224.914C201.326 221.768 208.396 220.656 215.064 225.198C216.837 226.424 218.422 227.902 219.77 229.584C230.472 242.744 226.114 262.366 232.48 271.784C235.68 276.526 241.014 278.572 245.98 275.93C258.78 285.194 266.222 293.33 277.168 315.06C275.538 316.816 273.828 318.492 272.062 320.112C266.696 325.03 262.616 328.01 255.432 329.848C252.593 330.549 249.698 330.999 246.78 331.194C235.314 331.956 223.214 329.648 213.836 322.906C208.16 318.658 203.486 313.217 200.142 306.966C187.942 285.128 195.156 267.118 188.942 255.116C187.601 252.357 185.461 250.065 182.8 248.538ZM140.088 317.616C142.879 319.928 145.827 322.045 148.91 323.952C141.374 329.782 129.91 330.44 120.31 325.576C105.892 318.274 94.036 300.162 94.054 284.324C94.054 283.64 94.054 282.956 94.022 282.272C93.968 281.222 92.356 280.97 92.16 282.072C90.084 293.8 87.498 308.396 75.924 316.044C73.3747 317.816 70.4345 318.946 67.3542 319.336C64.2739 319.727 61.1449 319.366 58.234 318.286C54.954 317.233 51.8184 315.774 48.9 313.944C42.1 309.596 38.538 301.844 38.016 290.24C37.7045 280.368 39.3427 270.531 42.837 261.292C46.3313 252.054 51.6131 243.595 58.38 236.4C72.472 221.188 88.14 221.328 97.274 226.072C97.3582 226.116 97.4553 226.129 97.548 226.108C103.504 252.082 106.534 265.93 106.646 266.158C106.816 266.598 106.796 266.674 108.2 267.284C109.916 268.028 113.764 269.57 122.694 273.548C121.759 281.756 122.857 290.069 125.89 297.753C128.923 305.438 133.799 312.259 140.088 317.616ZM95.788 213.33C95.4828 213.421 95.2247 213.626 95.0677 213.903C94.9107 214.18 94.8671 214.507 94.946 214.816C95.68 217.816 96.346 220.816 97.026 223.834C94.0149 222.474 90.7874 221.657 87.492 221.42C91.154 208.02 100.398 198.754 112.292 196.584C116.973 195.76 121.776 195.946 126.379 197.13C130.982 198.314 135.279 200.468 138.982 203.448C129.822 205.572 101.642 212.03 95.788 213.33ZM111.388 266.016L155.886 253.134C156.153 254.482 156.892 255.691 157.97 256.543C159.048 257.396 160.395 257.836 161.768 257.786C165.906 257.604 168.39 254.406 174.102 251.448C173.902 252.732 173.732 254.024 173.6 255.316C173.415 257.003 173.828 258.702 174.768 260.116C177.208 263.738 182.478 262.916 184.752 259.516C185.502 258.378 186.106 257.151 186.552 255.864C186.988 256.64 187.388 257.433 187.752 258.242C189.102 261.729 189.772 265.443 189.726 269.182C179.14 273.066 161.084 279.6 149.398 282.682C136.588 277.38 124.162 271.45 111.388 266.016ZM176 255.464C176.148 253.652 176.454 251.848 176.758 250.064C177.804 249.669 178.926 249.516 180.04 249.616C182.084 250.09 183.865 251.335 185.012 253.092C184.494 254.548 183.893 255.974 183.212 257.362C181.932 260.044 178.496 261.092 176.842 258.898C176.48 258.411 176.219 257.856 176.074 257.266C175.93 256.676 175.905 256.064 176 255.464ZM162.8 240.59C161.642 240.517 160.534 240.088 159.628 239.362C158.722 238.636 158.062 237.649 157.738 236.534C157.72 235.755 157.92 234.986 158.316 234.314C158.712 233.643 159.287 233.095 159.978 232.734C161.1 232.258 162.349 232.176 163.524 232.5C164.99 232.887 166.483 233.165 167.99 233.332C170.184 233.552 172.399 233.413 174.548 232.918C174.772 232.918 173.566 233.404 170.272 235.33C167.625 236.848 165.126 238.613 162.81 240.6L162.8 240.59ZM183.234 214.876C188.237 215.504 192.789 218.085 195.898 222.056C192.766 223.23 189.696 224.562 186.698 226.046C185.51 222.338 184.304 218.624 183.244 214.876H183.234ZM176.052 197.452C176.322 198.538 176.632 199.614 176.918 200.694C174.869 200.241 172.756 200.158 170.678 200.448C163.808 201.494 162.064 207.93 165.416 210.836C168.368 213.396 176.662 214.16 180.666 214.688C181.794 218.774 183.116 222.812 184.408 226.848C178.874 229.408 172.74 231.924 166.564 230.708C165.414 230.482 164.266 230.154 163.098 229.992C164.016 228.61 164.898 227.192 165.682 225.742C165.803 225.519 165.835 225.257 165.771 225.012C165.707 224.766 165.551 224.553 165.336 224.418C162.046 222.312 154.168 217.004 154.168 217.004C153.128 216.314 152.168 217.99 153.192 218.674L163.554 225.554C162.698 227.074 161.766 228.554 160.782 229.994C159.843 230.132 158.946 230.481 158.161 231.015C157.375 231.548 156.721 232.253 156.246 233.075C155.771 233.897 155.488 234.816 155.418 235.763C155.349 236.711 155.494 237.661 155.844 238.544C156.868 240.442 158.575 241.879 160.62 242.564C158.448 244.844 156.829 247.593 155.888 250.598L108.674 264.264C108.11 261.768 98.324 218.742 97.55 215.406C116.98 211.096 150.674 203.11 176.062 197.452H176.052ZM309.548 261.64C303.608 299.804 276.764 328.58 253.606 336.708C231.876 344.338 201.606 343.682 180.766 337.394C175.671 335.832 170.728 333.81 166 331.352C160.2 328.368 154.462 325.152 148.942 321.684C143.872 318.591 139.31 314.735 135.414 310.252C131.327 305.283 128.265 299.554 126.402 293.397C124.539 287.239 123.913 280.773 124.56 274.372C130.086 276.842 145.904 283.824 148.296 284.822C148.565 284.994 148.871 285.101 149.188 285.132C149.506 285.163 149.827 285.119 150.124 285.002C161 282.13 179.554 275.48 190.072 271.626C190.51 283.968 191.348 293.664 196.872 304.886C199.797 311.05 203.849 316.612 208.82 321.286C218.478 330.086 231.194 333.624 244.308 333.224C251.566 333.284 258.719 331.494 265.094 328.024C274.585 321.744 282.424 313.271 287.95 303.322C288.528 302.222 286.858 301.242 286.28 302.346C284.165 306.367 281.572 310.118 278.558 313.518C269.682 296.07 262.77 285.812 247.746 274.84C251.098 271.967 253.563 268.199 254.852 263.976C254.92 263.729 254.887 263.464 254.76 263.241C254.634 263.018 254.423 262.854 254.176 262.786C253.929 262.722 253.667 262.757 253.446 262.883C253.224 263.008 253.06 263.215 252.988 263.46C251.856 267.168 249.744 270.502 246.876 273.11C245.918 273.908 244.795 274.484 243.588 274.796C242.381 275.109 241.12 275.151 239.895 274.919C238.67 274.687 237.511 274.187 236.502 273.455C235.493 272.723 234.658 271.777 234.058 270.684C230.124 264.71 230.81 254.768 228.162 243.318C231.01 239.604 233.612 235.718 236.148 231.788C236.712 233.602 237.2 235.44 237.708 237.272C237.763 237.452 237.869 237.611 238.013 237.732C238.156 237.854 238.332 237.931 238.518 237.955C238.704 237.979 238.894 237.95 239.064 237.869C239.233 237.789 239.377 237.661 239.476 237.502C242.943 231.377 247.125 225.685 251.934 220.546C260.356 212.114 271.682 205.946 283.428 207.904C293.55 209.594 301.652 217.24 306.046 226.276C311.334 237.142 311.382 249.924 309.558 261.64H309.548Z" fill="#000001"/>
<path d="M220.856 91.426C222.978 94.5054 225.648 97.169 228.732 99.284C228.84 99.3606 228.963 99.4125 229.093 99.4362C229.223 99.4598 229.357 99.4546 229.485 99.4208C229.613 99.387 229.732 99.3256 229.833 99.2407C229.935 99.1559 230.016 99.0498 230.072 98.93C232.784 92.946 233.072 85.73 230.93 77.496C229.456 72.1628 227.268 67.0533 224.426 62.306C223.196 59.9319 221.77 57.6641 220.164 55.526C220.052 55.4023 219.909 55.3107 219.75 55.2603C219.591 55.2099 219.422 55.2027 219.259 55.2393C219.096 55.2759 218.946 55.3551 218.824 55.4687C218.702 55.5823 218.612 55.7263 218.564 55.886C216.414 61.6642 215.329 67.7847 215.364 73.95C215.573 80.166 217.472 86.2077 220.856 91.426V91.426ZM217.574 67.18C218.073 64.1419 218.809 61.1475 219.774 58.224C220.588 59.44 221.396 60.768 222.226 62.26C226.558 70.034 229.918 76.766 230.504 86.66C230.713 90.1971 230.141 93.7368 228.828 97.028C224.425 93.538 221.053 88.918 219.071 83.6612C217.089 78.4043 216.572 72.7079 217.574 67.18V67.18Z" fill="#000001"/>
<path d="M94.3541 174.216C95.5141 178.312 98.3541 187.262 98.5061 187.784C98.576 188.023 98.7365 188.224 98.9533 188.346C99.1701 188.468 99.4259 188.5 99.6661 188.436C103.066 187.474 109.938 185.306 113.24 184.282C113.36 184.248 113.472 184.19 113.569 184.112C113.666 184.034 113.747 183.937 113.807 183.828C113.866 183.719 113.904 183.598 113.917 183.475C113.93 183.351 113.918 183.225 113.882 183.106C112.798 179.816 110.718 172.854 109.736 169.552C109.665 169.312 109.503 169.11 109.284 168.989C109.065 168.867 108.807 168.837 108.566 168.904C108.566 168.904 95.5661 172.886 95.0041 173.054C94.7654 173.124 94.5637 173.285 94.4422 173.502C94.3207 173.72 94.2891 173.976 94.3541 174.216ZM96.4421 174.588L108.202 170.988L111.802 182.748L100.042 186.348L96.4421 174.588Z" fill="#000001"/>
<path d="M121.4 181.418C121.6 181.418 120.36 181.65 136.67 178.326C136.911 178.256 137.114 178.093 137.236 177.874C137.357 177.654 137.387 177.395 137.318 177.154C137.158 176.608 130.244 170.364 126.718 167.114C126.628 167.015 126.518 166.936 126.396 166.882C126.274 166.828 126.142 166.8 126.008 166.8C125.874 166.8 125.742 166.828 125.62 166.882C125.498 166.936 125.388 167.015 125.298 167.114C124.798 167.668 121.19 178.114 120.474 180.212C120.431 180.354 120.423 180.505 120.449 180.651C120.476 180.797 120.537 180.935 120.628 181.052C120.718 181.17 120.835 181.265 120.97 181.328C121.104 181.392 121.252 181.423 121.4 181.418ZM122.8 179.228C123.842 176.21 125.056 172.766 126.362 169.366L134.424 176.86L122.8 179.228Z" fill="#000001"/>
<path d="M145.15 175.544C146.28 175.555 147.394 175.274 148.384 174.727C149.373 174.181 150.204 173.387 150.796 172.424C151.388 171.461 151.721 170.362 151.762 169.232C151.803 168.102 151.551 166.981 151.03 165.978C147.922 160.624 139.684 160.978 138.012 166.778C137.751 167.842 137.74 168.952 137.981 170.021C138.221 171.09 138.706 172.089 139.398 172.939C140.09 173.788 140.97 174.466 141.968 174.918C142.966 175.37 144.055 175.584 145.15 175.544V175.544ZM139.75 167.544C140.578 163.57 146.134 162.928 148.788 166.048C149.452 166.835 149.833 167.823 149.87 168.852C149.906 169.882 149.595 170.894 148.988 171.726C148.249 172.606 147.243 173.22 146.123 173.474C145.003 173.729 143.83 173.61 142.784 173.137C141.738 172.663 140.875 171.86 140.327 170.85C139.779 169.841 139.577 168.68 139.75 167.544V167.544Z" fill="#000001"/>
<path d="M78.3222 160.876C77.4682 161.109 76.6738 161.522 75.9919 162.086C75.3101 162.651 74.7565 163.354 74.3682 164.15C74.1506 164.654 74.0513 165.202 74.078 165.751C74.1047 166.3 74.2566 166.835 74.5222 167.316C75.2044 168.346 76.0992 169.218 77.1466 169.874C78.1939 170.529 79.3695 170.953 80.5942 171.116C83.3662 171.644 86.4402 171.588 88.1482 169.326C91.2682 165.2 84.4342 159.428 78.3222 160.876ZM84.7222 163.944C86.2982 164.914 87.7882 166.618 86.6702 168.166C85.7582 169.43 83.8922 169.812 81.0922 169.298C80.1065 169.192 79.1552 168.875 78.3031 168.368C77.451 167.862 76.718 167.177 76.1542 166.362C75.3542 164.832 77.0922 163.284 78.5982 162.762C79.6433 162.503 80.7322 162.475 81.7893 162.679C82.8465 162.883 83.8466 163.315 84.7202 163.944H84.7222Z" fill="#000001"/>
<path d="M54.8002 162.29C54.8892 162.389 54.9981 162.468 55.1198 162.522C55.2414 162.576 55.3731 162.604 55.5062 162.604C55.8122 162.604 55.3362 162.804 62.3922 159.236C62.5414 159.195 62.678 159.117 62.7899 159.01C62.9017 158.903 62.9852 158.77 63.033 158.623C63.0807 158.475 63.0912 158.319 63.0635 158.166C63.0358 158.014 62.9708 157.871 62.8742 157.75C62.7282 157.452 62.0862 157.254 49.2742 152.408C48.3322 152.052 47.7382 153.232 48.2882 153.938L54.8002 162.29ZM51.8002 155.382L59.8202 158.426L55.7702 160.47L51.8002 155.382Z" fill="#000001"/>
<path d="M62.0662 148.49C69.3702 154.374 68.9142 154.116 69.3882 154.116C69.6822 154.116 69.1522 154.284 76.1002 151.444C79.0162 150.244 79.1942 150.178 79.3342 149.996C79.4474 149.894 79.5333 149.766 79.5842 149.622C79.635 149.479 79.6492 149.325 79.6253 149.175C79.6014 149.024 79.5404 148.882 79.4476 148.762C79.3548 148.641 79.2334 148.546 79.0942 148.484C72.2362 143.046 72.4942 143.062 71.7562 143.256C71.5562 143.308 71.7242 143.268 62.4102 146.896C62.2534 146.947 62.1127 147.039 62.0023 147.161C61.8918 147.284 61.8153 147.433 61.7805 147.594C61.7457 147.755 61.7538 147.923 61.8039 148.08C61.854 148.237 61.9445 148.379 62.0662 148.49V148.49ZM64.5582 148.09L71.9342 145.2L76.8402 149.09L69.5482 152.09L64.5582 148.09Z" fill="#000001"/>
<path d="M389.72 272.768C386.938 271.891 384.037 271.453 381.12 271.47C366.86 271.546 356.52 273.842 349.052 285.04C347.155 287.896 345.547 290.935 344.252 294.11C344.206 294.25 344.194 294.4 344.216 294.546C344.238 294.692 344.294 294.831 344.38 294.952C344.465 295.072 344.578 295.171 344.709 295.24C344.839 295.309 344.984 295.347 345.132 295.35C352.574 295.672 362.036 295.172 368.966 292.338C374.624 289.649 379.784 286.02 384.228 281.606C386.589 279.424 388.622 276.912 390.262 274.148C390.333 274.024 390.375 273.887 390.386 273.745C390.396 273.603 390.375 273.46 390.322 273.328C390.27 273.195 390.189 273.076 390.085 272.979C389.981 272.882 389.856 272.81 389.72 272.768V272.768ZM388 274.2C383.059 280.95 376.593 286.437 369.128 290.214C365.892 291.628 362.458 292.541 358.946 292.92C354.835 293.441 350.688 293.635 346.546 293.5C348.484 288.707 351.397 284.369 355.098 280.76C361.978 274.124 372.626 273.32 381.098 273.36C383.426 273.34 385.746 273.623 388 274.2Z" fill="#000001"/>
<path d="M253.686 188.698L263.95 186.828C265.172 186.606 264.656 184.74 263.436 184.964L253.172 186.834C251.95 187.056 252.468 188.92 253.686 188.698Z" fill="#000001"/>
<path d="M368 258.414C368.956 257.614 367.576 256.246 366.632 257.046C360.072 262.934 354.447 269.787 349.952 277.37C353.628 270.192 351.878 260.1 347.828 254.064C347.186 253.11 345.992 253.894 346.106 254.352C343.89 260.087 343.41 266.347 344.726 272.352C345.294 274.588 346.288 276.693 347.654 278.552C347.727 278.67 347.824 278.77 347.94 278.846C348.056 278.922 348.187 278.972 348.324 278.993C348.461 279.013 348.6 279.003 348.733 278.963C348.866 278.924 348.988 278.856 349.092 278.764C341.069 292.118 335.168 306.636 331.6 321.8C331.524 284.976 331.498 254.912 327.982 223.822C342.782 224.278 356.602 218.422 364.416 205.72C364.489 205.612 364.537 205.49 364.557 205.362C364.578 205.233 364.571 205.102 364.536 204.977C364.501 204.852 364.439 204.736 364.355 204.637C364.271 204.538 364.166 204.459 364.048 204.404C360.736 202.842 357.143 201.961 353.484 201.815C349.825 201.669 346.174 202.259 342.747 203.552C339.321 204.844 336.189 206.812 333.538 209.339C330.887 211.866 328.771 214.899 327.316 218.26C325.769 205.216 323.414 192.282 320.264 179.53C315.871 164.45 307.798 150.698 296.772 139.512C281.07 123.376 267.802 117.252 249.038 108.488C263.574 99.156 266.038 77.512 258.516 64.272C258.444 64.1474 258.344 64.0411 258.224 63.961C258.104 63.881 257.968 63.8293 257.825 63.81C257.682 63.7907 257.537 63.8043 257.4 63.8497C257.263 63.8951 257.139 63.9711 257.036 64.072C244.536 76.194 239.89 87.048 241.974 99.272C242.502 102.396 243.645 105.384 245.338 108.062C238.675 107.197 231.92 107.359 225.306 108.542C219.636 109.52 214.271 111.806 209.638 115.218C205.005 118.63 201.231 123.075 198.614 128.2C198.548 128.322 198.51 128.456 198.501 128.595C198.492 128.733 198.514 128.871 198.564 129C198.614 129.129 198.692 129.246 198.792 129.342C198.892 129.438 199.011 129.511 199.142 129.556C207.65 133.087 217.102 133.633 225.96 131.106C230.984 129.437 235.609 126.746 239.543 123.204C243.477 119.661 246.636 115.342 248.82 110.52C265.522 118.32 275.902 123.004 290.108 135.78C302.6 146.802 311.99 160.901 317.346 176.676C319.049 182.034 320.39 187.5 321.36 193.038C325.436 214.978 328.118 234.998 329.11 270.166C329.71 291.588 329.71 337.924 329.71 338.14C329.721 338.389 329.828 338.624 330.008 338.796C330.188 338.968 330.428 339.064 330.677 339.064C330.926 339.064 331.166 338.968 331.346 338.796C331.526 338.624 331.633 338.389 331.644 338.14C331.286 314.268 349.288 274 368 258.414ZM348.4 276.25C344.932 270.396 345.462 262.58 347.242 256.794C348.9 259.736 349.864 263.018 350.062 266.39C350.26 269.761 349.686 273.134 348.384 276.25H348.4ZM247.162 107.374C239.786 95.574 244.198 82.314 250.84 73.774C252.866 71.1452 255.067 68.6562 257.428 66.324C265.244 82.712 258.4 100.912 247.162 107.374ZM246.87 110.252C243.423 117.373 237.805 123.217 230.824 126.94C229.101 127.89 227.293 128.677 225.424 129.29C217.312 131.643 208.649 131.241 200.79 128.148C203.873 122.494 208.464 117.805 214.052 114.604C225.628 107.98 237.6 109.564 246.87 110.252ZM328.1 221.544C329.156 218.165 330.906 215.045 333.237 212.381C335.569 209.718 338.431 207.571 341.64 206.077C344.849 204.583 348.334 203.776 351.873 203.706C355.412 203.637 358.927 204.307 362.192 205.674C350.074 224.162 327.962 221.898 327.76 221.932L327.746 221.822C327.826 221.816 327.903 221.787 327.966 221.737C328.029 221.688 328.076 221.62 328.1 221.544V221.544Z" fill="#000001"/>
<path d="M213.316 312.4C215.839 313.529 218.454 314.441 221.132 315.126C221.377 315.188 221.637 315.151 221.856 315.023C222.074 314.896 222.234 314.688 222.301 314.444C222.368 314.2 222.337 313.94 222.215 313.719C222.093 313.497 221.888 313.333 221.646 313.26C219.132 312.613 216.673 311.767 214.292 310.73C214.069 310.609 213.808 310.577 213.562 310.641C213.316 310.705 213.104 310.861 212.968 311.076C212.839 311.298 212.804 311.562 212.869 311.81C212.934 312.058 213.095 312.27 213.316 312.4V312.4Z" fill="#000001"/>
<path d="M192.644 169.782C192.889 169.774 193.122 169.674 193.295 169.501C193.469 169.328 193.57 169.095 193.578 168.85V151.072C193.567 150.823 193.46 150.588 193.28 150.416C193.1 150.244 192.86 150.148 192.611 150.148C192.362 150.148 192.122 150.244 191.942 150.416C191.762 150.588 191.655 150.823 191.644 151.072V168.85C191.648 168.977 191.678 169.102 191.73 169.217C191.783 169.333 191.858 169.437 191.951 169.523C192.044 169.61 192.153 169.677 192.272 169.722C192.391 169.766 192.517 169.787 192.644 169.782V169.782Z" fill="#000001"/>
<path d="M213.134 152.472C212.911 152.347 212.649 152.314 212.402 152.379C212.155 152.444 211.943 152.602 211.81 152.82C210.32 154.774 199.09 169.488 198.538 170.208C198.409 170.43 198.373 170.694 198.439 170.942C198.504 171.19 198.665 171.402 198.886 171.532C199.109 171.656 199.371 171.689 199.617 171.624C199.864 171.559 200.075 171.402 200.208 171.184C201.702 169.23 212.93 154.518 213.48 153.796C213.609 153.574 213.645 153.311 213.58 153.063C213.515 152.814 213.355 152.602 213.134 152.472V152.472Z" fill="#000001"/>
<path d="M205.174 177.732C205.308 177.949 205.52 178.107 205.767 178.171C206.013 178.236 206.276 178.202 206.498 178.078L221.876 171.532C222.098 171.402 222.258 171.19 222.324 170.942C222.389 170.694 222.353 170.43 222.224 170.208C222.092 169.99 221.88 169.833 221.633 169.768C221.387 169.703 221.125 169.737 220.902 169.862L205.522 176.408C205.301 176.538 205.14 176.75 205.075 176.998C205.01 177.246 205.045 177.51 205.174 177.732V177.732Z" fill="#000001"/>
<path d="M144.844 290.588L134.674 300.894C133.8 301.78 135.166 303.148 136.042 302.262L146.212 291.956C147.086 291.07 145.72 289.7 144.844 290.588Z" fill="#000001"/>
<path d="M152.662 292.144C152.415 292.077 152.151 292.11 151.928 292.237C151.706 292.363 151.542 292.573 151.474 292.82L148.902 309.13C148.842 309.377 148.879 309.638 149.005 309.859C149.13 310.08 149.335 310.245 149.578 310.32C149.825 310.388 150.09 310.354 150.313 310.228C150.536 310.101 150.699 309.891 150.768 309.644C150.768 309.644 153.234 294.004 153.338 293.334C153.398 293.087 153.361 292.826 153.235 292.605C153.11 292.384 152.905 292.219 152.662 292.144V292.144Z" fill="#000001"/>
<path d="M161.62 292.82C161.545 292.577 161.38 292.372 161.159 292.246C160.938 292.121 160.677 292.084 160.43 292.144C160.183 292.213 159.974 292.377 159.848 292.6C159.721 292.823 159.688 293.087 159.756 293.334C161.394 297.534 165.126 307.1 165.356 307.686C165.429 307.93 165.593 308.137 165.814 308.263C166.036 308.388 166.297 308.424 166.544 308.362C166.791 308.294 167.002 308.13 167.128 307.907C167.255 307.684 167.288 307.419 167.22 307.172C167.128 306.94 161.712 293.052 161.62 292.82Z" fill="#000001"/>
<path d="M161.726 293.092L161.74 293.128L161.726 293.092Z" fill="#000001"/>
<path d="M31.2461 249.318C31.4845 249.377 31.7364 249.342 31.95 249.221C32.1635 249.099 32.3224 248.901 32.3941 248.666C34.2015 242.231 37.6671 236.384 42.4441 231.71C43.3441 230.846 41.9741 229.48 41.0781 230.342C35.9712 235.176 32.3176 241.341 30.5301 248.142C30.4986 248.266 30.4921 248.396 30.5112 248.522C30.5303 248.649 30.5744 248.771 30.6411 248.88C30.7078 248.99 30.7956 249.085 30.8995 249.16C31.0034 249.235 31.1212 249.289 31.2461 249.318V249.318Z" fill="#000001"/>
<path d="M37.2821 225.332C31.1691 230.793 26.3566 237.554 23.1981 245.118C23.1641 245.24 23.1546 245.368 23.17 245.494C23.1855 245.62 23.2257 245.742 23.2883 245.853C23.3509 245.963 23.4347 246.06 23.5349 246.139C23.6351 246.217 23.7497 246.274 23.8721 246.308C24.1205 246.374 24.385 246.341 24.6092 246.215C24.8334 246.089 24.9995 245.881 25.0721 245.634C28.1397 238.392 32.7814 231.923 38.6601 226.698C39.5821 225.87 38.2001 224.504 37.2821 225.332Z" fill="#000001"/>
<path d="M94.3401 163.442C94.4702 163.663 94.6826 163.823 94.9307 163.888C95.1788 163.953 95.4425 163.917 95.6641 163.788C95.8821 163.656 96.0402 163.444 96.1048 163.197C96.1693 162.95 96.1354 162.688 96.0101 162.466L91.3001 152.336C91.1683 152.117 90.9552 151.958 90.7073 151.895C90.4593 151.832 90.1965 151.87 89.9761 152C89.758 152.132 89.6 152.344 89.5354 152.591C89.4708 152.838 89.5048 153.1 89.6301 153.322L94.3401 163.442Z" fill="#000001"/>
<path d="M98.4842 161.676C98.5573 161.922 98.7235 162.131 98.9475 162.256C99.1715 162.382 99.4358 162.416 99.6842 162.35C99.8066 162.316 99.9212 162.259 100.021 162.181C100.122 162.102 100.205 162.005 100.268 161.895C100.331 161.784 100.371 161.662 100.386 161.536C100.402 161.41 100.392 161.282 100.358 161.16L96.1942 150.58C96.1185 150.338 95.9534 150.133 95.7324 150.008C95.5114 149.883 95.251 149.846 95.0041 149.906C94.7567 149.974 94.5465 150.138 94.4198 150.361C94.293 150.584 94.2601 150.849 94.3282 151.096L98.4842 161.676Z" fill="#000001"/>
<path d="M81.5221 148.236C81.5973 148.479 81.7623 148.684 81.9833 148.809C82.2044 148.935 82.4649 148.972 82.7121 148.912C82.9591 148.843 83.1688 148.679 83.2952 148.456C83.4215 148.233 83.4542 147.969 83.3861 147.722C82.0434 144.366 80.7007 141.009 79.3581 137.65C79.2828 137.407 79.1179 137.202 78.8968 137.077C78.6758 136.951 78.4152 136.914 78.1681 136.974C77.921 137.043 77.7113 137.207 77.5849 137.43C77.4586 137.653 77.4259 137.917 77.4941 138.164C78.8367 141.521 80.1794 144.879 81.5221 148.236Z" fill="#000001"/>
<path d="M155.638 173.558C155.882 173.549 156.114 173.448 156.287 173.275C156.46 173.102 156.561 172.87 156.57 172.626C156.686 168.727 156.531 164.825 156.106 160.948C156.098 160.694 155.993 160.453 155.813 160.274C155.633 160.094 155.392 159.99 155.138 159.982C154.882 159.982 154.636 160.084 154.455 160.265C154.274 160.446 154.172 160.692 154.172 160.948C154.589 164.826 154.744 168.727 154.636 172.626C154.646 172.882 154.757 173.124 154.945 173.299C155.133 173.473 155.382 173.567 155.638 173.558V173.558Z" fill="#000001"/>
</svg>
