<svg width="400" height="401" viewBox="0 0 400 401" fill="none" xmlns="http://www.w3.org/2000/svg">
<path d="M285.228 135.494C285.228 135.494 325.478 117.402 326.288 117.042C327.258 116.612 326.418 115.188 325.454 115.616C323.01 116.7 290.074 131.494 285.684 133.484C285.668 133.916 285.646 134.348 285.638 134.78C285.638 134.924 285.6 135.066 285.528 135.191C285.456 135.316 285.353 135.421 285.228 135.494Z" fill="#000001"/>
<path d="M286.61 115.522C293.114 113.026 300.716 109.708 307.266 106.75C308.234 106.312 307.394 104.886 306.432 105.322C299.582 108.422 292.302 111.504 286.39 113.84C286.37 114.416 286.348 114.994 286.328 115.57C286.424 115.572 286.52 115.555 286.61 115.522Z" fill="#000001"/>
<path d="M286.61 127.878C294.654 124.712 312.642 116.914 320.064 113.678C321.036 113.252 320.194 111.828 319.23 112.25C312.196 115.328 286.154 126.25 285.938 126.45L285.89 127.772C285.985 127.86 286.105 127.917 286.234 127.936C286.362 127.955 286.493 127.935 286.61 127.878Z" fill="#000001"/>
<path d="M167.15 238.222C167.13 233.38 166.892 228.54 166.884 223.696L165.242 224.4C165.264 227.948 165.494 236.932 165.5 237.876C165.434 238.288 165.474 238.711 165.616 239.104C165.862 239.504 166.456 239.728 166.846 239.964C174.482 244.6 181.102 248.986 185.542 252.142C185.742 251.62 185.942 251.098 186.166 250.58C180.544 246.556 173.064 241.788 167.15 238.222Z" fill="#000001"/>
<path d="M281.87 51.9396C274.312 46.6716 262.834 52.3216 253.23 55.8016C242.536 59.6776 127.332 102.28 124.83 103.47C121.153 105.182 118.187 108.122 116.442 111.784C114.182 116.61 114.642 121.884 114.642 127.072V137.746C114.918 137.718 115.192 137.678 115.468 137.652C115.685 137.654 115.893 137.741 116.048 137.894C116.202 138.047 116.29 138.254 116.294 138.472C116.306 139.79 116.294 166.152 116.294 169.444C118.656 169.207 121.04 169.362 123.352 169.902C130.78 171.57 134.028 177.502 132.952 182.724C131.552 189.604 123.216 194.524 116.926 197.674V212.152C116.928 212.295 116.892 212.437 116.822 212.562C116.752 212.688 116.65 212.792 116.526 212.866C116.126 213.066 115.726 213.286 115.326 213.502V220.416C115.319 220.249 115.368 220.085 115.465 219.949C115.561 219.814 115.7 219.714 115.86 219.666C115.946 219.604 186.802 192.002 186.9 191.964C187.56 191.706 187.994 192.436 187.916 192.98C188.435 189.475 189.73 186.13 191.705 183.189C193.681 180.249 196.288 177.785 199.336 175.98C204.736 172.79 284.004 136.05 285.226 135.496C285.349 135.421 285.45 135.317 285.52 135.191C285.59 135.066 285.627 134.925 285.626 134.782C285.626 134.35 288.012 72.9816 287.964 67.8496C287.92 62.0336 286.978 55.4956 281.87 51.9396ZM276.142 90.9516C271.742 95.4736 267.126 99.7816 262.758 104.334C262.64 104.465 262.484 104.555 262.312 104.592C262.14 104.629 261.96 104.611 261.799 104.54C261.638 104.469 261.503 104.349 261.414 104.197C261.325 104.045 261.287 103.869 261.304 103.694V76.9396C261.309 76.7938 261.352 76.6518 261.428 76.5273C261.504 76.4028 261.611 76.3001 261.739 76.2291C261.866 76.1581 262.01 76.1212 262.156 76.122C262.302 76.1228 262.445 76.1613 262.572 76.2336C263.258 76.7096 265.59 79.0336 276.142 89.7816C276.294 89.9386 276.378 90.1484 276.378 90.3666C276.378 90.5849 276.294 90.7947 276.142 90.9516Z" fill="white"/>
<path d="M169.846 337.092C158.798 317.678 135.222 305.962 113.246 301.956C104.21 317.906 99.62 326.824 92.63 333.848C82.262 344.266 65.672 346.986 55.726 336.088C53.4686 333.391 51.9351 330.165 51.2703 326.712C50.6054 323.259 50.8311 319.693 51.926 316.352C53.926 309.22 58.726 303.332 63.926 298.244C68.1028 294.163 72.543 290.361 77.218 286.862C71.432 286.862 10.974 286.862 10.974 286.862C10.7555 286.859 10.547 286.77 10.3927 286.616C10.2384 286.461 10.1506 286.252 10.148 286.034C9.69799 303.162 10.318 319.718 10.656 349.614C10.6591 349.832 10.7471 350.04 10.9014 350.194C11.0556 350.349 11.2639 350.437 11.482 350.44H172.616C172.835 350.439 173.045 350.352 173.199 350.197C173.354 350.042 173.441 349.833 173.442 349.614C173.325 345.202 172.087 340.893 169.846 337.092Z" fill="#0B00C3"/>
<path d="M131.518 180.252C131.228 175.072 126 170.322 116.35 171.122C110.456 171.62 96.2199 176.22 88.1499 179.722C87.1819 180.142 86.3499 178.722 87.3159 178.296C96.6117 174.262 106.333 171.291 116.296 169.44C116.296 166.148 116.308 139.786 116.296 138.468C116.292 138.25 116.203 138.043 116.049 137.89C115.895 137.737 115.687 137.65 115.47 137.648C90.6631 140.119 67.3719 150.731 49.2299 167.83C28.9919 186.63 17.8299 210.03 13.7539 237.128C11.6199 251.328 10.1719 284.034 10.1539 286.034C10.1555 286.252 10.243 286.462 10.3975 286.617C10.552 286.772 10.7612 286.86 10.9799 286.862H77.2279C79.8479 284.89 82.0739 283.242 88.9879 278.738C87.9456 268.817 88.4503 258.795 90.4839 249.03C93.9019 234.368 103.184 219.504 116.524 212.866C116.648 212.792 116.75 212.688 116.82 212.562C116.89 212.437 116.926 212.295 116.924 212.152V197.674C103.848 204.694 105.264 203.518 94.9819 208.558C94.0299 209.024 93.1819 207.598 94.1479 207.13C97.3799 205.546 117.422 196.318 123.274 192.188C127.162 189.45 131.8 185.302 131.518 180.252ZM19.9579 254.106C19.2059 259.616 18.4546 265.127 17.7039 270.638C17.6753 270.742 17.6262 270.84 17.5595 270.926C17.4929 271.012 17.41 271.083 17.3156 271.137C17.2212 271.19 17.1172 271.225 17.0094 271.238C16.9017 271.251 16.7925 271.243 16.6879 271.214C16.4797 271.151 16.3037 271.01 16.1965 270.821C16.0892 270.632 16.0589 270.409 16.1119 270.198C16.8626 264.687 17.6133 259.176 18.3639 253.666C18.3926 253.561 18.4417 253.463 18.5083 253.377C18.575 253.292 18.6579 253.22 18.7523 253.167C18.8467 253.113 18.9507 253.079 19.0584 253.065C19.1661 253.052 19.2754 253.061 19.3799 253.09C19.5879 253.153 19.7638 253.294 19.8713 253.483C19.9788 253.671 20.0098 253.894 19.9579 254.106Z" fill="white"/>
<path d="M120.29 274.338C115.964 268.642 108.49 267.738 102.09 270.686C100.413 271.443 98.7982 272.334 97.262 273.348C84.312 281.984 75.448 286.994 63.944 298.244C58.744 303.332 53.926 309.22 51.944 316.352C50.8491 319.693 50.6235 323.259 51.2883 326.712C51.9532 330.165 53.4866 333.392 55.744 336.088C57.9924 338.542 60.7774 340.443 63.8818 341.643C66.9861 342.843 70.3257 343.309 73.64 343.006C88.906 341.616 97.19 330.112 104.806 316.826C107.352 312.384 115.954 297.206 117.3 294.826C120.71 288.792 125.238 280.854 120.29 274.338ZM100.316 279.866C104.662 273.572 114.172 275.938 114.942 281.528C115.159 283.286 114.87 285.07 114.108 286.67C113.347 288.269 112.145 289.619 110.644 290.56C109.152 291.362 107.426 291.617 105.765 291.28C104.104 290.944 102.614 290.036 101.552 288.716C99.544 286.288 98.4 282.652 100.316 279.866Z" fill="#000001"/>
<path d="M187.4 215.062C187.397 214.931 187.363 214.804 187.3 214.69C187.146 215.034 187.53 214.776 179.974 218.046C179.92 219.398 179.854 220.746 179.828 222.098C179.706 223.029 179.864 223.976 180.282 224.818C180.72 225.472 181.343 225.983 182.07 226.285C182.798 226.588 183.599 226.669 184.372 226.518C186.298 226.136 187.066 224.01 187.236 222.282C187.433 219.88 187.487 217.469 187.4 215.062Z" fill="#000001"/>
<path d="M114.942 281.522C114.176 275.954 104.686 273.534 100.316 279.86C98.392 282.646 99.544 286.282 101.552 288.71C102.613 290.031 104.104 290.938 105.765 291.275C107.425 291.612 109.152 291.357 110.644 290.554C112.145 289.613 113.347 288.263 114.108 286.664C114.87 285.064 115.159 283.28 114.942 281.522Z" fill="white"/>
<path d="M276.142 89.7817L262.714 76.3557C262.3 75.9557 261.374 75.9077 261.314 77.2217C261.248 78.9177 261.296 84.5157 261.296 103.694C261.279 103.869 261.318 104.045 261.406 104.197C261.495 104.349 261.63 104.469 261.791 104.54C261.952 104.611 262.132 104.629 262.304 104.592C262.476 104.555 262.632 104.465 262.75 104.334C267.118 99.7817 271.694 95.4317 276.134 90.9517C276.29 90.7975 276.379 90.5877 276.38 90.3684C276.382 90.149 276.296 89.938 276.142 89.7817Z" fill="#000001"/>
<path d="M186.902 191.964C186.804 192.002 115.948 219.604 115.862 219.666C115.703 219.714 115.564 219.814 115.468 219.95C115.371 220.086 115.322 220.249 115.328 220.416C115.466 227.168 115.03 229.386 115.826 232.944C116.078 234.385 116.653 235.751 117.509 236.939C118.364 238.127 119.477 239.105 120.764 239.802C124.836 241.712 129.014 239.802 132.82 238.214C137.688 236.186 186.354 215.302 186.98 215.014C187.102 214.939 187.204 214.834 187.274 214.709C187.344 214.584 187.38 214.443 187.38 214.3C187.638 201.414 187.236 198.46 187.908 192.982C187.986 192.434 187.562 191.706 186.902 191.964Z" fill="#0B00C3"/>
<path d="M311.532 212.366C308.276 209.846 304.247 208.533 300.132 208.65C301.154 213.768 301.332 219.862 298.384 224.194C295.918 227.824 290.602 229.95 286.74 227.13C285.181 225.799 283.927 224.147 283.064 222.288C282.316 220.631 281.297 219.111 280.048 217.79C279.168 219.281 278.717 220.987 278.743 222.719C278.77 224.45 279.273 226.141 280.198 227.606C281.872 230.131 284.231 232.128 286.998 233.364C290.247 234.861 293.778 235.65 297.355 235.679C300.932 235.708 304.475 234.976 307.748 233.532C316.842 229.54 320.966 219.816 311.532 212.366Z" fill="#0B00C3"/>
<path d="M225.506 175.892C225.532 176.092 233.226 198.218 233.362 198.396C242.38 192.084 251.854 184.996 262.198 182.956C237.706 177.474 229.952 175.67 227.358 175.166C226.342 174.97 225.236 174.89 225.506 175.892Z" fill="#EAEAEA"/>
<path d="M388.744 277.944C387.982 278.37 306.178 325.442 305.446 325.862C305.322 268.292 300.35 259.088 333.734 239.734C350.906 229.778 371.788 218.99 389.578 210.196C390.532 209.724 389.696 208.3 388.744 208.77C384.368 210.93 357.436 224.698 348.428 229.57C297.428 257.17 303.668 259.488 303.798 325.824C303.798 325.824 264.49 301.98 262.892 301.084C262.718 301.63 262.57 302.184 262.412 302.734C307.07 329.734 304.17 328.012 304.438 328.088C304.641 328.135 304.855 328.106 305.038 328.006L389.57 279.368C389.747 279.251 389.873 279.071 389.921 278.865C389.97 278.658 389.937 278.441 389.83 278.258C389.723 278.075 389.55 277.94 389.347 277.881C389.143 277.821 388.924 277.842 388.736 277.94L388.744 277.944Z" fill="#000001"/>
<path d="M62.446 117.084C62.2269 117.084 62.0168 117.171 61.8619 117.326C61.707 117.48 61.62 117.691 61.62 117.91C61.62 118.129 61.707 118.339 61.8619 118.494C62.0168 118.649 62.2269 118.736 62.446 118.736H96.186C96.4051 118.736 96.6152 118.649 96.7701 118.494C96.925 118.339 97.012 118.129 97.012 117.91C97.012 117.691 96.925 117.48 96.7701 117.326C96.6152 117.171 96.4051 117.084 96.186 117.084H62.446Z" fill="#000001"/>
<path d="M99.732 103.232L72.254 79.8996C71.454 79.2156 70.274 80.3796 71.086 81.0696L98.564 104.4C99.37 105.084 100.544 103.922 99.732 103.232Z" fill="#000001"/>
<path d="M107.964 63.1677V95.5017C107.964 95.7207 108.051 95.9308 108.206 96.0857C108.361 96.2407 108.571 96.3277 108.79 96.3277C109.009 96.3277 109.219 96.2407 109.374 96.0857C109.529 95.9308 109.616 95.7207 109.616 95.5017V63.1677C109.616 62.9486 109.529 62.7385 109.374 62.5836C109.219 62.4287 109.009 62.3417 108.79 62.3417C108.571 62.3417 108.361 62.4287 108.206 62.5836C108.051 62.7385 107.964 62.9486 107.964 63.1677Z" fill="#000001"/>
<path d="M326.288 183.648L301.232 171.048C301.1 170.992 300.958 170.964 300.815 170.964C300.672 170.964 300.53 170.992 300.398 171.048L275.938 183.35C282.654 185.006 288.674 188.742 293.138 194.026C300.292 197.626 299.476 197.292 300.376 197.668C301.176 198.002 302.352 197.118 303.058 196.762L326.292 185.078C326.415 185.003 326.517 184.898 326.588 184.773C326.658 184.647 326.695 184.506 326.695 184.362C326.694 184.218 326.657 184.076 326.585 183.951C326.514 183.826 326.412 183.721 326.288 183.648Z" fill="#0B00C3"/>
<path d="M389.578 183.648L364.522 171.048C364.39 170.992 364.248 170.964 364.105 170.964C363.962 170.964 363.82 170.992 363.688 171.048L338.632 183.648C338.509 183.722 338.407 183.827 338.337 183.952C338.266 184.077 338.229 184.218 338.229 184.362C338.229 184.505 338.266 184.647 338.337 184.772C338.407 184.897 338.509 185.001 338.632 185.076C341.478 186.506 362.664 197.25 363.664 197.676C364.464 198.01 365.64 197.126 366.344 196.77L389.578 185.086C389.704 185.013 389.809 184.908 389.882 184.782C389.955 184.656 389.993 184.512 389.993 184.367C389.993 184.221 389.955 184.078 389.882 183.951C389.809 183.825 389.704 183.72 389.578 183.648Z" fill="#0B00C3"/>
<path d="M326.288 152.692L301.232 140.092C301.1 140.035 300.958 140.006 300.815 140.006C300.672 140.006 300.53 140.035 300.398 140.092C297.57 141.512 276.38 152.17 275.34 152.692C275.217 152.766 275.115 152.871 275.045 152.996C274.974 153.121 274.937 153.262 274.937 153.406C274.937 153.549 274.974 153.69 275.045 153.816C275.115 153.941 275.217 154.045 275.34 154.12C278.186 155.552 299.372 166.294 300.372 166.72C301.172 167.054 302.348 166.17 303.054 165.816L326.288 154.122C326.411 154.048 326.514 153.943 326.585 153.817C326.655 153.692 326.693 153.551 326.693 153.407C326.693 153.263 326.655 153.121 326.585 152.996C326.514 152.871 326.411 152.766 326.288 152.692Z" fill="#0B00C3"/>
<path d="M294.742 168.29L269.684 155.69C269.552 155.634 269.41 155.606 269.267 155.606C269.124 155.606 268.982 155.634 268.85 155.69L243.794 168.29C243.671 168.364 243.569 168.469 243.499 168.594C243.428 168.719 243.391 168.86 243.391 169.004C243.391 169.147 243.428 169.288 243.499 169.414C243.569 169.539 243.671 169.643 243.794 169.718C246.64 171.148 267.826 181.892 268.826 182.306C269.626 182.642 270.802 181.758 271.508 181.402L294.742 169.722C294.866 169.648 294.969 169.543 295.041 169.418C295.113 169.292 295.15 169.15 295.15 169.006C295.15 168.861 295.113 168.719 295.041 168.594C294.969 168.468 294.866 168.363 294.742 168.29Z" fill="#0B00C3"/>
<path d="M357.38 168.29L332.322 155.69C332.19 155.634 332.048 155.606 331.905 155.606C331.762 155.606 331.62 155.634 331.488 155.69L306.432 168.29C306.309 168.364 306.207 168.469 306.137 168.594C306.066 168.719 306.029 168.86 306.029 169.004C306.029 169.147 306.066 169.288 306.137 169.414C306.207 169.539 306.309 169.643 306.432 169.718C309.278 171.148 330.464 181.892 331.464 182.306C332.264 182.642 333.44 181.758 334.144 181.402L357.38 169.722C357.504 169.648 357.606 169.543 357.678 169.417C357.749 169.292 357.786 169.15 357.786 169.006C357.786 168.861 357.749 168.719 357.678 168.594C357.606 168.469 357.504 168.364 357.38 168.29Z" fill="#0B00C3"/>
<path d="M357.38 200.338L332.322 187.738C332.19 187.682 332.048 187.654 331.905 187.654C331.762 187.654 331.62 187.682 331.488 187.738L306.432 200.338C306.309 200.412 306.207 200.516 306.137 200.641C306.066 200.766 306.029 200.907 306.029 201.051C306.029 201.194 306.066 201.335 306.137 201.46C306.207 201.585 306.309 201.69 306.432 201.764C309.278 203.196 330.464 213.938 331.464 214.364C332.264 214.7 333.44 213.814 334.144 213.46L357.38 201.774C357.505 201.7 357.609 201.595 357.681 201.469C357.754 201.343 357.792 201.201 357.792 201.056C357.792 200.91 357.754 200.768 357.681 200.642C357.609 200.516 357.505 200.411 357.38 200.338Z" fill="#0B00C3"/>
<path d="M288.578 260.288C290.228 257.369 291.18 254.109 291.359 250.761C291.538 247.413 290.94 244.07 289.612 240.992C285.492 231.488 272.896 227.27 262.97 232.348C263.907 228.091 265.682 224.063 268.192 220.5C270.946 216.588 276.792 214.4 280.05 217.79C281.297 219.112 282.316 220.632 283.066 222.288C283.929 224.147 285.183 225.799 286.742 227.13C290.604 229.95 295.92 227.824 298.386 224.194C302.986 217.428 301.442 200.63 289.526 190.364C285.817 187.161 281.435 184.833 276.704 183.553C271.974 182.272 267.017 182.07 262.198 182.964C253.536 184.662 245.844 189.748 238.598 194.764C214.398 211.51 196.258 224.852 185.548 252.148C172.548 285.272 176.994 316.306 179.81 349.62C179.815 349.837 179.903 350.045 180.057 350.199C180.211 350.353 180.418 350.441 180.636 350.446H259.364C259.582 350.441 259.789 350.353 259.943 350.199C260.097 350.045 260.185 349.837 260.19 349.62C260.45 338.22 257.248 321.308 262.418 302.744C263.878 297.5 266.968 290.092 270.682 286.256C271.893 284.852 273.523 283.874 275.332 283.468C275.804 283.363 276.294 283.372 276.762 283.494C277.23 283.616 277.662 283.847 278.023 284.169C278.384 284.49 278.664 284.892 278.839 285.343C279.015 285.793 279.081 286.279 279.032 286.76C278.896 289.032 278.032 291.272 279.098 293.442C279.61 294.445 280.356 295.309 281.274 295.962C282.191 296.615 283.253 297.037 284.368 297.192C289.584 297.992 294.08 293.716 296.182 289.392C298.463 284.6 299.344 279.262 298.724 273.992C298.75 270.916 297.774 267.915 295.944 265.442C294.113 262.97 291.528 261.161 288.578 260.288ZM220.8 224.738C222.86 221.719 225.98 219.586 229.54 218.762C230.576 218.522 231.016 220.12 229.978 220.362C226.832 221.067 224.066 222.929 222.228 225.578C221.624 226.444 220.2 225.618 220.8 224.738ZM240.84 257.338C241.541 255.591 242.684 254.055 244.157 252.882C245.629 251.709 247.38 250.938 249.24 250.644C250.282 250.486 250.728 252.088 249.68 252.244C248.095 252.461 246.593 253.086 245.322 254.057C244.051 255.028 243.053 256.312 242.426 257.784C242.024 258.742 240.438 258.322 240.838 257.334L240.84 257.338Z" fill="white"/>
<path d="M229.538 218.762C225.978 219.587 222.859 221.72 220.798 224.738C220.198 225.618 221.624 226.444 222.226 225.572C224.064 222.923 226.83 221.061 229.976 220.356C231.014 220.122 230.574 218.522 229.538 218.762Z" fill="white"/>
<path d="M249.246 250.64C247.386 250.934 245.635 251.705 244.163 252.878C242.69 254.051 241.547 255.587 240.846 257.334C240.446 258.318 242.032 258.734 242.446 257.774C243.073 256.302 244.071 255.018 245.342 254.047C246.613 253.076 248.115 252.451 249.7 252.234C250.734 252.084 250.288 250.482 249.246 250.64Z" fill="white"/>
<path d="M330.17 254.758C329.594 253.87 328.17 254.696 328.744 255.592L339.854 272.716C340.43 273.604 341.854 272.778 341.28 271.882L330.17 254.758Z" fill="#000001"/>
<path d="M351.382 264.752C352.256 265.362 353.084 263.93 352.216 263.324L334.944 251.276C334.07 250.676 333.244 252.098 334.11 252.704L351.382 264.752Z" fill="#000001"/>
<path d="M19.38 253.09C19.2755 253.061 19.1662 253.052 19.0585 253.066C18.9508 253.079 18.8467 253.113 18.7523 253.167C18.6579 253.22 18.575 253.292 18.5084 253.377C18.4417 253.463 18.3927 253.561 18.364 253.666C17.6147 259.175 16.864 264.686 16.112 270.198C16.0595 270.409 16.09 270.632 16.1972 270.821C16.3044 271.01 16.4801 271.15 16.688 271.214C16.7925 271.243 16.9019 271.251 17.0097 271.238C17.1175 271.225 17.2216 271.191 17.3161 271.137C17.4106 271.084 17.4935 271.012 17.5601 270.926C17.6266 270.841 17.6756 270.742 17.704 270.638C18.456 265.126 19.2073 259.615 19.958 254.106C20.0099 253.895 19.9789 253.672 19.8714 253.483C19.7639 253.294 19.588 253.153 19.38 253.09Z" fill="#0B00C3"/>
<path d="M123.72 170.006C118.152 168.486 113.862 169.706 108.52 171.098C101.274 172.945 94.1817 175.352 87.308 178.298C86.334 178.72 87.174 180.144 88.142 179.724C94.8555 176.848 101.787 174.512 108.872 172.738C114.396 171.298 117.848 170.23 123.384 171.602C125.248 171.996 126.969 172.889 128.366 174.184C129.763 175.479 130.782 177.129 131.316 178.958C132.598 184.342 127.846 189.004 123.328 192.2C121.072 193.719 118.698 195.057 116.23 196.2C104.172 202.706 103.808 202.4 94.15 207.136C93.194 207.604 94.032 209.03 94.984 208.564C103.26 204.508 107.996 202.66 116.644 197.838C119.088 196.476 126.736 193.408 131.244 186.866C135.268 181.006 133.094 172.564 123.72 170.006Z" fill="#000001"/>
<path d="M107.256 291.675C108.485 291.676 109.694 291.366 110.772 290.775C112.314 289.808 113.549 288.42 114.332 286.776C115.114 285.132 115.412 283.299 115.19 281.491C114.4 275.751 104.642 273.163 100.112 279.721C97.2 283.933 101 291.675 107.256 291.675ZM101.948 280.841C104.628 277.009 110.772 277.008 112.844 281.042C113.149 282.327 113.104 283.67 112.712 284.932C112.32 286.193 111.596 287.326 110.616 288.211C109.681 289.08 108.452 289.562 107.176 289.562C105.9 289.562 104.671 289.08 103.736 288.211C101.62 286.303 100.326 283.161 101.948 280.841Z" fill="#000001"/>
<path d="M262.938 104.508C267.294 99.9676 271.938 95.5696 276.32 91.1256C276.518 90.9219 276.628 90.6493 276.628 90.3656C276.628 90.0819 276.518 89.8093 276.32 89.6056L262.888 76.1736C262.736 76.0287 262.544 75.9311 262.338 75.8928C262.131 75.8545 261.917 75.8771 261.723 75.9578C261.529 76.0385 261.362 76.1738 261.243 76.3474C261.125 76.521 261.059 76.7253 261.054 76.9356C260.728 102.486 260.924 104.038 261.162 104.282C261.246 104.435 261.365 104.567 261.509 104.665C261.653 104.764 261.819 104.827 261.992 104.849C262.166 104.871 262.342 104.851 262.506 104.792C262.671 104.733 262.819 104.635 262.938 104.508ZM263.206 101.196V79.5376L274.036 90.3656L263.206 101.196Z" fill="#000001"/>
<path d="M388.624 277.722C387.884 278.134 311.742 321.948 305.694 325.426C305.612 290.852 304.37 277.478 308.012 265.914C310.102 259.35 314.177 253.597 319.674 249.448C334.674 237.614 376.074 217.142 389.69 210.416C390.938 209.798 389.89 207.924 388.634 208.542C384.234 210.716 357.362 224.45 348.31 229.342C297.366 256.922 303.396 258.672 303.546 325.372C299.588 322.972 266.266 302.76 263.192 300.96C264.754 296.116 267.568 289.808 270.864 286.4C272.037 285.046 273.61 284.1 275.356 283.7C275.791 283.598 276.245 283.602 276.678 283.712C277.112 283.821 277.513 284.033 277.847 284.329C278.182 284.626 278.441 284.998 278.603 285.415C278.764 285.831 278.824 286.281 278.776 286.726C278.638 289.034 277.758 291.282 278.868 293.526C279.398 294.564 280.17 295.46 281.12 296.137C282.07 296.813 283.169 297.25 284.324 297.412C289.604 298.212 294.194 294.012 296.4 289.484C298.702 284.656 299.592 279.275 298.968 273.964C299.003 270.886 298.047 267.88 296.242 265.388C294.436 262.896 291.877 261.051 288.942 260.126C290.537 257.193 291.447 253.937 291.603 250.602C291.759 247.267 291.157 243.94 289.842 240.872C285.782 231.502 273.442 227.044 263.33 231.872C264.284 227.833 266.004 224.015 268.398 220.626C270.98 216.956 276.548 214.702 279.742 217.826C278.878 219.345 278.446 221.072 278.491 222.819C278.537 224.567 279.058 226.269 280 227.742C281.699 230.307 284.093 232.335 286.902 233.59C290.185 235.097 293.749 235.891 297.361 235.92C300.973 235.949 304.55 235.213 307.856 233.76C313.434 231.312 318.504 225.396 316.908 219.244C316.291 217.352 315.25 215.626 313.864 214.198C313.188 213.473 312.463 212.795 311.694 212.17C308.454 209.65 304.448 208.318 300.344 208.396C299.32 203.433 297.173 198.772 294.066 194.77C296.898 196.198 298.25 196.892 298.974 197.266C300.652 198.13 300.832 198.328 302.7 197.248C303.264 196.918 322.75 187.148 326.424 185.29C326.669 185.143 326.846 184.905 326.917 184.628C326.987 184.351 326.945 184.058 326.8 183.812C326.692 183.484 326.898 183.674 301.338 170.812C301.173 170.741 300.995 170.705 300.816 170.705C300.637 170.705 300.459 170.741 300.294 170.812L275.918 183.072C274.157 182.639 272.364 182.35 270.556 182.21C278.538 178.07 291.284 171.764 294.878 169.92C295.04 169.823 295.173 169.685 295.266 169.521C295.358 169.356 295.406 169.171 295.404 168.982C295.403 168.793 295.352 168.608 295.257 168.446C295.161 168.283 295.025 168.148 294.862 168.054L269.79 155.454C269.625 155.383 269.448 155.347 269.269 155.347C269.09 155.347 268.913 155.383 268.748 155.454L243.674 168.064C243.512 168.16 243.378 168.297 243.286 168.462C243.194 168.626 243.146 168.812 243.148 169C243.149 169.189 243.2 169.373 243.295 169.536C243.391 169.699 243.527 169.834 243.69 169.928C244.354 170.262 264.842 180.624 267.89 182.128C265.983 182.144 264.082 182.334 262.21 182.696C226.042 174.602 226.33 174.522 225.778 174.868C225.583 174.956 225.425 175.109 225.332 175.301C225.238 175.493 225.214 175.712 225.264 175.92C225.3 176.182 232.16 195.824 233.074 198.292C225.723 203.33 218.652 208.766 211.894 214.576C200.59 224.238 191.738 236.443 186.062 250.188C181.142 246.682 174.204 242.188 167.408 238.078C167.396 235.762 167.15 226.278 167.142 223.856C171.334 222.054 175.522 220.246 179.706 218.43C179.654 219.676 179.598 220.876 179.578 222.062C179.449 223.053 179.621 224.06 180.072 224.952C180.537 225.648 181.199 226.191 181.973 226.512C182.747 226.832 183.599 226.916 184.42 226.752C186.904 226.26 187.394 223.216 187.484 222.296C188.048 216.554 187.32 199.73 188.174 193.002C188.661 189.526 189.932 186.206 191.889 183.293C193.846 180.38 196.439 177.949 199.472 176.184C201.432 175.028 203.548 174.02 205.594 173.046C206.452 172.646 325.614 117.61 326.394 117.26C327.674 116.694 326.618 114.816 325.356 115.376C323.034 116.408 291.574 130.538 285.956 133.08C285.992 132.122 286.132 128.154 286.132 128.154C286.325 128.202 286.528 128.183 286.708 128.1C294.296 125.114 311.308 117.762 320.168 113.888C321.452 113.33 320.404 111.448 319.134 112.004C315.648 113.53 287.282 125.54 286.208 126.026C286.608 114.846 286.504 115.826 286.704 115.746C292.148 113.658 299.104 110.704 307.376 106.968C308.642 106.392 307.6 104.51 306.336 105.084C299.852 108.018 292.706 111.058 286.66 113.456C286.696 112.456 288.27 71.9715 288.232 67.8335C288.182 62.7415 287.486 55.5315 282.02 51.7235C275.36 47.0855 265.652 50.7995 257.084 54.0795C255.75 54.5895 127.378 101.974 124.72 103.234C120.986 104.975 117.975 107.96 116.2 111.678C114.593 115.852 113.965 120.34 114.364 124.796C114.364 125.554 114.384 137.518 114.384 137.518C96.0392 139.645 78.474 146.15 63.1674 156.483C47.8608 166.816 35.2607 180.675 26.428 196.894C12.428 223.392 11.304 250.894 10.11 280.028C9.31004 299.466 10.03 315.41 10.414 349.616C10.4172 349.9 10.5319 350.172 10.7335 350.373C10.9351 350.574 11.2075 350.687 11.492 350.69H172.618C172.904 350.688 173.177 350.574 173.378 350.372C173.58 350.169 173.693 349.895 173.692 349.61C173.569 345.157 172.321 340.808 170.064 336.968C160.204 319.644 139.126 306.504 113.634 301.768C113.634 301.768 116.326 297.016 117.524 294.906C120.902 288.958 125.524 280.81 120.49 274.18C116.09 268.396 107.514 266.202 97.116 273.132C95.272 274.362 89.984 277.786 89.204 278.294C88.1866 268.536 88.7008 258.679 90.728 249.08C94.328 233.668 103.41 220.56 115.08 213.922C115.118 228.616 114.88 229.854 115.58 232.992C115.835 234.473 116.426 235.876 117.306 237.094C118.186 238.312 119.332 239.314 120.658 240.022C124.658 241.896 128.778 240.17 132.42 238.646C132.42 238.646 158.784 227.446 164.996 224.772C165.018 227.236 165.248 237.554 165.254 237.83C164.986 239.504 165.894 239.668 166.716 240.172C173.464 244.268 180.202 248.654 185.238 252.228C172.438 285.118 176.75 316.549 179.554 349.612C179.56 349.895 179.675 350.165 179.876 350.365C180.076 350.565 180.347 350.679 180.63 350.684H259.362C259.645 350.678 259.914 350.564 260.114 350.364C260.314 350.164 260.429 349.894 260.434 349.612C260.7 337.904 257.544 322.092 262.568 303.118C274.452 310.302 304.07 328.17 304.07 328.17C304.606 328.472 304.698 328.44 305.27 328.114C395.544 275.938 390.032 279.612 390.194 278.914C390.242 278.71 390.23 278.498 390.16 278.301C390.089 278.105 389.963 277.933 389.797 277.807C389.631 277.68 389.431 277.605 389.223 277.59C389.015 277.575 388.807 277.621 388.624 277.722ZM246.6 169.004L269.264 157.604L291.928 169.004L269.264 180.404L246.6 169.004ZM281.242 219.618C281.839 220.506 282.373 221.434 282.842 222.396C283.722 224.293 285.002 225.977 286.596 227.332C290.47 230.158 295.958 228.214 298.596 224.332C300.846 221.022 301.558 216.38 300.714 210.532C304.137 210.572 307.459 211.691 310.208 213.732C313.892 216.752 315.462 219.648 315.008 222.594C314.606 224.392 313.812 226.08 312.684 227.537C311.556 228.995 310.121 230.186 308.48 231.026C297.776 237.296 284.038 232.272 281.21 225.426C280.825 224.505 280.629 223.516 280.636 222.518C280.642 221.52 280.849 220.533 281.246 219.618H281.242ZM298.63 218.186C298.02 223.106 294.358 227.33 289.524 226.376C288.614 226.055 287.779 225.552 287.069 224.899C286.359 224.246 285.789 223.455 285.394 222.576C284.477 220.715 283.406 218.935 282.194 217.252C280.779 215.656 278.837 214.621 276.723 214.337C274.609 214.052 272.463 214.535 270.676 215.7C266.738 217.912 264.5 222.42 262.676 226.964C261.792 229.119 261.17 231.372 260.824 233.676C260.777 233.881 260.791 234.096 260.864 234.294C260.938 234.492 261.067 234.665 261.237 234.79C261.407 234.915 261.61 234.988 261.821 235C262.032 235.012 262.241 234.961 262.424 234.856C265.179 233.125 268.344 232.16 271.596 232.058C274.847 231.956 278.067 232.723 280.924 234.278C290.014 239.186 291.886 251.706 286.426 260.172C286.34 260.314 286.288 260.474 286.274 260.64C286.26 260.806 286.285 260.973 286.346 261.128C286.407 261.283 286.503 261.421 286.627 261.533C286.75 261.645 286.898 261.726 287.058 261.772C289.563 262.302 291.837 263.609 293.557 265.506C295.277 267.402 296.356 269.793 296.64 272.338C297.506 277.583 296.873 282.966 294.814 287.868C293.12 291.668 288.536 296.944 283.462 294.962C282.456 294.62 281.605 293.93 281.065 293.015C280.525 292.1 280.331 291.021 280.518 289.976C280.718 287.976 281.61 285.438 280.17 283.588C278.17 281.01 274.004 280.388 269.874 284.388C267.042 287.376 264.805 290.876 263.284 294.702C254.654 314.272 258.404 335.418 258.3 348.534H181.614C178.614 313.064 174.36 282.42 188.86 249.07C197.702 228.736 211.242 216.384 231.642 201.922C236.058 198.792 240.62 195.646 245.2 192.572C249.698 189.457 254.643 187.045 259.866 185.418C280.638 179.224 301.236 197.19 298.634 218.186H298.63ZM234.846 196.86C234.466 195.772 228.5 178.77 227.966 177.24L257.682 183.894C247.922 187.122 239.452 194.234 234.846 196.86ZM278.912 183.978L300.814 172.964L323.478 184.364L300.814 195.764L289.688 190.178C286.522 187.446 282.865 185.341 278.912 183.978ZM181.74 221.322C181.762 220.554 181.846 218.56 181.846 218.56L185.476 216.796C185.476 218.16 185.456 219.57 185.416 220.954C185.386 222.016 185.332 224.258 184.098 224.636C183.672 224.758 183.216 224.734 182.805 224.567C182.394 224.4 182.051 224.1 181.83 223.716C181.635 222.932 181.604 222.117 181.74 221.322ZM94.044 206.922C92.79 207.536 93.844 209.41 95.098 208.798C101.698 205.568 115 199.068 115.03 199.06V211.518C106.411 216.337 99.3984 223.584 94.866 232.358C87.752 245.402 85.38 259.99 87.174 279.648C84.162 281.626 82.092 283.016 79.374 284.974C76.126 284.974 12.524 284.92 12.094 284.922C12.45 272.692 13.382 254.442 14.85 242.84C18.59 213.312 28.85 190.964 47.148 172.508C65.0802 154.096 88.8537 142.488 114.4 139.672V169.482C105.09 171.481 95.9903 174.356 87.222 178.07C85.94 178.628 86.984 180.508 88.256 179.956C96.6797 176.373 105.425 173.601 114.374 171.676C120.392 170.276 128.146 171.918 130.656 177.71C132.626 182.254 130.116 187.06 123.196 191.998C119.32 194.758 101.944 203.036 94.044 206.906V206.922ZM117.244 218.79C117.26 212.02 117.39 204.952 117.232 197.99C119.613 196.795 121.92 195.459 124.142 193.99C126.998 192.157 129.479 189.797 131.452 187.036C132.366 185.725 132.979 184.229 133.249 182.655C133.519 181.08 133.439 179.466 133.014 177.926C132.589 176.386 131.829 174.959 130.79 173.746C129.751 172.533 128.457 171.564 127 170.908C123.722 169.44 120.121 168.841 116.544 169.168V120.35C116.402 115.99 117.965 111.748 120.9 108.522C124.974 104.196 129.328 103.06 261.288 54.8915C267.878 52.4915 275.34 49.7395 280.888 53.5695C285.288 56.6095 285.968 62.5355 286.06 67.3575C286.106 69.7575 284.004 127.296 283.754 134.078C268.754 140.878 212.728 166.932 199.61 173.658C196.111 175.472 193.078 178.068 190.746 181.246C188.415 184.423 186.847 188.096 186.166 191.978C88.78 229.922 137.054 211.16 117.238 218.774L117.244 218.79ZM98.244 274.99C101.494 272.565 105.384 271.146 109.432 270.91C115.102 270.91 120.492 275.056 120.584 280.898C120.668 286.098 118.198 289.434 104.726 313.116C98.086 324.79 91.246 336.878 77.726 340.436C67.774 343.058 57.39 338.436 54.088 329.906C52.904 326.759 52.5594 323.358 53.088 320.038C54.01 313.93 57.218 308.038 62.888 302.038C75.92 288.238 89.432 281.074 98.232 274.98L98.244 274.99ZM12.04 287.122H76.48C72.0161 290.503 67.7685 294.161 63.762 298.074C59.636 302.11 53.894 308.39 51.686 316.294C50.5812 319.676 50.3552 323.285 51.0294 326.779C51.7036 330.273 53.2559 333.539 55.54 336.268C57.819 338.744 60.637 340.664 63.7762 341.878C66.9154 343.091 70.2917 343.567 73.644 343.268C89.496 341.822 97.828 329.48 105.002 316.962C107.496 312.612 110.022 308.174 112.51 303.762C136.458 308.036 156.892 320.19 167.192 336.298C169.612 339.962 171.09 344.168 171.494 348.542C164.842 348.542 14.58 348.498 12.556 348.518C12.534 345.882 12 290.922 12.04 287.122ZM185.878 194.442C185.576 197.718 185.622 200.824 185.494 213.604C176.722 217.416 129.83 237.404 129.83 237.404C128.024 238.25 126.055 238.694 124.06 238.704C122.818 238.609 121.627 238.17 120.62 237.437C119.613 236.705 118.83 235.706 118.358 234.554C116.866 231.056 117.224 227.29 117.23 221.154C120.772 219.768 180.544 196.502 185.878 194.432V194.442Z" fill="#000001"/>
<path d="M62.446 118.985H96.2C96.4854 118.985 96.759 118.872 96.9608 118.67C97.1626 118.469 97.276 118.195 97.276 117.91C97.276 117.624 97.1626 117.35 96.9608 117.149C96.759 116.947 96.4854 116.833 96.2 116.833H62.436C62.1506 116.833 61.8769 116.947 61.6751 117.149C61.4733 117.35 61.36 117.624 61.36 117.91C61.36 118.195 61.4733 118.469 61.6751 118.67C61.8769 118.872 62.1506 118.985 62.436 118.985H62.446Z" fill="#000001"/>
<path d="M70.9241 81.2595C100.24 106.112 98.5241 104.86 99.1101 104.86C99.3267 104.875 99.5428 104.822 99.7284 104.71C99.914 104.597 100.06 104.429 100.146 104.23C100.232 104.03 100.254 103.809 100.209 103.596C100.164 103.384 100.054 103.191 99.8941 103.044L72.4161 79.7095C71.3521 78.8075 69.8641 80.3595 70.9241 81.2595Z" fill="#000001"/>
<path d="M108.788 96.5495H108.828C109.102 96.5385 109.361 96.4244 109.554 96.2299C109.747 96.0355 109.859 95.7753 109.868 95.5015V63.1595C109.856 62.8819 109.737 62.6196 109.537 62.4274C109.336 62.2352 109.069 62.1279 108.791 62.1279C108.513 62.1279 108.246 62.2352 108.045 62.4274C107.845 62.6196 107.726 62.8819 107.714 63.1595V95.5095C107.723 95.7882 107.841 96.0525 108.041 96.2465C108.241 96.4405 108.509 96.5491 108.788 96.5495Z" fill="#000001"/>
<path d="M338.52 185.298C339.17 185.626 362.788 197.572 363.568 197.898C364.348 198.224 365.27 197.662 365.984 197.25C366.598 196.894 388.784 185.762 389.708 185.292C389.869 185.195 390.003 185.057 390.095 184.893C390.187 184.729 390.234 184.543 390.232 184.355C390.231 184.167 390.18 183.982 390.085 183.82C389.991 183.657 389.855 183.522 389.692 183.428L364.62 170.816C364.455 170.745 364.277 170.709 364.098 170.709C363.919 170.709 363.741 170.745 363.576 170.816L338.502 183.426C338.339 183.522 338.204 183.66 338.111 183.825C338.018 183.99 337.97 184.177 337.972 184.367C337.974 184.556 338.025 184.742 338.121 184.905C338.218 185.069 338.355 185.204 338.52 185.298ZM341.442 184.362L364.106 172.962L386.77 184.362L364.106 195.762L341.442 184.362Z" fill="#000001"/>
<path d="M326.416 154.334C326.578 154.237 326.712 154.1 326.804 153.935C326.896 153.771 326.944 153.585 326.942 153.397C326.941 153.208 326.89 153.024 326.795 152.861C326.7 152.698 326.563 152.563 326.4 152.47L301.33 139.86C301.165 139.789 300.987 139.753 300.808 139.753C300.629 139.753 300.451 139.789 300.286 139.86L275.212 152.46C275.05 152.556 274.917 152.694 274.824 152.858C274.732 153.023 274.684 153.209 274.686 153.397C274.688 153.586 274.738 153.771 274.834 153.933C274.929 154.096 275.065 154.231 275.228 154.326C275.872 154.65 299.496 166.598 300.278 166.926C301.06 167.254 301.976 166.694 302.692 166.278C303.2 165.996 326.216 154.434 326.416 154.334ZM323.478 153.406L300.814 164.806L278.15 153.406L300.814 142.006L323.478 153.406Z" fill="#000001"/>
<path d="M306.312 169.936C306.312 169.936 330.592 182.216 331.37 182.536C332.148 182.856 333.068 182.302 333.784 181.886C334.43 181.512 356.398 170.498 357.508 169.93C357.753 169.783 357.93 169.545 358.001 169.268C358.071 168.991 358.029 168.698 357.884 168.452C357.776 168.126 358 168.322 332.42 155.452C332.255 155.381 332.077 155.345 331.898 155.345C331.719 155.345 331.541 155.381 331.376 155.452L306.304 168.062C306.14 168.157 306.004 168.294 305.91 168.459C305.815 168.624 305.766 168.811 305.767 169.001C305.768 169.191 305.819 169.377 305.914 169.541C306.01 169.705 306.147 169.841 306.312 169.936ZM309.242 169.004L331.906 157.604L354.57 169.004L331.906 180.404L309.242 169.004Z" fill="#000001"/>
<path d="M332.42 187.506C332.255 187.436 332.077 187.4 331.898 187.4C331.719 187.4 331.541 187.436 331.376 187.506L306.304 200.122C306.142 200.218 306.008 200.355 305.916 200.52C305.824 200.684 305.776 200.87 305.778 201.058C305.779 201.247 305.83 201.431 305.925 201.594C306.02 201.757 306.157 201.892 306.32 201.986C332.284 215.064 331.308 214.678 331.862 214.678C332.725 214.521 333.543 214.179 334.262 213.678L357.514 201.982C357.675 201.885 357.809 201.747 357.901 201.583C357.992 201.419 358.04 201.233 358.038 201.045C358.037 200.857 357.986 200.672 357.891 200.51C357.797 200.347 357.661 200.212 357.498 200.118L332.42 187.506ZM354.57 201.052L331.906 212.452L309.242 201.052L331.906 189.652L354.57 201.052Z" fill="#000001"/>
<path d="M229.482 218.522C225.859 219.358 222.685 221.529 220.592 224.602C219.804 225.752 221.642 226.866 222.43 225.72C224.23 223.119 226.943 221.291 230.03 220.602C231.382 220.294 230.854 218.208 229.482 218.522Z" fill="#000001"/>
<path d="M249.2 250.392C247.298 250.695 245.507 251.485 244 252.685C242.493 253.885 241.322 255.454 240.6 257.24C240.074 258.532 242.122 259.144 242.656 257.87C243.27 256.44 244.242 255.193 245.478 254.249C246.715 253.305 248.173 252.695 249.714 252.48C251.096 252.284 250.582 250.178 249.2 250.392Z" fill="#000001"/>
<path d="M328.534 255.722L339.644 272.846C340.396 274.004 342.254 272.918 341.49 271.74L330.38 254.616C329.628 253.464 327.766 254.544 328.534 255.722Z" fill="#000001"/>
<path d="M351.814 265.149C352.042 265.128 352.257 265.037 352.432 264.89C352.607 264.742 352.732 264.545 352.791 264.324C352.851 264.103 352.841 263.869 352.764 263.654C352.687 263.439 352.546 263.252 352.36 263.119L335.086 251.071C333.938 250.271 332.83 252.113 333.968 252.907C352.8 266.041 351.382 265.149 351.814 265.149Z" fill="#000001"/>
<path d="M19.45 252.848C19.3108 252.809 19.1651 252.798 19.0218 252.817C18.8784 252.836 18.7403 252.883 18.6157 252.957C18.4912 253.03 18.3827 253.128 18.2968 253.244C18.211 253.36 18.1495 253.493 18.116 253.634L15.868 270.14C15.8152 270.343 15.8229 270.557 15.8902 270.757C15.9575 270.956 16.0814 271.131 16.2468 271.261C16.4123 271.39 16.612 271.469 16.8214 271.487C17.0309 271.505 17.241 271.461 17.426 271.362C17.5558 271.288 17.6693 271.189 17.7597 271.07C17.8501 270.952 17.9155 270.816 17.952 270.672L20.2 254.164C20.2679 253.89 20.2279 253.6 20.0883 253.355C19.9487 253.11 19.7201 252.929 19.45 252.848Z" fill="#000001"/>
</svg>
