<svg width="400" height="401" viewBox="0 0 400 401" fill="none" xmlns="http://www.w3.org/2000/svg">
<path d="M86.342 119.024C85.5153 121.406 84.8406 123.838 84.322 126.306C84.0608 127.548 83.5352 128.719 82.7807 129.74C82.0263 130.761 81.0608 131.607 79.95 132.222C74.674 134.584 71.064 133.822 62.626 134.422C55.488 134.926 51.408 137.38 48.528 140.958C47.0524 142.773 46.2097 145.02 46.128 147.358C46.312 153.974 52.388 156.582 55.208 161.47C55.472 161.928 55.94 162.626 55.758 163.176C55.576 163.726 54.694 164.032 54.206 164.262C49.184 166.642 43.494 168.246 39.746 172.64C31.052 182.84 43.58 195.04 56.268 187.008C57.504 192.116 54.868 196.494 58.742 201.564C59.3954 202.429 60.301 203.07 61.3341 203.399C62.3671 203.728 63.4768 203.728 64.51 203.4C65.7925 202.85 66.9494 202.045 67.91 201.034C69.7435 199.337 71.4683 197.527 73.074 195.614C77.4 161.332 82.954 133.522 101.21 104.338C94.5951 107.206 89.2919 112.445 86.342 119.024V119.024Z" fill="#000001"/>
<path d="M170.864 107.336C170.369 105.241 169.314 103.321 167.812 101.78C163.382 97.8776 157.478 99.3016 151.684 100.006C144.068 107.106 138.249 115.915 134.706 125.706C142.632 124.061 150.813 124.083 158.73 125.772C162.383 124.948 165.718 123.081 168.33 120.398C171.688 116.866 172 111.922 170.864 107.336ZM150.264 113.754C150.415 112.133 150.886 110.558 151.65 109.12C152.414 107.682 153.455 106.41 154.714 105.378C155.482 104.841 156.35 104.464 157.266 104.268C158.182 104.072 159.128 104.062 160.048 104.238C166.906 105.514 168.794 114.826 164.062 118.974C162.896 119.993 161.493 120.703 159.981 121.037C158.469 121.372 156.897 121.32 155.41 120.888C153.883 120.437 152.548 119.492 151.616 118.201C150.684 116.909 150.207 115.345 150.26 113.754H150.264Z" fill="#000001"/>
<path d="M165.572 108.36C165.104 107.403 164.437 106.557 163.617 105.877C162.796 105.198 161.841 104.7 160.814 104.418C159.786 104.136 158.711 104.076 157.659 104.241C156.606 104.407 155.601 104.794 154.71 105.378C153.451 106.41 152.41 107.682 151.646 109.12C150.882 110.558 150.411 112.133 150.26 113.754C150.206 115.344 150.682 116.907 151.612 118.198C152.542 119.489 153.874 120.435 155.4 120.888C156.887 121.32 158.459 121.372 159.971 121.037C161.483 120.703 162.886 119.993 164.052 118.974C165.436 117.617 166.335 115.843 166.61 113.924C166.885 112.006 166.52 110.05 165.572 108.36V108.36Z" fill="white"/>
<path d="M189.946 300.536C188.686 285.608 188.247 270.622 188.632 255.646C190.978 206.982 192.41 197.118 192.508 195.772C192.552 195.146 192.308 196.372 191.728 196.372C185 196.46 132.234 196.608 73.848 196.372C73.643 196.372 73.4464 196.291 73.3007 196.147C73.155 196.002 73.0721 195.807 73.07 195.602C71.25 210.1 69.892 225.002 68.762 239.656C58.102 251.314 35.222 278.43 32.362 293.984C30.9769 300.361 31.4291 307.001 33.666 313.132C35.9974 318.741 40.0021 323.494 45.134 326.744C57.828 334.842 71.83 332.178 84.268 324.01C96.992 315.654 112.37 299.998 121.898 287.85C121.851 297.548 123.766 307.155 127.528 316.094C135.402 333.094 154.566 336.836 172.59 333.626C181.15 332.102 189.674 326.978 191.27 318.426C191.864 315.258 191.126 314.342 189.946 300.536ZM182.264 282.092C182.066 282.14 181.857 282.111 181.679 282.01C181.502 281.909 181.37 281.745 181.31 281.55C180.089 278.628 179.638 275.442 180 272.296C180.114 271.314 181.668 271.296 181.554 272.296C181.203 275.302 181.635 278.347 182.806 281.138C182.86 281.336 182.833 281.548 182.732 281.726C182.63 281.905 182.462 282.037 182.264 282.092V282.092ZM115.986 272.892C113.872 275.51 111.596 277.994 109.174 280.33C108.454 281.026 107.354 279.93 108.076 279.232C110.498 276.895 112.773 274.411 114.888 271.794C115.516 271.014 116.6 272.122 115.986 272.89V272.892ZM121.974 285.292C133.626 269.94 135.308 257.618 137.308 237.058C137.404 236.07 138.958 236.058 138.862 237.058C136.908 257.144 135.284 270.194 123.314 286.076C122.72 286.864 121.37 286.088 121.974 285.29V285.292Z" fill="#EAEAEA"/>
<path d="M221.16 128.752C221.16 128.752 200.684 108.322 198.11 105.702C198.031 105.62 197.97 105.521 197.933 105.414C197.895 105.306 197.882 105.191 197.894 105.078C197.906 104.964 197.942 104.855 198.001 104.757C198.06 104.659 198.139 104.575 198.234 104.512L198.184 104.528C186.95 110.786 175.544 118.638 169.47 129.966C159.544 124.086 145.628 123.376 134.706 125.706C138.19 116.426 143.626 108.003 150.647 101.005C157.667 94.0083 166.109 88.6004 175.4 85.1477L175.438 85.1236C175.306 85.1704 175.162 85.1717 175.029 85.1276C174.896 85.0834 174.782 84.9961 174.704 84.8797L153 63.1856C152.91 63.0921 152.845 62.9775 152.81 62.8523C152.776 62.727 152.774 62.5952 152.804 62.4688C152.833 62.3424 152.895 62.2256 152.981 62.1289C153.068 62.0323 153.178 61.959 153.3 61.9156L153.25 61.9257C136.884 68.5097 117.966 80.9257 108.024 94.3257C94.6652 112.567 85.1329 133.321 80 155.34C76.9795 168.629 74.6662 182.069 73.07 195.604C73.0721 195.809 73.155 196.004 73.3007 196.149C73.4464 196.293 73.643 196.374 73.848 196.374H191.728C191.932 196.368 192.125 196.284 192.269 196.14C192.414 195.997 192.497 195.803 192.504 195.6C193.078 190.05 193.77 184.512 194.676 179C195.233 174.073 196.387 169.232 198.114 164.584C207.302 139.368 221.758 129.394 222.204 128.784C222.057 128.908 221.869 128.974 221.676 128.968C221.483 128.962 221.299 128.885 221.16 128.752V128.752ZM133.622 129.722C129.258 137.593 127.029 146.47 127.158 155.47C127.158 155.675 127.076 155.873 126.931 156.018C126.785 156.164 126.588 156.246 126.382 156.246C126.176 156.246 125.979 156.164 125.833 156.018C125.688 155.873 125.606 155.675 125.606 155.47C125.406 146.188 127.711 137.025 132.28 128.944C132.389 128.776 132.558 128.657 132.753 128.611C132.947 128.565 133.152 128.595 133.325 128.696C133.497 128.797 133.625 128.96 133.68 129.152C133.735 129.344 133.714 129.55 133.622 129.728V129.722ZM141.052 74.3456C138.742 75.6157 136.612 77.1897 134.72 79.0257C134.002 79.7237 132.904 78.6257 133.622 77.9277C135.607 75.9973 137.843 74.3419 140.268 73.0057C141.146 72.5217 141.928 73.8697 141.052 74.3517V74.3456Z" fill="white"/>
<path d="M245.092 108.47C246.12 105.506 250.504 105.796 253.176 103.95C253.667 103.679 254.1 103.314 254.448 102.874C254.797 102.435 255.054 101.931 255.206 101.391C255.357 100.851 255.4 100.286 255.331 99.7298C255.262 99.1733 255.083 98.6361 254.804 98.1496C254.748 98.1108 254.705 98.0556 254.682 97.9916C254.13 97.4536 253.439 97.0811 252.686 96.9164C251.934 96.7516 251.15 96.8012 250.424 97.0596C248.41 97.4416 242.438 98.6376 241.456 98.7896C240.87 98.8816 239.994 99.0056 239.93 98.2196C239.682 95.1616 246.378 91.4196 244.444 86.6376C244.145 85.8779 243.599 85.2409 242.894 84.8289C242.19 84.4168 241.367 84.2536 240.558 84.3656C239.024 84.695 237.582 85.3611 236.336 86.3156C232.2 89.4116 231.924 91.6956 230.242 93.6556C229.464 94.5616 227.516 95.7456 226.642 94.2696C226.218 93.5556 226.642 92.6016 226.812 91.8696C227.278 89.9548 227.435 87.9779 227.278 86.0136C227.271 85.1557 227.065 84.3111 226.678 83.5456C226.239 82.9325 225.58 82.5119 224.839 82.3712C224.098 82.2304 223.332 82.3802 222.698 82.7896C221.28 83.6201 220.076 84.7708 219.182 86.1496C218.208 87.6114 217.394 89.1737 216.754 90.8096C215.462 94.1392 212.987 96.8756 209.804 98.4956C209.59 98.6056 198.638 104.142 198.238 104.518C198.143 104.581 198.064 104.665 198.005 104.763C197.946 104.861 197.91 104.97 197.898 105.084C197.886 105.197 197.899 105.312 197.937 105.42C197.974 105.527 198.035 105.626 198.114 105.708C200.688 108.326 221.164 128.758 221.164 128.758C221.312 128.898 221.509 128.976 221.713 128.976C221.917 128.976 222.114 128.898 222.262 128.758C227.488 124.427 233.638 121.352 240.238 119.77C244.698 118.77 250.638 119.254 253.038 116.78C253.369 116.43 253.622 116.014 253.782 115.56C253.942 115.106 254.006 114.624 253.968 114.144C253.93 113.664 253.793 113.197 253.563 112.774C253.334 112.35 253.019 111.98 252.638 111.686C249.628 109.224 244.6 110.836 245.092 108.47Z" fill="white"/>
<path d="M215.112 68.8696C213.892 65.5456 209.624 65.2436 206.424 64.4916C205.244 64.2992 204.109 63.8925 203.076 63.2916C202.829 63.1145 202.662 62.8468 202.612 62.547C202.562 62.2471 202.632 61.9396 202.808 61.6916C203.456 60.7796 207.986 59.6456 207.782 56.7196C207.578 53.7936 203.884 53.3196 201.61 53.4076C198.668 53.5296 195.836 54.5416 192.89 54.6076C190.406 54.6596 188.846 54.4076 183.634 54.7736C174.663 55.436 165.825 57.3201 157.364 60.3736C156.836 60.5736 153.52 61.7736 153.306 61.9196C153.184 61.963 153.074 62.0363 152.987 62.1329C152.901 62.2296 152.839 62.3464 152.81 62.4728C152.78 62.5992 152.782 62.731 152.816 62.8563C152.851 62.9815 152.916 63.0961 153.006 63.1896L174.698 84.8796C175.232 85.6796 175.854 84.6056 182.362 82.9416C183.006 82.7776 183.478 82.6116 184.062 83.0336C185.78 84.2756 184.578 86.3876 185.494 91.1776C185.602 92.3147 186.096 93.3804 186.894 94.1976C187.369 94.575 187.936 94.8177 188.537 94.9C189.138 94.9824 189.749 94.9014 190.308 94.6656C192.944 93.5716 193.38 90.5636 193.45 88.0656C193.512 85.8176 193.61 82.5496 196.434 82.0956C199.234 81.6456 201.676 83.8016 204.27 84.4156C205.297 84.7931 206.431 84.7505 207.427 84.2971C208.422 83.8437 209.199 83.016 209.588 81.9936C210.528 79.2976 208.724 76.8056 206.754 75.1596C205.51 74.2722 204.347 73.2778 203.276 72.1876C203.276 72.1876 203.29 72.1196 203.446 72.0636C203.939 71.9417 204.453 71.9417 204.946 72.0636C207.614 72.6771 210.404 72.4956 212.97 71.5416C214.024 71.0576 215.448 70.2496 215.112 68.8696Z" fill="white"/>
<path d="M198.738 348.522C189.042 335.172 165.324 335.466 149.614 340.722C144.068 342.59 138.767 345.118 133.824 348.252C133.681 348.341 133.57 348.474 133.508 348.631C133.447 348.789 133.438 348.961 133.483 349.124C133.528 349.287 133.625 349.431 133.758 349.534C133.892 349.637 134.055 349.695 134.224 349.698H198.068C198.185 349.702 198.302 349.677 198.406 349.624C198.511 349.572 198.601 349.494 198.668 349.398C198.73 349.345 198.782 349.28 198.819 349.208C198.856 349.135 198.879 349.056 198.885 348.974C198.892 348.893 198.882 348.811 198.857 348.733C198.831 348.656 198.791 348.584 198.738 348.522V348.522Z" fill="#000001"/>
<path d="M75.944 347.584C69.496 342.372 59.076 338.834 51.744 337.704C37.2252 335.772 22.5029 339.245 10.378 347.462L10.344 347.496C10.2262 347.576 10.1332 347.689 10.0754 347.819C10.0176 347.95 9.99734 348.094 10.0169 348.236C10.0364 348.377 10.0949 348.511 10.1859 348.621C10.2768 348.731 10.3967 348.814 10.532 348.86C10.772 348.936 8.108 349.732 75.396 348.91C75.5476 348.905 75.6947 348.857 75.8196 348.771C75.9444 348.685 76.0417 348.564 76.0996 348.424C76.1575 348.284 76.1737 348.13 76.146 347.981C76.1184 347.832 76.0483 347.694 75.944 347.584V347.584Z" fill="#000001"/>
<path d="M389.818 199.522C389.272 197.672 387.018 190.064 377.794 157.922C377.749 157.758 377.652 157.613 377.516 157.51C377.381 157.407 377.216 157.351 377.046 157.352H236C235.831 157.355 235.667 157.412 235.532 157.515C235.397 157.617 235.299 157.759 235.25 157.922C230.91 171.892 225.136 184.772 220.178 200.008C220.148 200.121 220.132 200.237 220.13 200.354C220.13 306.076 220.024 299.068 220.33 299.384C220.632 299.832 218.312 300.884 388.67 299.668C388.876 299.666 389.072 299.584 389.218 299.439C389.363 299.294 389.446 299.097 389.448 298.892C389.448 298.022 390.048 206.738 390.01 200.492C390.022 200.158 389.957 199.826 389.818 199.522V199.522ZM236.55 158.902H376.462L388.202 199.502C388.202 199.502 223.898 199.39 222.002 199.468C226.6 185.474 231.81 173.256 236.55 158.902ZM246.244 276.25V250.906H232.508C231.78 250.906 231.396 249.798 232.108 249.46C251.596 240.304 304.172 215.66 304.378 215.566C304.629 215.462 304.911 215.462 305.162 215.566L377.43 250.04C378.148 250.382 377.768 251.486 377.03 251.486H364.456V276.25C364.453 276.455 364.371 276.652 364.225 276.797C364.08 276.942 363.884 277.025 363.678 277.028H247.02C246.815 277.025 246.619 276.941 246.474 276.796C246.329 276.651 246.247 276.455 246.244 276.25V276.25Z" fill="white"/>
<path d="M373.708 186.362C371.959 179.386 370.166 172.42 368.33 165.466C368.285 165.302 368.187 165.157 368.052 165.054C367.917 164.95 367.752 164.894 367.582 164.894H244.692C244.523 164.897 244.359 164.955 244.224 165.057C244.089 165.16 243.99 165.303 243.942 165.466C241.984 172.412 239.796 179.296 238.048 186.3C238.024 186.402 238.02 186.509 238.037 186.613C238.054 186.717 238.092 186.817 238.147 186.907C238.203 186.996 238.276 187.074 238.362 187.135C238.448 187.196 238.545 187.24 238.648 187.264C239.63 187.486 371.918 187.352 372.954 187.346C373.074 187.345 373.192 187.317 373.299 187.264C373.406 187.211 373.499 187.133 373.572 187.038C373.645 186.943 373.695 186.833 373.719 186.716C373.742 186.598 373.739 186.477 373.708 186.362V186.362Z" fill="#EAEAEA"/>
<path d="M316.618 78.3476C313.147 75.3984 309.125 73.1669 304.786 71.7824C300.447 70.3979 295.876 69.8878 291.338 70.2816C283.608 71.1256 279.686 77.0296 284.446 83.1196C286.534 85.702 289.034 87.9219 291.846 89.6896C294.211 91.2705 296.706 92.6481 299.304 93.8076C303.883 95.8923 308.994 96.5139 313.94 95.5876C312.095 93.5996 309.989 91.8705 307.68 90.4476C306.828 89.9256 307.61 88.5836 308.464 89.1076C311.111 90.728 313.502 92.7348 315.556 95.0616C317.011 94.5139 318.298 93.5972 319.292 92.4016C323 87.9216 320.35 81.8516 316.618 78.3476Z" fill="#0B00C3"/>
<path opacity="0.7" d="M337 122.612C325.936 105.582 306.036 114.978 292.2 129.644C288.495 133.477 285.722 138.111 284.096 143.188C280.376 153.808 283.072 165.388 292.848 171.522C297.55 174.306 302.987 175.598 308.439 175.226C313.891 174.855 319.103 172.838 323.384 169.442C328.059 165.745 331.951 161.156 334.835 155.941C337.72 150.726 339.538 144.99 340.184 139.066C341.025 133.378 339.902 127.575 337 122.612Z" fill="#0B00C3"/>
<path d="M377.438 250.04C302.238 214.168 305.008 215.276 304.386 215.566C301.986 216.686 232.158 249.44 232.116 249.46C231.396 249.798 231.78 250.906 232.516 250.906H246.252V276.25C246.255 276.455 246.337 276.651 246.482 276.796C246.627 276.941 246.823 277.025 247.028 277.028H363.702C363.908 277.025 364.104 276.942 364.249 276.797C364.395 276.652 364.477 276.455 364.48 276.25V251.486H377.054C377.776 251.486 378.156 250.382 377.438 250.04Z" fill="#0B00C3"/>
<path d="M293.018 102.322C282.898 95.6156 267.672 102.506 265.132 113.122C264.363 115.965 264.459 118.974 265.407 121.763C266.355 124.552 268.113 126.996 270.456 128.782C275.468 132.222 281.468 133.927 287.54 133.636C291.672 133.279 295.5 131.319 298.206 128.176C303.954 121.28 302.3 108.48 293.018 102.322Z" fill="#0B00C3"/>
<path d="M253.06 326.348C262.956 328.306 300.494 331.612 339.712 329.858C343.912 329.67 353.778 329.138 357.95 328.67C359.185 328.535 360.411 328.325 361.62 328.04C362.491 327.89 363.311 327.523 364.002 326.972C364.273 326.725 364.435 326.382 364.454 326.016C364.472 325.65 364.345 325.292 364.1 325.02C363.487 324.462 362.727 324.091 361.91 323.952C359.341 323.483 356.739 323.22 354.128 323.166C336.168 322.782 316.776 321.268 267.152 323.22C262.403 323.377 257.672 323.897 253.002 324.776C251.664 324.545 250.368 324.117 249.156 323.506C247.556 322.684 247.256 321.82 249.602 320.466C251.926 319.32 254.421 318.559 256.988 318.21C282.478 314.546 324.374 313.906 361.77 319.084C361.968 319.132 362.178 319.104 362.356 319.003C362.534 318.902 362.666 318.737 362.726 318.542C362.781 318.343 362.754 318.13 362.652 317.951C362.55 317.772 362.381 317.64 362.182 317.586C331.874 313.503 301.216 312.673 270.732 315.11C265.32 315.544 249.836 316.342 246.81 320.852C245.626 322.616 247.036 324.222 248.64 324.982C251.172 326.182 250.202 324.702 246.576 327.234C245.817 327.756 245.292 328.554 245.112 329.458C245.074 329.901 245.129 330.346 245.272 330.767C245.416 331.188 245.645 331.574 245.946 331.902C247.709 333.657 249.925 334.89 252.346 335.464C253.856 335.956 255.396 336.35 256.946 336.696C254.258 337.296 250.812 338.11 248.964 340.132C248.664 340.418 248.434 340.769 248.293 341.159C248.151 341.549 248.102 341.966 248.148 342.378C248.252 342.795 248.439 343.187 248.697 343.531C248.956 343.875 249.281 344.163 249.654 344.378C251.938 345.69 254.448 346.561 257.054 346.946C265.723 348.577 274.516 349.47 283.336 349.616C307.418 350.516 335.426 350.928 359.096 348.888C360.084 348.802 360.096 347.248 359.096 347.334C335.496 349.368 309.576 348.934 285.652 348.134C276.24 347.82 261.084 347.2 252.172 343.934C251.271 343.671 250.459 343.164 249.828 342.47C249.496 341.976 249.76 341.526 250.152 341.124C252.045 339.617 254.31 338.649 256.708 338.324C258.15 337.992 259.608 337.724 261.074 337.506C291.292 342.296 321.967 343.541 352.474 341.216C353.964 341.102 364.656 340.616 362.698 337.11C362.259 336.496 361.624 336.051 360.898 335.848C359.896 335.488 358.86 335.231 357.806 335.078C355.088 334.678 352.348 334.438 349.606 334.306C331.862 333.458 316.256 332.854 292.168 333.778C285.168 334.048 267.994 334.932 261.108 335.936C258.668 335.525 256.252 334.979 253.872 334.3C251.439 333.809 249.174 332.7 247.294 331.08C244.8 328.444 250.6 326.892 253.06 326.348ZM269.098 324.682C312.626 322.818 346.898 324.532 353.11 324.682C355.146 324.73 361.05 324.9 362.774 325.966C360.127 326.879 357.353 327.371 354.554 327.426C331.472 328.626 313.652 329.778 282.2 327.752C274.8 327.276 264.254 326.372 257.856 325.536C261.582 325.04 265.356 324.842 269.098 324.682ZM347.356 335.742C349.444 335.854 359.956 336.256 361.334 337.854C360.343 338.462 359.232 338.85 358.078 338.992C355.505 339.392 352.917 339.67 350.314 339.828C322.413 341.791 294.383 340.798 266.692 336.864C293.525 334.688 320.473 334.313 347.356 335.742V335.742Z" fill="#EAEAEA"/>
<path d="M134.72 79.0316C136.612 77.1957 138.742 75.6216 141.052 74.3516C141.928 73.8696 141.146 72.5276 140.268 73.0116C137.843 74.3478 135.607 76.0033 133.622 77.9336C132.904 78.6316 134 79.7216 134.72 79.0316Z" fill="#000001"/>
<path d="M241.8 51.6796C250.717 51.084 259.67 51.9886 268.288 54.3556C268.483 54.3994 268.687 54.3665 268.859 54.2638C269.03 54.1611 269.155 53.9963 269.208 53.8038C269.262 53.6112 269.239 53.4056 269.144 53.2294C269.05 53.0533 268.892 52.9202 268.702 52.8576C259.98 50.2934 250.859 49.3658 241.8 50.1216C240.81 50.2036 240.8 51.7576 241.8 51.6796Z" fill="#000001"/>
<path d="M262.494 76.7496C267.191 77.8344 271.743 79.4746 276.052 81.6356C276.942 82.0836 277.73 80.7456 276.836 80.2956C272.409 78.0681 267.733 76.3749 262.906 75.2516C261.934 75.0256 261.518 76.5216 262.494 76.7496Z" fill="#000001"/>
<path d="M272.27 88.5636C275.499 89.8759 278.46 91.7677 281.008 94.1456C281.74 94.8276 282.84 93.7296 282.106 93.0476C279.357 90.4949 276.164 88.4674 272.684 87.0656C271.758 86.6916 271.356 88.1916 272.27 88.5636Z" fill="#000001"/>
<path d="M310.554 131.532C315.324 136.21 318.559 142.228 319.83 148.788C320.02 149.768 321.518 149.352 321.328 148.374C319.993 141.552 316.619 135.295 311.652 130.432C310.938 129.732 309.838 130.83 310.554 131.532Z" fill="#000001"/>
<path d="M308.474 89.1076C307.62 88.5836 306.838 89.9256 307.69 90.4476C311.99 93.1114 315.557 96.8073 318.066 101.2C318.175 101.367 318.344 101.486 318.539 101.533C318.733 101.579 318.938 101.548 319.111 101.447C319.283 101.346 319.411 101.183 319.466 100.991C319.521 100.799 319.5 100.593 319.408 100.416C316.776 95.7843 313.014 91.8943 308.474 89.1076V89.1076Z" fill="#000001"/>
<path d="M254.136 85.0896C252.105 77.6156 247.896 70.9152 242.044 65.8416C236.298 60.7776 228.822 56.4416 220.968 56.5136C218.055 56.5334 215.179 57.1703 212.529 58.3824C209.88 59.5945 207.518 61.3542 205.598 63.5456C199.468 71.1176 200.932 82.9456 203.968 92.1776C205.352 96.6437 207.356 100.893 209.922 104.802C230.448 131.838 260.784 110.356 254.136 85.0896Z" fill="#0B00C3"/>
<path d="M154.552 105.184C153.269 106.242 152.207 107.543 151.428 109.012C150.649 110.481 150.167 112.09 150.01 113.746C149.784 121.056 158.744 123.96 164.222 119.162C169.12 114.87 167.144 105.304 160.09 103.992C159.134 103.812 158.152 103.826 157.201 104.03C156.25 104.235 155.35 104.627 154.552 105.184V105.184ZM158.87 105.9C164.27 106 166.756 113.368 163.398 117.082C162.163 118.463 160.436 119.306 158.587 119.428C156.738 119.551 154.915 118.944 153.508 117.738C152.908 117.071 152.476 116.27 152.25 115.402C152.024 114.534 152.009 113.624 152.208 112.75C152.615 110.889 153.489 109.162 154.748 107.732C155.259 107.143 155.893 106.674 156.606 106.358C157.318 106.041 158.091 105.885 158.87 105.9V105.9Z" fill="#000001"/>
<path d="M234 121.994C238.266 120.285 242.786 119.298 247.376 119.072C249.497 118.995 251.54 118.252 253.214 116.948C253.546 116.603 253.806 116.196 253.978 115.749C254.15 115.303 254.23 114.826 254.214 114.348C254.146 111.618 251.312 110.164 248.64 109.896C250.051 108.336 251.264 106.608 252.252 104.752C255.778 103.124 256.508 99.6176 254.754 97.7236C255.638 93.5116 255.548 89.1533 254.49 84.9816C250.2 68.5136 233.758 56.1356 220.962 56.1356C217.873 56.1025 214.818 56.7813 212.033 58.1194C209.249 59.4575 206.81 61.4189 204.906 63.8516C204.301 63.6941 203.728 63.4365 203.208 63.0896C203.112 63.0207 203.03 62.9334 202.968 62.8328C202.906 62.7322 202.864 62.6202 202.846 62.5034C202.827 62.3865 202.832 62.2672 202.86 62.1522C202.888 62.0372 202.938 61.9289 203.008 61.8336C203.608 60.9936 208.248 59.8336 208.03 56.6996C207.784 53.1736 203.044 53.0996 201.598 53.1556C200.168 53.2503 198.747 53.4509 197.346 53.7556C195.156 54.267 192.905 54.4637 190.66 54.3396C167.848 53.8576 143.892 63.3876 125.128 77.5216C115.285 84.5692 107.07 93.6477 101.038 104.144C94.3878 107.04 89.0615 112.319 86.106 118.944C85.2762 121.336 84.5989 123.778 84.078 126.256C83.8257 127.46 83.3171 128.596 82.5869 129.586C81.8567 130.577 80.9219 131.398 79.846 131.996C77.3216 133.129 74.5891 133.725 71.822 133.746C62.792 134.334 54.406 133.256 48.332 140.798C46.8268 142.661 45.9652 144.962 45.876 147.356C46.062 154.046 52.208 156.756 54.99 161.588C55.908 163.188 55.736 163.248 54.172 163.988C49.372 166.272 43.408 167.944 39.554 172.466C30.732 182.81 43.304 195.188 56.098 187.392C57.118 192.268 54.698 196.69 58.542 201.704C60.65 204.458 64.542 204.932 68.078 201.204C69.7133 199.688 71.263 198.082 72.72 196.394C71.154 208.994 69.816 222.744 68.52 239.552C62.856 245.752 35.298 276.634 32.12 293.938C30.7183 300.362 31.1762 307.052 33.44 313.226C35.7809 318.888 39.8214 323.685 45.004 326.954C59.778 336.38 74.586 330.67 84.404 324.22C97.352 315.716 112.672 299.896 121.668 288.544C121.778 291.658 122.068 295.032 122.57 299.094C123.25 305.006 124.846 310.776 127.3 316.198C129.52 321.018 132.929 325.195 137.208 328.336C142.258 331.609 148.013 333.636 154 334.25C160.195 335.125 166.491 334.998 172.646 333.874C176.948 333.127 181.032 331.439 184.606 328.932C188.196 326.488 190.682 322.731 191.526 318.472C192.126 315.226 191.396 314.472 190.204 300.514C188.838 284.433 188.455 268.285 189.058 252.158C190.148 229.392 191.964 191.29 196.406 171.064C196.914 168.894 197.566 166.761 198.356 164.678C204.788 147.004 216.894 129.09 234 121.994ZM189.43 313.23C189.865 315.328 189.774 317.501 189.164 319.555C188.555 321.61 187.446 323.481 185.936 325.002C183.393 327.676 180.206 329.653 176.68 330.744C165.746 334.09 151.48 333.282 141.982 328.776C137.308 326.504 133.424 322.881 130.834 318.376C126.356 310.776 124.884 303.064 124.05 293.82C123.757 291.23 123.628 288.625 123.664 286.02C135.896 270.136 137.386 254.82 139.11 237.082C139.24 235.75 137.188 235.724 137.06 237.032C135.122 256.95 133.348 269.93 121.774 285.142C112.02 297.964 94.61 315.79 81.56 323.574C73.28 328.512 65.392 330.54 58.116 329.604C50.9951 328.818 44.4546 325.307 39.865 319.806C35.2753 314.306 32.9929 307.242 33.496 300.096C33.7213 293.913 35.5141 287.889 38.706 282.59C49.466 262.958 68.506 242.872 70.282 240.65C70.5238 240.207 70.6341 239.705 70.6 239.202C71.922 222.224 73.244 208.686 74.752 196.628C81.752 196.628 184.32 196.73 190.598 196.672C189.36 209.096 188.706 221.764 188.074 234.018C187.918 236.996 186.942 253.286 186.83 255.636C186.293 274.871 187.162 294.121 189.43 313.23V313.23ZM190.812 194.572C185.342 194.572 76.424 194.522 75.012 194.532C80.104 154.648 86.492 128.838 107.12 98.6936C111.635 92.0798 117.171 86.2238 123.52 81.3436C132.528 74.132 142.526 68.252 153.206 63.8836L173.364 84.0276C163.904 87.7595 155.358 93.4851 148.308 100.815C141.259 108.145 135.87 116.907 132.51 126.506C132.465 126.68 132.466 126.862 132.514 127.036C132.561 127.209 132.652 127.367 132.779 127.495C132.906 127.622 133.064 127.714 133.238 127.761C133.411 127.809 133.594 127.81 133.768 127.766C143.03 125.57 152.703 125.815 161.842 128.478C164.44 129.324 166.925 130.485 169.242 131.934C169.359 132.003 169.489 132.048 169.624 132.067C169.759 132.086 169.897 132.077 170.028 132.042C170.16 132.007 170.284 131.946 170.391 131.862C170.499 131.779 170.589 131.674 170.656 131.556C176.55 119.878 188.552 112.024 198.402 106.478L220.128 128.204C213.189 134.212 207.382 141.415 202.982 149.472C199.551 155.632 196.818 162.156 194.832 168.922C193.018 177.391 191.676 185.954 190.812 194.572V194.572ZM200.88 61.5876C200.744 62.107 200.75 62.6537 200.9 63.1696C201.049 63.6855 201.335 64.1513 201.728 64.5176C202.334 65.0116 203.027 65.3868 203.772 65.6236C201.288 70.4436 200.378 75.9215 201.172 81.2856C200.296 80.8826 199.379 80.5736 198.438 80.3636C197.223 80.0662 195.942 80.2103 194.824 80.7701C193.705 81.3299 192.822 82.2689 192.332 83.4196C191.865 84.7447 191.648 86.1452 191.692 87.5496C191.622 89.9076 191.492 92.5616 189.184 93.1236C188.298 93.2436 187.698 92.6956 187.4 91.4936C186.384 87.3996 187.456 86.2636 186.378 83.1216C186.124 82.5397 185.723 82.0336 185.216 81.6526C184.708 81.2715 184.11 81.0287 183.48 80.9476C182.853 80.9459 182.23 81.0529 181.64 81.2636C179.664 81.7776 177.78 82.3696 175.544 83.1816L155.4 63.0296C165.744 58.9334 176.726 56.6814 187.848 56.3756C190.739 56.5451 193.639 56.411 196.502 55.9756C199.788 55.3516 202.154 54.7536 204.788 55.5436C205.558 55.8336 206.27 56.6456 205.826 57.3436C203.944 59.5956 201.462 59.3936 200.88 61.5876V61.5876ZM169.124 107.812C169.734 109.692 169.875 111.693 169.536 113.641C169.196 115.589 168.386 117.424 167.176 118.988C164.07 122.52 159.454 123.822 154.988 124.846C148.375 123.882 141.647 124.06 135.094 125.37C138.341 116.586 143.443 108.604 150.052 101.97C155.22 101.592 161.224 99.5696 165.62 102.37C167.43 103.679 168.681 105.622 169.124 107.812V107.812ZM169.372 129.612C166.376 127.865 163.142 126.564 159.772 125.748C163.093 124.829 166.107 123.038 168.502 120.562C171.502 117.402 172.426 112.682 171.102 107.268C170.594 105.124 169.511 103.159 167.97 101.584C163.678 97.8016 158.022 98.9236 152.412 99.6536C160.924 91.7243 171.284 86.0483 182.548 83.1416C183.118 82.9936 183.462 82.9056 183.908 83.2276C185.488 84.3696 184.33 86.4476 185.238 91.1936C185.355 92.3998 185.882 93.5294 186.732 94.3936C187.242 94.7977 187.851 95.0576 188.496 95.1462C189.141 95.2348 189.798 95.149 190.398 94.8976C193.184 93.7396 193.622 90.6376 193.694 88.0636C193.756 85.8236 193.84 82.7556 196.468 82.3316C198.224 82.2453 199.965 82.687 201.468 83.5996C202.412 89.2222 204.142 94.6843 206.606 99.8256C192.518 106.976 176.92 115.766 169.372 129.62V129.612ZM220.896 58.3216C231.01 58.3216 244.358 66.3696 250.788 80.4496C261.898 104.78 235.236 128.138 214.97 108.068C211.262 104.485 208.468 100.064 206.824 95.1776C204.334 88.6616 200.768 76.4576 204.852 67.9036C206.337 64.9447 208.635 62.4711 211.477 60.7737C214.319 59.0763 217.587 58.2256 220.896 58.3216ZM207.546 101.644C208.145 102.82 208.835 103.949 209.61 105.018C213.595 110.764 219.412 114.988 226.11 117C229.717 117.904 233.493 117.9 237.098 116.987C240.703 116.075 244.026 114.282 246.768 111.77C248.484 111.689 250.178 112.182 251.584 113.17C251.867 113.411 252.063 113.739 252.141 114.103C252.22 114.467 252.178 114.846 252.02 115.184C251.553 115.766 250.904 116.174 250.176 116.342C245.376 117.942 241.916 116.59 233.7 119.92C229.428 121.66 225.424 123.996 221.806 126.858L200.36 105.402C202.504 104.232 204.86 103 207.546 101.644ZM57.712 185.522C57.6683 185.37 57.5902 185.23 57.4839 185.113C57.3776 184.996 57.2458 184.905 57.0987 184.847C56.9516 184.789 56.7932 184.765 56.6357 184.778C56.4781 184.791 56.3256 184.84 56.19 184.922C44.722 192.872 33.934 182.608 40.842 174.122C46.058 167.722 56.59 166.922 57.526 163.554C58.194 161.154 54.126 156.978 52.342 155.224C50.6146 153.717 49.2476 151.841 48.342 149.736C48.0078 148.721 47.89 147.648 47.9961 146.585C48.1022 145.523 48.4299 144.494 48.958 143.566C50.1022 141.553 51.7609 139.882 53.764 138.722C58.04 136.266 62.63 136.148 67.49 136.022C73.862 135.856 80.97 135.668 84.452 130.59C85.7113 128.312 86.5392 125.822 86.894 123.244C87.7507 119.959 89.2596 116.88 91.3308 114.191C93.402 111.502 95.9932 109.257 98.95 107.59C82.678 135.068 77.4 160.494 73.2 192.748C70.7493 195.762 68.0309 198.549 65.078 201.074C64.7195 201.372 64.3032 201.593 63.8552 201.723C63.4072 201.852 62.9372 201.888 62.4747 201.827C62.0123 201.767 61.5674 201.611 61.168 201.37C60.7687 201.129 60.4234 200.808 60.154 200.428C56.548 195.876 59.704 191.02 57.712 185.522Z" fill="#000001"/>
<path d="M149.536 340.468C143.971 342.344 138.651 344.881 133.69 348.024C133.501 348.142 133.356 348.318 133.275 348.525C133.195 348.732 133.183 348.96 133.242 349.174C133.301 349.389 133.428 349.579 133.603 349.715C133.779 349.852 133.994 349.929 134.216 349.934H198.086C198.269 349.934 198.448 349.884 198.605 349.791C198.761 349.698 198.89 349.564 198.978 349.404C199.065 349.244 199.108 349.063 199.101 348.881C199.094 348.698 199.039 348.521 198.94 348.368C189.676 335.612 166.572 334.778 149.536 340.468ZM137.956 347.88C154.988 338.154 174.02 337.236 186.576 341.776C190.117 343.054 193.308 345.144 195.894 347.88H137.956Z" fill="#000001"/>
<path d="M64.648 341.03C60.4936 339.399 56.1821 338.202 51.782 337.456C37.1813 335.479 22.3661 338.985 10.2 347.296C10.0328 347.412 9.90443 347.576 9.83141 347.766C9.7584 347.956 9.74412 348.164 9.79043 348.363C9.83674 348.561 9.94151 348.741 10.0912 348.879C10.2409 349.017 10.4286 349.107 10.63 349.138C12.43 349.906 75.202 349.162 75.402 349.158C75.6052 349.154 75.8028 349.09 75.9699 348.975C76.1371 348.859 76.2664 348.696 76.3416 348.508C76.4167 348.319 76.4345 348.112 76.3926 347.913C76.3507 347.714 76.251 347.532 76.106 347.39C72.6564 344.663 68.7866 342.515 64.648 341.03V341.03ZM72.318 347.106H14.102C24.6743 340.887 36.9193 338.11 49.14 339.162C57.3287 340.194 65.218 342.897 72.318 347.106V347.106Z" fill="#000001"/>
<path d="M390.232 200.17C390.262 199.9 390.398 200.938 378.032 157.85C377.971 157.632 377.84 157.441 377.659 157.306C377.478 157.17 377.258 157.098 377.032 157.1H334.588C338.049 151.144 340.129 144.488 340.676 137.622C341.147 133.867 340.686 130.055 339.336 126.52C337.985 122.986 335.786 119.838 332.932 117.354C330.682 115.434 327.996 114.095 325.109 113.454C322.221 112.813 319.221 112.889 316.37 113.676C311.015 115.02 305.995 117.455 301.624 120.828C302.113 117.229 301.578 113.565 300.08 110.257C298.582 106.948 296.183 104.129 293.156 102.122C281.394 94.3217 261.956 104.354 264.692 119.964C266.234 128.764 274.626 131.982 279.492 133.116C282.361 133.819 285.323 134.06 288.268 133.83C288.142 134.014 288.03 134.188 287.922 134.358C284.488 139.852 280.79 148.234 282.556 157.102H235.988C235.766 157.106 235.552 157.181 235.375 157.315C235.198 157.449 235.068 157.635 235.004 157.848C230.488 172.386 219.756 198.14 219.912 200.484C220.06 202.752 220.454 216.554 219.872 298.884C219.872 299.982 221.136 300.04 221.554 300.06C221.554 300.06 369.452 300.06 388.658 299.912C388.929 299.909 389.187 299.8 389.379 299.608C389.57 299.417 389.679 299.158 389.682 298.888C389.688 297.922 390.316 203.49 390.232 200.17ZM371.644 185.542L240.148 185.478C240.988 182.438 244.582 169.934 245.472 166.698H286.942C295.512 177.602 313.85 179.734 327.17 166.698H366.77C367.578 169.942 370.886 182.482 371.644 185.542V185.542ZM319.568 169.942C300.23 181.56 275.464 164.88 287.152 140.04C288.29 137.556 289.703 135.207 291.366 133.04C293.548 132.382 295.544 131.218 297.191 129.642C298.838 128.066 300.089 126.123 300.842 123.972C308.486 117.758 319.592 112.548 327.902 116.508C330.817 118.006 333.312 120.208 335.163 122.913C337.014 125.618 338.161 128.742 338.502 132.002C339.866 144.252 333.152 161.786 319.568 169.946V169.942ZM244.688 164.64C244.465 164.643 244.249 164.718 244.071 164.853C243.894 164.989 243.764 165.177 243.702 165.392C241.776 172.224 239.552 179.236 237.806 186.234C237.77 186.385 237.768 186.542 237.8 186.694C237.833 186.846 237.898 186.989 237.992 187.113C238.086 187.237 238.207 187.338 238.345 187.41C238.483 187.482 238.635 187.522 238.79 187.528C247.416 187.728 371.968 187.598 372.962 187.592C373.098 187.59 373.233 187.562 373.358 187.508C373.483 187.454 373.597 187.376 373.692 187.278C373.787 187.18 373.862 187.065 373.912 186.938C373.962 186.811 373.986 186.676 373.984 186.54C373.984 186.07 369.296 168.14 368.572 165.396C368.511 165.178 368.38 164.985 368.2 164.849C368.019 164.712 367.798 164.639 367.572 164.64H329.164C330.708 162.929 332.106 161.092 333.344 159.148H376.274L387.874 199.242C380.254 199.242 224.456 199.186 222.346 199.202C226.872 185.532 232.084 173.202 236.734 159.148H283.058C283.627 161.08 284.454 162.927 285.514 164.64H244.688ZM388.2 201.322C388.2 217.282 387.632 286.218 387.624 297.86H221.926V201.3C231.412 201.306 380.838 201.418 388.2 201.322ZM288.372 131.742C283.325 132.194 278.255 131.177 273.772 128.814C272.15 128.019 270.707 126.9 269.534 125.526C268.361 124.152 267.482 122.552 266.952 120.825C266.421 119.098 266.25 117.281 266.449 115.486C266.649 113.69 267.214 111.954 268.11 110.386C272.194 102.864 282.692 99.2237 290.154 102.81C302.4 108.688 304.158 128.632 288.372 131.742Z" fill="#000001"/>
<path d="M291.72 89.8997C294.488 91.7796 297.456 93.3465 300.57 94.5717C304.794 96.2367 309.4 96.685 313.866 95.8657C315.378 97.5453 316.714 99.3755 317.852 101.328C317.996 101.548 318.22 101.705 318.476 101.766C318.733 101.827 319.003 101.786 319.23 101.654C319.458 101.521 319.626 101.306 319.7 101.053C319.773 100.8 319.747 100.528 319.626 100.294C318.599 98.4586 317.38 96.7383 315.988 95.1617C317.349 94.5902 318.552 93.6982 319.494 92.5617C323.094 88.1617 320.866 81.9957 316.79 78.1617C313.289 75.193 309.236 72.9461 304.863 71.5504C300.491 70.1548 295.885 69.638 291.312 70.0297C283.388 70.8937 279.366 77.0197 284.248 83.2697C286.353 85.8794 288.878 88.1201 291.72 89.8997V89.8997ZM313.44 78.0097C315.735 79.6065 317.544 81.8069 318.666 84.3677C319.069 85.2366 319.281 86.1819 319.287 87.1398C319.293 88.0976 319.093 89.0456 318.701 89.9195C318.309 90.7934 317.733 91.5728 317.014 92.205C316.294 92.8372 315.447 93.3073 314.53 93.5837C312.749 91.7892 310.76 90.2146 308.604 88.8937C308.371 88.7717 308.099 88.744 307.846 88.8162C307.593 88.8885 307.377 89.0553 307.243 89.2821C307.109 89.5089 307.067 89.7785 307.126 90.0352C307.185 90.2919 307.34 90.5162 307.56 90.6617C309.187 91.6636 310.713 92.8224 312.114 94.1217C308.394 94.4542 304.646 93.9386 301.154 92.6137C296.122 90.8037 284.27 83.6257 284.154 77.9317C284.1 75.3097 286.592 73.3317 288.93 72.6137C294.67 70.8337 305.4 72.3677 313.44 78.0097V78.0097Z" fill="#000001"/>
<path d="M304.28 215.34C301.746 216.52 232.294 249.1 232.01 249.232C231.815 249.345 231.663 249.518 231.576 249.726C231.49 249.934 231.473 250.164 231.53 250.382C231.586 250.6 231.712 250.794 231.889 250.934C232.065 251.073 232.283 251.151 232.508 251.156H246V276.254C246.003 276.525 246.112 276.784 246.304 276.975C246.496 277.166 246.755 277.275 247.026 277.278H363.704C363.975 277.275 364.235 277.165 364.426 276.973C364.618 276.781 364.726 276.521 364.728 276.25V251.736H377.052C377.277 251.732 377.496 251.655 377.673 251.516C377.85 251.377 377.977 251.183 378.034 250.965C378.091 250.747 378.074 250.516 377.987 250.308C377.9 250.1 377.747 249.926 377.552 249.814C300.758 213.188 304.854 214.982 304.28 215.34ZM362.668 250.71V275.224H248.048V250.122C248.045 249.85 247.935 249.591 247.743 249.4C247.551 249.208 247.291 249.1 247.02 249.098H237.11C237.11 249.098 302.092 218.66 304.78 217.368L372.514 249.68H363.692C363.42 249.682 363.16 249.792 362.969 249.985C362.777 250.177 362.669 250.438 362.668 250.71V250.71Z" fill="#000001"/>
<path d="M361.956 323.706C356.924 322.788 354.874 322.982 343.256 322.596C327.148 322.062 307.1 321.396 267.142 322.97C262.395 323.126 257.668 323.644 253 324.522C251.703 324.294 250.447 323.877 249.272 323.284C247.82 322.538 247.596 321.912 249.714 320.684C252.015 319.551 254.483 318.797 257.024 318.452C281.052 314.998 322.748 313.928 361.712 319.32C361.973 319.385 362.249 319.347 362.483 319.213C362.716 319.08 362.889 318.862 362.966 318.604C363.003 318.471 363.014 318.332 362.996 318.195C362.978 318.059 362.933 317.927 362.863 317.808C362.793 317.689 362.7 317.586 362.589 317.504C362.478 317.422 362.352 317.363 362.218 317.332C331.417 313.21 300.261 312.416 269.29 314.964C262.854 315.444 249.462 316.444 246.602 320.708C246.383 321.004 246.233 321.345 246.164 321.707C246.095 322.069 246.108 322.442 246.202 322.798C246.474 323.455 246.892 324.043 247.425 324.515C247.957 324.987 248.59 325.332 249.276 325.524C248.259 325.88 247.3 326.385 246.43 327.022C245.613 327.585 245.05 328.447 244.862 329.422C244.821 329.897 244.878 330.375 245.031 330.827C245.184 331.278 245.429 331.693 245.75 332.046C247.545 333.84 249.803 335.101 252.272 335.688C253.352 336.04 254.524 336.366 255.834 336.688C253.224 337.075 250.781 338.205 248.796 339.944C248.462 340.262 248.21 340.656 248.061 341.093C247.912 341.53 247.872 341.997 247.942 342.453C248.013 342.909 248.193 343.341 248.467 343.713C248.741 344.084 249.101 344.384 249.516 344.586C251.827 345.915 254.368 346.797 257.006 347.186C265.69 348.824 274.498 349.72 283.334 349.862C307.164 350.752 335.496 351.17 359.124 349.132C360.168 349.042 360.778 347.152 358.886 347.11C355.34 347.032 341.358 349.746 285.668 347.89C277.82 347.628 261.488 347.09 252.25 343.69C251.262 343.402 250.176 342.782 250.012 342.156C249.983 341.996 249.998 341.832 250.056 341.68C250.113 341.529 250.211 341.396 250.338 341.296C252.199 339.824 254.421 338.88 256.772 338.564C258.118 338.254 259.528 337.99 261.08 337.764C291.308 342.508 321.983 343.751 352.496 341.47C353.896 341.368 361.712 341.022 363 338.656C363.692 337.388 362.372 336.004 360.98 335.616C359.961 335.253 358.91 334.991 357.84 334.834C355.268 334.456 352.578 334.202 349.614 334.06C331.65 333.2 316.014 332.618 292.156 333.532C284.956 333.808 267.922 334.7 261.106 335.686C258.688 335.278 256.295 334.735 253.938 334.062C251.549 333.578 249.323 332.494 247.47 330.912C247.267 330.75 247.113 330.535 247.025 330.29C246.937 330.046 246.918 329.782 246.972 329.528C247.304 328.452 249.522 327.386 253.06 326.6C264.076 328.764 302.35 331.774 339.722 330.104C343.882 329.918 353.82 329.382 357.976 328.914C360.153 328.847 362.279 328.242 364.166 327.154C364.325 327.008 364.454 326.833 364.545 326.637C364.636 326.442 364.688 326.23 364.697 326.015C364.707 325.799 364.674 325.584 364.6 325.382C364.527 325.179 364.414 324.993 364.268 324.834C363.621 324.245 362.819 323.853 361.956 323.706V323.706ZM269.108 324.932C309.922 323.182 338.784 324.596 353.108 324.932C356.169 324.817 359.229 325.162 362.188 325.956C359.705 326.694 357.136 327.104 354.546 327.176C327.642 328.576 311.958 329.418 282.22 327.504C275.716 327.084 266.42 326.304 259.944 325.542C263.06 325.21 266.162 325.058 269.108 324.932ZM268.846 336.932C295.151 334.93 321.558 334.626 347.902 336.022C355.372 336.396 359.752 337 360.942 337.842C359.16 338.964 352.416 339.458 350.3 339.58C323.129 341.479 295.835 340.589 268.846 336.922V336.932Z" fill="#000001"/>
<path d="M134.894 79.2116C136.769 77.3908 138.881 75.8302 141.172 74.5716C141.394 74.4289 141.553 74.2063 141.615 73.9499C141.678 73.6935 141.639 73.4229 141.507 73.1941C141.376 72.9653 141.161 72.7959 140.908 72.721C140.655 72.6461 140.383 72.6713 140.148 72.7916C137.703 74.1394 135.449 75.8089 133.448 77.7556C132.492 78.6796 133.938 80.1396 134.894 79.2116Z" fill="#000001"/>
<path d="M133.424 128.456C133.193 128.333 132.924 128.302 132.671 128.37C132.418 128.438 132.201 128.6 132.062 128.822C127.471 136.944 125.154 146.154 125.356 155.482C125.362 155.749 125.473 156.003 125.664 156.19C125.856 156.377 126.113 156.482 126.38 156.482C126.647 156.48 126.904 156.375 127.096 156.188C127.288 156.002 127.4 155.749 127.41 155.482C127.284 146.523 129.501 137.688 133.84 129.85C133.905 129.731 133.946 129.601 133.96 129.466C133.974 129.332 133.961 129.196 133.923 129.066C133.884 128.936 133.82 128.816 133.734 128.711C133.649 128.606 133.543 128.519 133.424 128.456Z" fill="#000001"/>
<path d="M115.524 271.286C114.438 271.108 114.524 272.664 107.902 279.05C106.944 279.976 108.388 281.432 109.346 280.51C111.776 278.165 114.058 275.672 116.18 273.046C116.296 272.897 116.372 272.722 116.401 272.535C116.43 272.349 116.41 272.159 116.344 271.982C116.279 271.806 116.169 271.649 116.025 271.527C115.881 271.405 115.709 271.322 115.524 271.286Z" fill="#000001"/>
<path d="M181.8 272.322C181.956 270.994 179.9 270.962 179.75 272.266C179.385 275.445 179.838 278.666 181.066 281.622C181.144 281.879 181.318 282.096 181.553 282.229C181.787 282.361 182.063 282.398 182.324 282.332C182.457 282.296 182.581 282.233 182.69 282.148C182.798 282.063 182.888 281.957 182.954 281.836C183.021 281.715 183.062 281.582 183.076 281.445C183.089 281.308 183.075 281.169 183.034 281.038C181.881 278.286 181.456 275.285 181.8 272.322V272.322Z" fill="#000001"/>
<path d="M241.82 51.9216C250.707 51.331 259.631 52.2328 268.22 54.5896C268.482 54.6623 268.763 54.6278 269 54.4937C269.236 54.3596 269.41 54.1369 269.483 53.8746C269.556 53.6123 269.521 53.3319 269.387 53.095C269.253 52.8582 269.03 52.6843 268.768 52.6116C260.016 50.0319 250.86 49.1021 241.768 49.8696C240.46 49.9776 240.492 52.0336 241.82 51.9216Z" fill="#000001"/>
<path d="M262.436 76.9937C267.114 78.0749 271.647 79.7083 275.94 81.8597C277.128 82.4597 278.14 80.6597 276.94 80.0717C272.495 77.8358 267.8 76.1359 262.954 75.0077C261.67 74.7097 261.138 76.6937 262.436 76.9937Z" fill="#000001"/>
<path d="M272.778 86.8337C271.54 86.3337 270.956 88.2997 272.178 88.7957C275.38 90.0948 278.316 91.9706 280.84 94.3297C281.814 95.2357 283.252 93.7697 282.28 92.8637C279.509 90.2882 276.288 88.2442 272.778 86.8337V86.8337Z" fill="#000001"/>
<path d="M311.828 130.254C311.633 130.072 311.375 129.973 311.108 129.978C310.841 129.983 310.587 130.091 310.399 130.28C310.211 130.469 310.103 130.724 310.099 130.991C310.096 131.257 310.195 131.515 310.378 131.71C315.118 136.348 318.328 142.323 319.578 148.836C319.834 150.15 321.82 149.62 321.566 148.326C320.232 141.452 316.835 135.148 311.828 130.254V130.254Z" fill="#000001"/>
</svg>
